<svg height="1200" viewBox="0 0 1200 1200" width="1200" xmlns="http://www.w3.org/2000/svg" xmlns:xlink="http://www.w3.org/1999/xlink"><defs><path id="a" d="m0 0h1200v1200h-1200z"/><mask id="b" fill="#fff"><use fill="#fff" fill-rule="evenodd" xlink:href="#a"/></mask></defs><g fill="none" fill-rule="evenodd"><use fill="#fff4f5" xlink:href="#a"/><g mask="url(#b)"><g transform="matrix(1 0 0 -1 320.5 814.316427)"><circle cx="253.864357" cy="248.909582" fill="#f7f9fa" r="89.32162"/><path d="m196.979106.82982149 1.291835.02765118c315.748077.20315502 310.012219 113.85865933 288.960744 152.86141433s-48.043242 79.959184-77.733726 115.62921c-50.046649 60.125839-87.624822 104.513883-157.618527 100.641904-34.921961 0-69.899025-12.046209-93.151985-33.899665l-156.37177938 6.331143c-1.09534616.044352-2.01925451-.807646-2.06360705-1.902992-.0297267-.734142.34851708-1.424651.98317752-1.794858l49.52819051-28.890222-4.6023522-.012633c-1.0962396-.003023-1.9824666-.894152-1.9794434-1.990392.0016145-.585462.2616107-1.140348.7104539-1.516258l101.7023051-85.177515c12.046167-21.927828 29.518961-41.507145 46.565811-52.39358 9.283544-5.928643-36.996893-163.9530694 2.541584-167.84261232zm54.900326 220.29081151c-21.924875 0-39.698498 17.773623-39.698498 39.698498s17.773623 39.698498 39.698498 39.698498 39.698498-17.773623 39.698498-39.698498-17.773623-39.698498-39.698498-39.698498z" fill="#000"/><path d="m548.993302 282.488662c-.525756-2.865667-2.037659-4.594337-4.419189-5.374147-5.11546-1.676864-10.412803 2.290352-10.45259 2.303985-43.350679 30.26536-72.460488 38.990508-100.592674 46.450511-38.419945 10.186611-139.828252 20.596804-158.019395 24.460409-51.671828 10.974601-92.015754 42.306065-108.785936 88.047657-.511094 1.393764-.992405 2.799727-1.447211 4.216727 136.749049-70.46052 213.353385-6.670395 256.705952 35.672377 5.654745-15.700572 11.519448-32.729515 14.317464-39.226538 1.412435-2.944737 2.563413-3.443707 5.217769-4.24533 8.676388-2.19492 14.542115-4.223517 17.133948-4.978788 9.693796-2.835673 51.140388-19.8688 74.896015-62.872877 4.942103-8.954183 11.069287-24.024151 14.044779-38.385201.269983-1.300592-1.173714-1.949525-2.171228-.995212-11.327902 10.851904-26.566288 20.744041-43.057962 23.991432-1.386858.272661-1.600002-.548048-.261457-1.25424 26.444085-13.995684 50.006461-50.793999 46.891715-67.810765z" fill="#ff2d4d" transform="matrix(.99254615 -.12186934 -.12186934 -.99254615 48.666757 795.694448)"/><circle cx="154.618112" cy="149.663337" fill="#ff2d4d" r="89.32162"/><path d="m104.99499 240.969883h293.768885v39.698498h-293.768885z" fill="#ffdf19" transform="matrix(.70710678 .70710678 -.70710678 .70710678 258.200754 -101.713499)"/><path d="m104.99499 240.969883h293.768885v39.698498h-293.768885z" fill="#5c2fff"/></g></g></g></svg>