<svg height="1200" viewBox="0 0 800 1200" width="800" xmlns="http://www.w3.org/2000/svg" xmlns:xlink="http://www.w3.org/1999/xlink"><defs><path id="a" d="m0 0h800v1200h-800z"/><linearGradient id="b" x1="50%" x2="50%" y1="100%" y2="0%"><stop offset="0" stop-color="#ffc6ac"/><stop offset="1" stop-color="#ffc0a3"/></linearGradient><linearGradient id="c" x1="50%" x2="50%" y1="100%" y2="0%"><stop offset="0" stop-color="#ffb798"/><stop offset="1" stop-color="#ffd9c3"/></linearGradient><linearGradient id="d" x1="50%" x2="50%" y1="100%" y2="0%"><stop offset="0" stop-color="#ffc6aa"/><stop offset="1" stop-color="#ffe0d1"/></linearGradient><linearGradient id="e" x1="0%" x2="99.316406%" y1="50%" y2="50%"><stop offset="0" stop-color="#ffd3be"/><stop offset=".366659628" stop-color="#ffba9c"/><stop offset=".710224085" stop-color="#ffbea2"/><stop offset="1" stop-color="#ffd8c3"/></linearGradient><linearGradient id="f" x1="91.559939%" x2="11.71875%" y1="43.332068%" y2="50%"><stop offset="0" stop-color="#ffe3d6" stop-opacity=".2"/><stop offset=".283699383" stop-color="#fed0bb" stop-opacity=".88652"/><stop offset="1" stop-color="#ffd1bc" stop-opacity=".6"/></linearGradient><linearGradient id="g" x1="50%" x2="50%" y1="100%" y2="0%"><stop offset="0" stop-color="#ffbda0" stop-opacity=".6"/><stop offset=".23505126" stop-color="#ffc1a5"/><stop offset="1" stop-color="#ffc8af"/></linearGradient><linearGradient id="h" x1="50%" x2="68.529184%" y1="0%" y2="123.072732%"><stop offset="0" stop-color="#ffcfb8"/><stop offset=".589518271" stop-color="#ffc4aa"/><stop offset="1" stop-color="#ffd0ba"/></linearGradient><linearGradient id="i" x1="50%" x2="50%" y1="100%" y2="0%"><stop offset="0" stop-color="#ffbca0"/><stop offset=".172270904" stop-color="#ffc0a4"/><stop offset="1" stop-color="#ffceb8"/></linearGradient><linearGradient id="j" x1="50%" x2="41.230693%" y1="109.013277%" y2="0%"><stop offset="0" stop-color="#ffbb9e"/><stop offset=".241324762" stop-color="#ffc1a6"/><stop offset="1" stop-color="#ffd0b9"/></linearGradient><linearGradient id="k" x1="50%" x2="50%" y1="100%" y2="0%"><stop offset="0" stop-color="#ffceb8"/><stop offset=".205172847" stop-color="#ffba9c"/><stop offset=".565967354" stop-color="#ffc9b0"/><stop offset="1" stop-color="#ffd6c0"/></linearGradient><linearGradient id="l" x1="50%" x2="50%" y1="0%" y2="100%"><stop offset="0" stop-color="#ffe1d3"/><stop offset=".575392785" stop-color="#ffc7ae"/><stop offset=".729045634" stop-color="#ffbea0"/><stop offset="1" stop-color="#ffcdb6"/></linearGradient><linearGradient id="m"><stop offset="0" stop-color="#ff5a72"/><stop offset=".405299831" stop-color="#f5263e"/><stop offset="1" stop-color="#ff5e6b"/></linearGradient><radialGradient id="n" cx="50%" cy="0%" gradientTransform="matrix(0 1 -.857143 0 .5 -.5)" r="115.785692%" xlink:href="#m"/><radialGradient id="o" cx="50%" cy="0%" gradientTransform="matrix(0 1 -.823529 0 .5 -.5)" r="115.785692%" xlink:href="#m"/><mask id="p" fill="#fff"><use fill="#fff" fill-rule="evenodd" xlink:href="#a"/></mask></defs><g fill="none" fill-rule="evenodd"><use fill="#000" xlink:href="#a"/><g mask="url(#p)"><g transform="translate(100 300)"><rect fill="none" height="600" rx="112.5" width="600"/><g fill-rule="evenodd"><path d="m274.232128 391.712657h70.3125c15.533009 0 28.125 12.591991 28.125 28.125v42.1875c0 34.949269-28.331981 63.28125-63.28125 63.28125s-63.28125-28.331981-63.28125-63.28125v-42.1875c0-15.533009 12.591991-28.125 28.125-28.125z" fill="url(#b)"/><rect fill="url(#c)" height="103.125" rx="24.609375" stroke="url(#d)" stroke-width="1.40625" transform="matrix(.90630779 -.42261826 .42261826 .90630779 -85.242781 135.807164)" width="49.21875" x="239.0625" y="208.59375"/><path d="m301.068145 299.208965h-39.84375c-11.455594 0-21.826688 4.643297-29.333883 12.150492s-12.150492 17.878289-12.150492 29.333883v63.28125c0 22.458141 9.10296 42.790173 23.820456 57.507668 14.717496 14.717496 35.049527 23.820457 57.507669 23.820457s42.790173-9.102961 57.507669-23.820457c14.717495-14.717495 23.820456-35.049527 23.820456-57.507668v-23.4375c0-22.458142-9.102961-42.790173-23.820456-57.507669-14.717496-14.717496-35.049527-23.820456-57.507669-23.820456z" fill="url(#e)" stroke="url(#f)" stroke-width="1.40625" transform="matrix(.76604444 -.64278761 .64278761 .76604444 -181.700628 285.293307)"/><path d="m354.062695 434.815853c.394891-7.945488.987228-19.863719 1.77701-35.754694 0-12.944174 9.96866-23.4375 22.265625-23.4375s22.265625 10.493326 22.265625 23.4375l-2.523435 52.632835" fill="url(#g)" stroke="url(#h)" stroke-linecap="round" stroke-width="1.40625" transform="matrix(.76604444 .64278761 -.64278761 .76604444 354.14674 -145.69252)"/><path d="m327.282387 408.47154 1.264724-50.544413c0-14.238591 11.017993-25.78125 24.609375-25.78125 13.591383 0 24.609375 11.542659 24.609375 25.78125v51.5625" fill="url(#i)" transform="matrix(.76604444 .64278761 -.64278761 .76604444 320.832034 -139.843265)"/><path d="m293.872143 373.512574-.057297-55.336175c0-14.238591 11.542659-25.78125 25.78125-25.78125 14.238592 0 25.78125 11.542659 25.78125 25.78125v51.5625" fill="url(#j)" transform="matrix(.76604444 .64278761 -.64278761 .76604444 288.7899 -127.536004)"/><path d="m264.897868 413.504345c-5.730033-6.828787-9.54174-17.500857-9.440257-33.189402 0-36.447366 1.427098-91.539961 4.281294-165.277784 0-14.238591 11.251334-26.474354 24.099674-26.363561 12.848341.113841 23.181532 13.389606 23.181532 27.628198-.691042 49.404795-1.209323 86.458391-1.554844 111.160789-.031596 2.258923-.078991 5.647308-.142184 10.165155" fill="url(#k)" stroke="url(#l)" stroke-linecap="round" stroke-width="1.40625" transform="matrix(.76604444 .64278761 -.64278761 .76604444 259.333423 -110.334782)"/><rect fill="#fff" fill-opacity=".8" height="51.5625" opacity=".4" rx="18.75" transform="matrix(.76604444 .64278761 -.64278761 .76604444 232.289424 -159.912911)" width="37.5" x="317.073268" y="213.367268"/><path d="m295.384772 192.702709c2.254411-3.283921 2.271478-4.986471 2.271478-7.649499 0-4.102154-3.593045-9.27196-8.64581-9.27196-3.248153 0-5.527193 1.280623-6.740798 2.19538-.208817.157397-.386091.303962-.531331.431307-.67189.494872-.310125.492447-.964699.010474-.14621-.128688-.325701-.277574-.537953-.437782-1.212262-.915019-3.493211-2.199379-6.746099-2.199379-5.052765 0-8.64581 5.169806-8.64581 9.27196 0 4.102153 1.87846 8.148408 5.257243 11.155844 3.378783 3.007437 5.637105 4.805993 8.072835 6.357858.379824.241995.714748.458798 1.009732.652352 1.596686 1.047671 3.106991.75521 4.116627.065211.355014-.242621.71089-.490499 1.025985-.717563 1.211201-.872821 2.603912-1.889276 2.603912-1.889276s6.200277-4.691005 8.454688-7.974927z" fill="url(#n)" opacity=".6" transform="matrix(.96592583 -.25881905 .25881905 .96592583 -39.551817 79.261625)"/><path d="m339.014803 133.233405c5.474999-7.662482 5.516447-11.6351 5.516447-17.848832 0-9.571692-8.725966-21.634573-20.996966-21.634573-7.888372 0-13.423185 2.9881201-16.37051 5.1225539-.507128.3672588-.937651.7092433-1.290377 1.0063831-1.631731 1.1547-.753161 1.149043-2.342839.0244389-.355082-.3002711-.790988-.6476719-1.306457-1.0214917-2.944066-2.1350446-8.483512-5.1318842-16.383385-5.1318842-12.271 0-20.996966 12.062881-20.996966 21.634573 0 9.571691 4.561975 19.012951 12.76759 26.030303 8.205616 7.017352 13.690112 11.213985 19.605457 14.835001.92243.564656 1.735815 1.070529 2.452206 1.522157 3.877666 2.444564 7.545549 1.762156 9.997522.152159.862178-.566118 1.726448-1.144498 2.491678-1.674316 2.941489-2.036581 6.323786-4.408309 6.323786-4.408309s15.057815-10.94568 20.532814-18.608163z" fill="url(#o)" transform="matrix(.96592583 .25881905 -.25881905 .96592583 43.13876 -74.546415)"/></g></g></g></g></svg>