<svg height="1200" viewBox="0 0 1200 1200" width="1200" xmlns="http://www.w3.org/2000/svg" xmlns:xlink="http://www.w3.org/1999/xlink"><defs><path id="a" d="m0 0h1200v1200h-1200z"/><linearGradient id="b" x1="18.220222%" x2="79.915237%" y1="0%" y2="100%"><stop offset="0" stop-color="#f7f7f7"/><stop offset=".694784628" stop-color="#b7c7c9"/><stop offset="1" stop-color="#ebebeb"/></linearGradient><path id="c" d="m229.422345 11.1490328c10.665-6.1574408 27.953926-6.15885864 38.621382 0l210.111654 121.3080202c10.665001 6.15744 19.310691 21.129381 19.310691 33.447098v242.61604c0 12.314881-8.643235 27.288239-19.310691 33.447098l-210.111654 121.30802c-10.665 6.157441-27.953926 6.158859-38.621382 0l-210.1116538-121.30802c-10.66500025-6.157441-19.3106912-21.129381-19.3106912-33.447098v-242.61604c0-12.314882 8.64323518-27.28824 19.3106912-33.447098z"/><filter id="d" height="106.3%" width="109.8%" x="-4.9%" y="-3.1%"><feGaussianBlur in="SourceAlpha" result="shadowBlurInner1" stdDeviation="20.5"/><feOffset dx="-3" dy="-8" in="shadowBlurInner1" result="shadowOffsetInner1"/><feComposite in="shadowOffsetInner1" in2="SourceAlpha" k2="-1" k3="1" operator="arithmetic" result="shadowInnerInner1"/><feColorMatrix in="shadowInnerInner1" result="shadowMatrixInner1" type="matrix" values="0 0 0 0 1   0 0 0 0 0.479403409   0 0 0 0 0  0 0 0 0.22 0"/><feGaussianBlur in="SourceAlpha" result="shadowBlurInner2" stdDeviation="9.5"/><feOffset dx="3" dy="3" in="shadowBlurInner2" result="shadowOffsetInner2"/><feComposite in="shadowOffsetInner2" in2="SourceAlpha" k2="-1" k3="1" operator="arithmetic" result="shadowInnerInner2"/><feColorMatrix in="shadowInnerInner2" result="shadowMatrixInner2" type="matrix" values="0 0 0 0 1   0 0 0 0 1   0 0 0 0 1  0 0 0 0.24 0"/><feMerge><feMergeNode in="shadowMatrixInner1"/><feMergeNode in="shadowMatrixInner2"/></feMerge></filter><linearGradient id="e" x1="14.65956%" x2="83.266992%" y1="0%" y2="100%"><stop offset="0" stop-color="#f7f7f7"/><stop offset=".694784628" stop-color="#d5e4e6"/><stop offset="1" stop-color="#ebebeb"/></linearGradient><path id="f" d="m240.724946 46.8025563c4.422746-4.2773568 11.866712-4.5755437 16.613595-.676671l165.014248 135.5351597c4.752689 3.903642 8.203881 12.042445 7.708295 18.18048l-13.973356 173.065677c-.495516 6.13716-5.22149 13.596272-10.566158 16.666367l-147.119586 84.508729c-5.340013 3.067421-14.445677 4.131451-20.360889 2.369784l-198.7506868-59.191898c-5.9049964-1.758625-9.3038232-7.969048-7.5881965-13.882729l59.1681767-203.949785c1.7141511-5.908594 6.6920338-14.168786 11.1118356-18.443296z"/><filter id="g" height="103.5%" width="104.6%" x="-2.1%" y="-1.5%"><feGaussianBlur in="SourceAlpha" result="shadowBlurInner1" stdDeviation="9.5"/><feOffset dx="3" dy="3" in="shadowBlurInner1" result="shadowOffsetInner1"/><feComposite in="shadowOffsetInner1" in2="SourceAlpha" k2="-1" k3="1" operator="arithmetic" result="shadowInnerInner1"/><feColorMatrix in="shadowInnerInner1" type="matrix" values="0 0 0 0 1   0 0 0 0 1   0 0 0 0 1  0 0 0 0.24 0"/></filter><mask id="h" fill="#fff"><use fill="#fff" fill-rule="evenodd" xlink:href="#a"/></mask></defs><g fill="none" fill-rule="evenodd"><use fill="#000" xlink:href="#a"/><g mask="url(#h)"><g transform="translate(351 313)"><g opacity=".6"><use fill="url(#b)" fill-rule="evenodd" xlink:href="#c"/><use fill="#000" filter="url(#d)" xlink:href="#c"/></g><use fill="url(#e)" fill-rule="evenodd" xlink:href="#f"/><use fill="#000" filter="url(#g)" xlink:href="#f"/></g></g></g></svg>