<svg height="1200" viewBox="0 0 1654 1200" width="1654" xmlns="http://www.w3.org/2000/svg" xmlns:xlink="http://www.w3.org/1999/xlink"><defs><path id="a" d="m0 0h1654v1200h-1654z"/><linearGradient id="b" x1="50%" x2="50%" y1="0%" y2="100%"><stop offset="0" stop-color="#ffe43b"/><stop offset="1" stop-color="#f8c21e"/></linearGradient><linearGradient id="c" x1="50%" x2="50%" y1="0%" y2="100%"><stop offset="0" stop-color="#ffde2f"/><stop offset="1" stop-color="#ffba15"/></linearGradient><linearGradient id="d"><stop offset="0" stop-color="#794c15"/><stop offset="1" stop-color="#442509"/></linearGradient><linearGradient id="e" x1="50%" x2="50%" xlink:href="#d" y1="-41.591174%" y2="61.269191%"/><linearGradient id="f" x1="50%" x2="50%" xlink:href="#d" y1="-43.14125%" y2="100%"/><linearGradient id="g" x1="50%" x2="50%" xlink:href="#d" y1="-55.891523%" y2="61.538111%"/><linearGradient id="h" x1="50%" x2="50%" y1="0%" y2="100%"><stop offset="0" stop-color="#78d119"/><stop offset="1" stop-color="#5aaf01"/></linearGradient><linearGradient id="i" x1="50%" x2="50%" y1="0%" y2="100%"><stop offset="0" stop-color="#6bc40c"/><stop offset="1" stop-color="#519d00"/></linearGradient><linearGradient id="j" x1="50%" x2="50%" y1="0%" y2="100%"><stop offset="0" stop-color="#ff771c"/><stop offset="1" stop-color="#e4610a"/></linearGradient><linearGradient id="k" x1="50%" x2="50%" y1="0%" y2="100%"><stop offset="0" stop-color="#fd751b"/><stop offset="1" stop-color="#db5800"/></linearGradient><linearGradient id="l" x1="50%" x2="50%" y1="0%" y2="100%"><stop offset="0" stop-color="#fefefe"/><stop offset="1" stop-color="#eee5e5"/></linearGradient><linearGradient id="m" x1="50%" x2="50%" y1="0%" y2="100%"><stop offset="0" stop-color="#ef5f00" stop-opacity=".8"/><stop offset="1" stop-color="#da5700"/></linearGradient><linearGradient id="n" x1="50%" x2="50%" xlink:href="#d" y1="-29.664587%" y2="100%"/><linearGradient id="o" x1="50%" x2="50%" y1="-41.591174%" y2="61.269191%"><stop offset="0" stop-color="#fff"/><stop offset="1" stop-color="#fff9f4"/></linearGradient><linearGradient id="p" x1="50%" x2="50%" xlink:href="#d" y1="0%" y2="100%"/><linearGradient id="q" x1="50%" x2="50%" y1="0%" y2="100%"><stop offset="0" stop-color="#fa8134"/><stop offset="1" stop-color="#f87016"/></linearGradient><linearGradient id="r" x1="50%" x2="50%" y1="0%" y2="100%"><stop offset="0" stop-color="#fd751b"/><stop offset="1" stop-color="#e6620a"/></linearGradient><linearGradient id="s" x1="50%" x2="50%" y1="0%" y2="99.482686%"><stop offset="0" stop-color="#666"/><stop offset="1" stop-color="#333"/></linearGradient><linearGradient id="t" x1="50%" x2="50%" y1="0%" y2="99.809966%"><stop offset="0" stop-color="#636363"/><stop offset="1" stop-color="#2d2d2d"/></linearGradient><linearGradient id="u" x1="50%" x2="50%" y1="-9.969048%" y2="104.983887%"><stop offset="0" stop-color="#59300a"/><stop offset="1" stop-color="#572e08"/></linearGradient><rect id="v" height="31.103448" rx="15.551724" width="31.103448" x="55.137931" y="79.172414"/><linearGradient id="w" x1="50%" x2="50%" y1="-9.969048%" y2="100%"><stop offset="0" stop-color="#ff8a3c"/><stop offset="1" stop-color="#d55500"/></linearGradient><linearGradient id="x" x1="50%" x2="50%" y1="-43.14125%" y2="100%"><stop offset="0" stop-color="#74ddff"/><stop offset="1" stop-color="#49c9fe"/></linearGradient><linearGradient id="y" x1="50%" x2="50%" y1="-9.969048%" y2="104.983887%"><stop offset="0" stop-color="#894e18"/><stop offset="1" stop-color="#67380f"/></linearGradient><linearGradient id="z" x1="50%" x2="50%" y1="-43.14125%" y2="100%"><stop offset="0" stop-color="#fffcf9"/><stop offset="1" stop-color="#fff9f4"/></linearGradient><path id="A" d="m59.3793103 108.895249c9.5650006 0 19.7931035-7.909935 19.7931035-17.6673351 0-9.7574-10.2281029-7.5717152-19.7931035-7.5717152-9.5650005 0-19.7931034-2.1856848-19.7931034 7.5717152 0 9.7574001 10.2281029 17.6673351 19.7931034 17.6673351z"/><linearGradient id="B" x1="50%" x2="50%" y1="0%" y2="100%"><stop offset="0" stop-color="#ff8a3d"/><stop offset="1" stop-color="#ec640a"/></linearGradient><linearGradient id="C" x1="50%" x2="50%" y1="0%" y2="100%"><stop offset="0" stop-color="#a296ff"/><stop offset="1" stop-color="#8075fa"/></linearGradient><linearGradient id="D" x1="50%" x2="50%" y1="0%" y2="100%"><stop offset="0" stop-color="#bab2fe"/><stop offset="1" stop-color="#a8a0ff"/></linearGradient><linearGradient id="E" x1="50%" x2="50%" y1="0%" y2="100%"><stop offset="0" stop-color="#b1a7fc"/><stop offset="1" stop-color="#968cff"/></linearGradient><linearGradient id="F" x1="50%" x2="50%" y1="0%" y2="100%"><stop offset="0" stop-color="#bcb4ff"/><stop offset="1" stop-color="#9a90ff"/></linearGradient><path id="G" d="m22.6206897 28.5102616c10.9314291 0 22.6206896-8.8616743 22.6206896-19.79310346 0-10.93142918-11.6892605-8.48275862-22.6206896-8.48275862-10.9314292 0-22.6206897-2.44867056-22.6206897 8.48275862 0 10.93142916 11.6892605 19.79310346 22.6206897 19.79310346z"/><linearGradient id="H" x1="45.62528%" x2="53.585856%" xlink:href="#d" y1="-17.478935%" y2="114.164168%"/><linearGradient id="I" x1="50%" x2="50%" y1="0%" y2="100%"><stop offset="0" stop-color="#ffb382"/><stop offset="1" stop-color="#ed7e4c"/></linearGradient><linearGradient id="J" x1="50%" x2="50%" y1="-6.842275%" y2="100%"><stop offset="0" stop-color="#7b491b"/><stop offset=".925021745" stop-color="#683d16"/><stop offset="1" stop-color="#583210"/></linearGradient><rect id="K" height="45.241379" rx="22.62069" width="45.241379"/><linearGradient id="L" x1="50%" x2="50%" y1="-5.440042%" y2="100%"><stop offset="0" stop-color="#ff804d"/><stop offset="1" stop-color="#f65f3b"/></linearGradient><mask id="M" fill="#fff"><use fill="#fff" fill-rule="evenodd" xlink:href="#a"/></mask><mask id="N" fill="#fff"><use fill="#fff" fill-rule="evenodd" xlink:href="#v"/></mask><mask id="O" fill="#fff"><use fill="#fff" fill-rule="evenodd" xlink:href="#A"/></mask><mask id="P" fill="#fff"><use fill="#fff" fill-rule="evenodd" xlink:href="#G"/></mask><mask id="Q" fill="#fff"><use fill="#fff" fill-rule="evenodd" xlink:href="#K"/></mask></defs><g fill="none" fill-rule="evenodd"><use fill="#f7f8fa" xlink:href="#a"/><g mask="url(#M)"><g transform="translate(190 190)"><rect fill="#d8d8d8" height="139.965517" opacity=".1" rx="14.137931" stroke="#979797" stroke-width="1.413793" width="139.965517" x=".706897" y=".706897"/><g transform="translate(11.310345 11.310345)"><rect fill="url(#b)" height="115.931034" rx="57.965517" stroke="url(#c)" stroke-width="2.827586" width="115.931034" x="1.413793" y="1.413793"/><rect fill="url(#e)" height="16.965517" rx="8.482759" width="16.965517" x="29.689655" y="33.931035"/><rect fill="url(#f)" height="11.310345" rx="5.655172" width="36.758621" x="41" y="70.689655"/><rect fill="url(#g)" height="16.965517" rx="8.482759" width="16.965517" x="72.103448" y="33.931035"/></g><g transform="translate(1131.034483 452.413793)"><rect fill="#d8d8d8" height="139.965517" opacity=".1" rx="14.137931" stroke="#979797" stroke-width="1.413793" width="139.965517" x=".706897" y=".706897"/><g transform="translate(11.310345 11.310345)"><rect fill="url(#h)" height="115.931034" rx="57.965517" stroke="url(#i)" stroke-width="2.827586" width="115.931034" x="1.413793" y="1.413793"/><rect fill="url(#e)" height="16.965517" rx="8.482759" width="16.965517" x="29.689655" y="33.931035"/><path d="m0 5.76058259c2.02188865-2.25041053 2.94767422-5.66665078 7.73269067-5.76058259 6.90737013.58277206 4.79486603 7.02034412 11.31355873 7.02034412 6.5186928 0 4.6517684-7.0552546 11.0896026-7.02021403s5.058864 7.02021403 11.6979794 7.02021403c4.1427725 0 5.3519279-3.75589184 7.6774348-7.02034412" stroke="#442509" stroke-linecap="round" stroke-linejoin="round" stroke-width="5.816749" transform="matrix(-1 0 0 1 83.4423 76.344828)"/><rect fill="url(#g)" height="16.965517" rx="8.482759" width="16.965517" x="72.103448" y="33.931035"/></g></g><g transform="translate(1131.034483 678.62069)"><rect fill="#d8d8d8" height="139.965517" opacity=".1" rx="14.137931" stroke="#979797" stroke-width="1.413793" width="139.965517" x=".706897" y=".706897"/><g transform="translate(11.310345 11.310345)"><rect fill="url(#j)" height="115.931034" rx="57.965517" stroke="url(#k)" stroke-width="2.827586" width="115.931034" x="1.413793" y="1.413793"/><rect fill="url(#l)" height="26.862069" rx="13.431035" stroke="url(#m)" stroke-width="1.413793" width="63.62069" x="27.568966" y="68.568966"/><g fill="url(#f)"><rect height="7.068966" rx="3.534483" transform="matrix(.8660254 .5 -.5 .8660254 29.816538 -13.258377)" width="25.448276" x="26.924599" y="45.474745"/><rect height="7.068966" rx="3.534483" transform="matrix(-.8660254 .5 .5 .8660254 123.349804 -33.05148)" width="25.448276" x="66.510806" y="45.474745"/></g></g></g><g transform="translate(226.206897)"><rect fill="#d8d8d8" height="139.965517" opacity=".1" rx="14.137931" stroke="#979797" stroke-width="1.413793" width="139.965517" x=".706897" y=".706897"/><g transform="translate(11.310345 11.310345)"><rect fill="url(#b)" height="115.931034" rx="57.965517" stroke="url(#c)" stroke-width="2.827586" width="115.931034" x="1.413793" y="1.413793"/><rect fill="url(#e)" height="16.965517" rx="8.482759" width="16.965517" x="29.689655" y="33.931035"/><path d="m42.9455956 73.5067939c1.8797179 7.3226434 8.5247029 12.7345854 16.4337147 12.7345854 7.9319936 0 14.5926038-5.4434394 16.4499801-12.7984675" stroke="url(#n)" stroke-linecap="round" stroke-linejoin="round" stroke-width="8.482759"/><rect fill="url(#g)" height="16.965517" rx="8.482759" width="16.965517" x="72.103448" y="33.931035"/></g></g><g transform="translate(0 226.206897)"><rect fill="#d8d8d8" height="139.965517" opacity=".1" rx="14.137931" stroke="#979797" stroke-width="1.413793" width="139.965517" x=".706897" y=".706897"/><rect fill="url(#b)" height="115.931034" rx="57.965517" stroke="url(#c)" stroke-width="2.827586" width="115.931034" x="12.724138" y="12.724138"/><rect fill="url(#o)" height="31.103448" rx="15.551724" width="31.103448" x="33.931035" y="38.172414"/><rect fill="url(#o)" height="31.103448" rx="15.551724" width="31.103448" x="76.344828" y="38.172414"/><rect fill="url(#e)" height="16.965517" rx="8.482759" width="16.965517" x="41" y="45.241379"/><rect fill="url(#f)" height="11.310345" rx="5.655172" width="36.758621" x="52.310345" y="96.137931"/><rect fill="url(#g)" height="16.965517" rx="8.482759" width="16.965517" x="83.413793" y="45.241379"/></g><g transform="translate(226.206897 678.62069)"><rect fill="#d8d8d8" height="139.965517" opacity=".1" rx="14.137931" stroke="#979797" stroke-width="1.413793" width="139.965517" x=".706897" y=".706897"/><rect fill="url(#b)" height="115.931034" rx="57.965517" stroke="url(#c)" stroke-width="2.827586" width="115.931034" x="12.724138" y="12.724138"/><path d="m38.1724138 50.9318356c1.1314255 4.0445088 5.1311243 7.0336816 9.8916566 7.0336816 4.7743652 0 8.7834691-3.0065697 9.9014468-7.0689655" stroke="url(#n)" stroke-linecap="round" stroke-linejoin="round" stroke-width="7.068966" transform="matrix(1 0 0 -1 0 108.862068)"/><rect fill="url(#o)" height="33.931035" rx="16.965517" width="33.931035" x="74.931035" y="36.758621"/><path d="m70.6896552 113.103448c12.2978578 0 25.4482758-8.788817 25.4482758-19.6303725s-13.150418-8.4130169-25.4482758-8.4130169c-12.2978579 0-25.4482759-2.4285386-25.4482759 8.4130169s13.150418 19.6303725 25.4482759 19.6303725z" fill="url(#p)"/><path d="m65.0344828 96.137931h11.3103448c3.9040818 0 7.0689655 3.1648837 7.0689655 7.068966v12.800166c0 6.985358-5.6627513 12.648109-12.648109 12.648109-7.0693369 0-12.8001669-5.73083-12.8001669-12.800166v-12.648109c0-3.9040823 3.1648837-7.068966 7.0689656-7.068966z" fill="url(#q)"/><rect fill="url(#g)" height="16.965517" rx="8.482759" width="16.965517" x="83.413793" y="45.241379"/></g><g transform="translate(678.62069 678.62069)"><rect fill="#d8d8d8" height="139.965517" opacity=".1" rx="14.137931" stroke="#979797" stroke-width="1.413793" width="139.965517" x=".706897" y=".706897"/><rect fill="url(#b)" height="115.931034" rx="57.965517" stroke="url(#c)" stroke-width="2.827586" width="115.931034" x="12.724138" y="12.724138"/><g fill="url(#r)" fill-rule="nonzero" transform="translate(32.517241 43.827586)"><path d="m22.3541158 0c-2.6761801 0-5.1646993 2.5952569-6.8022485 4.54317219-1.6370481-1.94834368-4.1249946-4.54317219-6.80260643-4.54317219-4.82449026 0-8.74926087 3.77634387-8.74926087 8.41797567 0 2.76922123 1.40586341 4.71192443 2.53572975 6.27289123 3.28404652 4.5337832 11.54183865 10.1757904 11.89153275 10.4136571.3368088.2289775.7310289.3437519 1.1239247.3437519.3939339 0 .7873666-.1147744 1.1238174-.3437876.3501237-.237831 8.6086316-5.8798382 11.8916759-10.4136214 1.1305822-1.5609311 2.5367678-3.50367 2.5367678-6.27289123 0-4.6416675-3.924878-8.41797567-8.7493325-8.41797567z"/><path d="m67.5954951 0c-2.67618 0-5.1646993 2.5952569-6.8022485 4.54317219-1.6370481-1.94834368-4.1249946-4.54317219-6.8026064-4.54317219-4.8244903 0-8.7492609 3.77634387-8.7492609 8.41797567 0 2.76922123 1.4058634 4.71192443 2.5357298 6.27289123 3.2840465 4.5337832 11.5418386 10.1757904 11.8915327 10.4136571.3368088.2289775.7310289.3437519 1.1239248.3437519.3939338 0 .7873665-.1147744 1.1238173-.3437876.3501237-.237831 8.6086316-5.8798382 11.891676-10.4136214 1.1305821-1.5609311 2.5367677-3.50367 2.5367677-6.27289123 0-4.6416675-3.924878-8.41797567-8.7493325-8.41797567z"/></g><path d="m53.7241379 93.3742269c1.8797179 7.3226431 8.5247029 12.7345851 16.4337148 12.7345851 7.9319935 0 14.5926038-5.443439 16.44998-12.7984672" stroke="url(#n)" stroke-linecap="round" stroke-linejoin="round" stroke-width="8.482759"/></g><g transform="translate(678.62069 452.413793)"><rect fill="#d8d8d8" height="139.965517" opacity=".1" rx="14.137931" stroke="#979797" stroke-width="1.413793" width="139.965517" x=".706897" y=".706897"/><rect fill="url(#b)" height="115.931034" rx="57.965517" stroke="url(#c)" stroke-width="2.827586" width="115.931034" x="12.724138" y="12.724138"/><rect fill="url(#o)" height="42.413793" rx="21.206897" width="42.413793" x="21.206897" y="35.344828"/><rect fill="url(#o)" height="42.413793" rx="21.206897" width="42.413793" x="77.758621" y="35.344828"/><rect fill="url(#e)" height="22.62069" rx="11.310345" width="22.62069" x="31.103448" y="45.241379"/><rect fill="url(#f)" height="14.137931" rx="7.068966" width="14.137931" x="63.62069" y="107.448276"/><rect fill="url(#g)" height="22.62069" rx="11.310345" width="22.62069" x="87.655172" y="45.241379"/></g><g transform="translate(452.413793 678.62069)"><rect fill="#d8d8d8" height="139.965517" opacity=".1" rx="14.137931" stroke="#979797" stroke-width="1.413793" width="139.965517" x=".706897" y=".706897"/><rect fill="url(#b)" height="115.931034" rx="57.965517" stroke="url(#c)" stroke-width="2.827586" width="115.931034" x="12.724138" y="12.724138"/><text fill="#f67e52" font-family="ArialRoundedMTBold, Arial Rounded MT Bold" font-size="62.206897"><tspan x="1.963295" y="60.413793">?</tspan></text><rect fill="url(#o)" height="42.413793" rx="21.206897" width="42.413793" x="26.862069" y="36.758621"/><rect fill="url(#o)" height="42.413793" rx="21.206897" width="42.413793" x="82" y="36.758621"/><rect fill="url(#e)" height="22.62069" rx="11.310345" width="22.62069" x="41" y="46.655172"/><rect fill="url(#f)" height="19.793103" rx="8.482759" width="16.965517" x="67.862069" y="98.965517"/><rect fill="url(#g)" height="22.62069" rx="11.310345" width="22.62069" x="96.137931" y="46.655172"/></g><g transform="translate(1131.034483 226.206897)"><rect fill="#d8d8d8" height="139.965517" opacity=".1" rx="14.137931" stroke="#979797" stroke-width="1.413793" width="139.965517" x=".706897" y=".706897"/><rect fill="url(#s)" height="115.931034" rx="57.965517" stroke="url(#t)" stroke-width="2.827586" width="115.931034" x="12.724138" y="12.724138"/><rect fill="url(#o)" height="31.103448" rx="15.551724" width="31.103448" x="33.931035" y="38.172414"/><rect fill="url(#o)" height="31.103448" rx="15.551724" width="31.103448" x="76.344828" y="38.172414"/><rect fill="url(#e)" height="16.965517" rx="8.482759" width="16.965517" x="41" y="45.241379"/><rect fill="url(#g)" height="16.965517" rx="8.482759" width="16.965517" x="83.413793" y="45.241379"/></g><g transform="translate(678.62069 226.206897)"><rect fill="#d8d8d8" height="139.965517" opacity=".1" rx="14.137931" stroke="#979797" stroke-width="1.413793" width="139.965517" x=".706897" y=".706897"/><rect fill="url(#b)" height="115.931034" rx="57.965517" stroke="url(#c)" stroke-width="2.827586" width="115.931034" x="12.724138" y="12.724138"/><use fill="url(#u)" xlink:href="#v"/><rect fill="url(#w)" height="31.103448" mask="url(#N)" rx="15.551724" width="31.103448" x="55.137931" y="93.310345"/><path d="m41 49.4827586h16.9655172v22.6206897c0 4.6848982-3.7978604 8.4827586-8.4827586 8.4827586s-8.4827586-3.7978604-8.4827586-8.4827586z" fill="url(#x)"/><path d="m83.4137931 49.4827586h16.9655169v22.6206897c0 4.6848982-3.7978601 8.4827586-8.4827583 8.4827586s-8.4827586-3.7978604-8.4827586-8.4827586z" fill="url(#x)"/><g fill="url(#f)"><rect height="5.655172" rx="2.827586" width="25.448276" x="36.758621" y="48.068966"/><rect height="5.655172" rx="2.827586" width="25.448276" x="79.172414" y="48.068966"/></g></g><g transform="translate(904.827586 226.206897)"><rect fill="#d8d8d8" height="139.965517" opacity=".1" rx="14.137931" stroke="#979797" stroke-width="1.413793" width="139.965517" x=".706897" y=".706897"/><rect fill="url(#b)" height="115.931034" rx="57.965517" stroke="url(#c)" stroke-width="2.827586" width="115.931034" x="12.724138" y="12.724138"/><rect fill="url(#y)" height="22.62069" rx="11.310345" width="22.62069" x="52.310345" y="83.413793"/><path d="m120.171182 22.6206897 8.632721 24.5764978c1.674705 4.76772-.832678 9.9903377-5.600398 11.6650432-.974351.3422496-1.999611.5170796-3.032323.5170796-5.053295 0-9.1498-4.0965051-9.1498-9.1498003 0-1.032712.17483-2.0579719.517079-3.0323225z" fill="url(#x)"/><g fill="url(#f)"><rect height="5.655172" rx="2.827586" width="25.448276" x="33.931035" y="50.896552"/><rect height="5.655172" rx="2.827586" width="25.448276" x="76.344828" y="50.896552"/></g></g><g transform="translate(226.206897 226.206897)"><rect fill="#d8d8d8" height="139.965517" opacity=".1" rx="14.137931" stroke="#979797" stroke-width="1.413793" width="139.965517" x=".706897" y=".706897"/><rect fill="url(#b)" height="115.931034" rx="57.965517" stroke="url(#c)" stroke-width="2.827586" width="115.931034" x="12.724138" y="12.724138"/><rect fill="url(#o)" height="31.103448" rx="15.551724" width="31.103448" x="33.931035" y="38.172414"/><rect fill="url(#o)" height="31.103448" rx="15.551724" width="31.103448" x="76.344828" y="38.172414"/><rect fill="url(#e)" height="16.965517" rx="8.482759" width="16.965517" x="41" y="45.241379"/><path d="m49.4908913 91.2371718c2.4244831 9.7068212 10.9952664 16.8808362 21.1964069 16.8808362 10.2307827 0 18.8217195-7.215768 21.2173862-16.9655176" stroke="url(#n)" stroke-linecap="round" stroke-linejoin="round" stroke-width="7.068966"/><rect fill="url(#g)" height="16.965517" rx="8.482759" width="16.965517" x="83.413793" y="45.241379"/></g><g transform="translate(452.413793 226.206897)"><rect fill="#d8d8d8" height="139.965517" opacity=".1" rx="14.137931" stroke="#979797" stroke-width="1.413793" width="139.965517" x=".706897" y=".706897"/><rect fill="url(#b)" height="115.931034" rx="57.965517" stroke="url(#c)" stroke-width="2.827586" width="115.931034" x="12.724138" y="12.724138"/><rect fill="url(#o)" height="31.103448" rx="15.551724" width="31.103448" x="33.931035" y="38.172414"/><rect fill="url(#o)" height="31.103448" rx="15.551724" width="31.103448" x="76.344828" y="38.172414"/><rect fill="url(#e)" height="16.965517" rx="8.482759" width="16.965517" x="41" y="45.241379"/><rect fill="url(#z)" height="16.965517" opacity=".8" rx="8.482759" transform="matrix(.8660254 .5 -.5 .8660254 56.72256 -22.395457)" width="60.793103" x="39.755221" y="86.16525"/><rect fill="url(#z)" height="16.965517" opacity=".8" rx="8.482759" transform="matrix(-.8660254 .5 .5 .8660254 83.580984 -22.395457)" width="60.793103" x="39.755221" y="86.16525"/><rect fill="url(#g)" height="16.965517" rx="8.482759" width="16.965517" x="83.413793" y="45.241379"/></g><g transform="translate(1131.034483)"><rect fill="#d8d8d8" height="139.965517" opacity=".1" rx="14.137931" stroke="#979797" stroke-width="1.413793" width="139.965517" x=".706897" y=".706897"/><g transform="translate(11.310345 11.310345)"><rect fill="url(#b)" height="115.931034" rx="57.965517" stroke="url(#c)" stroke-width="2.827586" width="115.931034" x="1.413793" y="1.413793"/><rect fill="url(#e)" height="16.965517" rx="8.482759" width="16.965517" x="29.689655" y="33.931035"/><path d="m42.9455956 73.5067939c1.8797179 7.3226434 8.5247029 12.7345854 16.4337147 12.7345854 7.9319936 0 14.5926038-5.4434394 16.4499801-12.7984675" stroke="url(#n)" stroke-linecap="round" stroke-linejoin="round" stroke-width="8.482759" transform="matrix(1 0 0 -1 0 159.684292)"/><rect fill="url(#g)" height="16.965517" rx="8.482759" width="16.965517" x="72.103448" y="33.931035"/></g></g><g transform="translate(226.206897 452.413793)"><rect fill="#d8d8d8" height="139.965517" opacity=".1" rx="14.137931" stroke="#979797" stroke-width="1.413793" width="139.965517" x=".706897" y=".706897"/><g transform="translate(11.310345 11.310345)"><rect fill="url(#b)" height="115.931034" rx="57.965517" stroke="url(#c)" stroke-width="2.827586" width="115.931034" x="1.413793" y="1.413793"/><rect fill="url(#f)" height="6.22069" rx="3.110345" transform="matrix(.93969262 .34202014 -.34202014 .93969262 17.384668 -26.87145)" width="25.448276" x="72.165978" y="32.750607"/><rect fill="url(#f)" height="6.22069" rx="3.110345" transform="matrix(-.93969262 .34202014 .34202014 .93969262 53.188354 -9.378542)" width="25.448276" x="21.269427" y="34.1644"/><rect fill="url(#e)" height="16.965517" rx="8.482759" width="16.965517" x="28.275862" y="45.241379"/><path d="m42.9455956 84.8171387c3.7095768 7.2911461 10.7528287 9.9069992 16.4337147 9.9069992 5.8468537 0 12.724138-2.6158531 16.4499801-9.9708812" stroke="url(#n)" stroke-linecap="round" stroke-linejoin="round" stroke-width="8.482759" transform="matrix(1 0 0 -1 0 179.477394)"/><rect fill="url(#g)" height="16.965517" rx="8.482759" width="16.965517" x="73.517241" y="45.241379"/><path d="m81.9991202 62.2068966 4.5183566 7.6190386c1.4798711 2.4954194.6566064 5.7180291-1.838813 7.1979002-.8110461.4809787-1.7366033.7347853-2.6795436.7347853-2.9012301 0-5.2531419-2.3519118-5.2531419-5.2531419 0-.9429403.2538066-1.8684974.7347854-2.6795436z" fill="url(#x)"/></g></g><g transform="translate(452.413793)"><rect fill="#d8d8d8" height="139.965517" opacity=".1" rx="14.137931" stroke="#979797" stroke-width="1.413793" width="139.965517" x=".706897" y=".706897"/><g transform="translate(11.310345 11.310345)"><rect fill="url(#b)" height="115.931034" rx="57.965517" stroke="url(#c)" stroke-width="2.827586" width="115.931034" x="1.413793" y="1.413793"/><rect fill="url(#e)" height="16.965517" rx="8.482759" width="16.965517" x="29.689655" y="33.931035"/><g stroke="url(#n)" stroke-linecap="round" stroke-linejoin="round"><path d="m42.9455956 73.5067939c1.8797179 7.3226434 8.5247029 12.7345854 16.4337147 12.7345854 7.9319936 0 14.5926038-5.4434394 16.4499801-12.7984675" stroke-width="8.482759"/><path d="m69.2758621 38.2076977c1.1314254 4.0445088 5.1311243 7.0336816 9.8916566 7.0336816 4.7743652 0 8.7834691-3.0065697 9.9014468-7.0689655" stroke-width="7.068966" transform="matrix(1 0 0 -1 0 83.413794)"/></g></g></g><g transform="translate(904.827586 452.413793)"><rect fill="#d8d8d8" height="139.965517" opacity=".1" rx="14.137931" stroke="#979797" stroke-width="1.413793" width="139.965517" x=".706897" y=".706897"/><g transform="translate(11.310345 11.310345)"><rect fill="url(#b)" height="115.931034" rx="57.965517" stroke="url(#c)" stroke-width="2.827586" width="115.931034" x="1.413793" y="1.413793"/><rect fill="url(#e)" height="18.37931" rx="8.482759" width="16.965517" x="26.862069" y="28.275862"/><path d="m24.1499258 20.0960591c2.2455089 3.3598253 6.4294744 5.6376342 11.1900066 5.6376342 4.7743653 0 8.9313733-2.2495818 10.9922773-5.6376342" stroke="url(#n)" stroke-linecap="round" stroke-linejoin="round" stroke-width="7.068966" transform="matrix(1 0 0 -1 0 45.829752)"/><rect fill="url(#e)" height="18.37931" rx="8.482759" width="16.965517" x="74.931035" y="28.275862"/><rect fill="url(#e)" height="33.931035" rx="15.551724" width="31.103448" x="43.827586" y="73.517241"/><path d="m72.1034483 19.7931034c2.2898886 3.3702774 6.5565451 5.6551725 11.4111635 5.6551725 4.8687247 0 9.1078909-2.2565801 11.2095261-5.6551725" stroke="url(#n)" stroke-linecap="round" stroke-linejoin="round" stroke-width="7.068966" transform="matrix(1 0 0 -1 0 45.24138)"/></g></g><g transform="translate(678.62069)"><rect fill="#d8d8d8" height="139.965517" opacity=".1" rx="14.137931" stroke="#979797" stroke-width="1.413793" width="139.965517" x=".706897" y=".706897"/><g transform="translate(11.310345 11.310345)"><rect fill="url(#b)" height="115.931034" rx="57.965517" stroke="url(#c)" stroke-width="2.827586" width="115.931034" x="1.413793" y="1.413793"/><g stroke="url(#n)" stroke-linecap="round" stroke-linejoin="round"><path d="m42.9455956 73.5067939c1.8797179 7.3226434 8.5247029 12.7345854 16.4337147 12.7345854 7.9319936 0 14.5926038-5.4434394 16.4499801-12.7984675" stroke-width="8.482759"/><path d="m69.2758621 38.2076977c1.1314254 4.0445088 5.1311243 7.0336816 9.8916566 7.0336816 4.7743652 0 8.7834691-3.0065697 9.9014468-7.0689655" stroke-width="7.068966" transform="matrix(1 0 0 -1 0 83.413794)"/><path d="m29.6896552 38.2076977c1.1314254 4.0445088 5.1311243 7.0336816 9.8916566 7.0336816 4.7743652 0 8.7834691-3.0065697 9.9014468-7.0689655" stroke-width="7.068966" transform="matrix(1 0 0 -1 0 83.413794)"/></g></g></g><g transform="translate(904.827586 678.62069)"><rect fill="#d8d8d8" height="139.965517" opacity=".1" rx="14.137931" stroke="#979797" stroke-width="1.413793" width="139.965517" x=".706897" y=".706897"/><g transform="translate(11.310345 1.413793)"><rect fill="url(#b)" height="115.931034" rx="57.965517" stroke="url(#c)" stroke-width="2.827586" width="115.931034" x="1.413793" y="11.310345"/><use fill="url(#p)" transform="matrix(1 0 0 -1 0 192.342222)" xlink:href="#A"/><path d="m52.3103448 97.5849046h14.1379311c3.9040818 0 7.0689655 3.1648834 7.0689655 7.0689654s-3.1648837 7.068966-7.0689655 7.068966h-6.9844889-7.1534422c-3.9040818 0-7.0689655-3.164884-7.0689655-7.068966s3.1648837-7.0689654 7.0689655-7.0689654z" fill="url(#B)" mask="url(#O)"/><path d="m69.2758621 60.8283874c1.1314254 4.0445087 5.1311243 7.0336816 9.8916566 7.0336816 4.7743652 0 8.7834691-3.0065698 9.9014468-7.0689656" stroke="url(#n)" stroke-linecap="round" stroke-linejoin="round" stroke-width="7.068966"/><path d="m97.8631445 35.3394975-7.578813 8.193604h8.1093299c.6568337 0 1.1519779.1490175 1.4854473.4470571.3334693.2980396.5002013.6815765.5002013 1.1506224 0 .4495023-.164206.8159389-.4926225 1.0993207-.3284169.2833819-.8260873.4250707-1.4930261.4250707h-11.2166432c-.7882005 0-1.3768157-.1661179-1.7658634-.4983587s-.5835686-.7866222-.5835686-1.3631577c0-.3420127.1364173-.686463.4092559-1.0333615.2728386-.3468986.8387177-.9844982 1.6976541-1.9128181.9094621-.9771789 1.7355445-1.8615125 2.4782718-2.6530274.7427274-.7915149 1.4323925-1.5317168 2.069016-2.2206279.6366234-.6889112 1.1646088-1.2727668 1.5839719-1.7515844.419363-.4788177.7553537-.8892267 1.0079821-1.2312393h-6.1539961c-.8488313 0-1.4904977-.0732873-1.9250185-.2198641s-.6517779-.5325567-.6517779-1.1579512c0-.4592741.164206-.8257107.4926228-1.0993207.3284169-.2736101.7957724-.4104131 1.4020804-.4104131h9.5038314c.8791467 0 1.5536543.1245884 2.0235431.373769.4698887.2491806.7048296.6962333.7048296 1.3411713 0 .2149794-.0454724.4372843-.1364186.6669213s-.1919961.4177411-.3031526.564318c-.1111564.1465768-.2627312.3249093-.4547287.5350027-.1919976.2100935-.4294647.4617133-.7124084.7548669z" fill="url(#C)" fill-rule="nonzero" transform="matrix(.98480775 -.17364818 .17364818 .98480775 -5.344467 16.671084)"/><path d="m111.543591 7.83382625-8.956779 9.68335015h9.583753c.776258 0 1.361429.1761116 1.755529.5283402s.591147.8054995.591147 1.3598264c0 .53123-.194061.9642914-.58219 1.2991973-.388129.3349058-.976285.5023563-1.764486.5023563h-13.2560325c-.9315097 0-1.6271459-.1963212-2.0869295-.5889695-.4597836-.3926482-.689672-.9296444-.689672-1.6110045 0-.4041968.1612204-.8112745.4836661-1.2212455.3224456-.4099709.9912118-1.1634978 2.0063185-2.2606032 1.0748188-1.1548477 2.0510984-2.1999693 2.9288664-3.135396.877769-.9354267 1.692828-1.8102107 2.445201-2.62437841.752373-.81416768 1.376356-1.50417887 1.871967-2.07005428.495611-.5658754.892691-1.05090419 1.191251-1.45510091h-7.2729042c-1.0031642 0-1.7614973-.08661228-2.2750218-.25983945-.5135246-.17322716-.770283-.62938519-.770283-1.36848776 0-.54277845.1940616-.97583987.5821906-1.29919725.3881291-.32335737.9404582-.48503363 1.6570041-.48503363h11.2318003c1.038992 0 1.836137.14724088 2.39146.44172706.555324.29448618.832981.82282111.832981 1.58502064 0 .25406651-.05374.51679043-.161222.78817966-.107482.27138922-.226905.49369409-.358271.66692125-.131367.17322717-.310501.38398372-.537407.63227599s-.507549.54566111-.841937.89211544z" fill="url(#C)" fill-rule="nonzero" transform="matrix(.98480775 -.17364818 .17364818 .98480775 -.486609 18.472512)"/><path d="m29.6896552 60.8283874c1.1314254 4.0445087 5.1311243 7.0336816 9.8916566 7.0336816 4.7743652 0 8.7834691-3.0065698 9.9014468-7.0689656" stroke="url(#n)" stroke-linecap="round" stroke-linejoin="round" stroke-width="7.068966"/></g></g><g transform="translate(0 452.413793)"><rect fill="#d8d8d8" height="139.965517" opacity=".1" rx="14.137931" stroke="#979797" stroke-width="1.413793" width="139.965517" x=".706897" y=".706897"/><g transform="translate(11.310345 11.310345)"><rect fill="url(#b)" height="115.931034" rx="57.965517" stroke="url(#c)" stroke-width="2.827586" width="115.931034" x="1.413793" y="1.413793"/><path d="m59.3793103 87.6551724c10.9314292 0 22.6206897-8.8616742 22.6206897-19.7931034s-11.6892605-4.2413793-22.6206897-4.2413793c-10.9314291 0-22.6206896-6.6900499-22.6206896 4.2413793s11.6892605 19.7931034 22.6206896 19.7931034z" fill="url(#p)" transform="matrix(1 0 0 -1 0 149.24947)"/><path d="m40.5857876 108.898664 40.2281263-.268509c1.4740762-.009839 2.7763939.957893 3.1922663 2.372124.4025187 1.368819-.3176342 2.81661-1.6521315 3.321391-7.8160579 2.956634-15.4124574 4.434951-22.7891984 4.434951-7.2544066 0-14.5860587-1.348792-21.9949565-4.046376-1.21518-.442445-1.841603-1.786217-1.3991555-3.001397.0512713-.140816.1159424-.276385.1931234-.404842.8913939-1.483597 2.4911722-2.39579 4.2219259-2.407342z" fill="url(#D)"/><path d="m43.0313399 110.06162 35.0041611-.219722c1.4500047-.009102 2.720423.969092 3.0822426 2.373258.3540493 1.374011-.4106052 2.788725-1.7540586 3.245222-6.4708396 2.198828-13.0666133 3.298243-19.7873211 3.298243-6.6097013 0-12.9969336-.998858-19.1616967-2.996575-1.2214728-.39581-1.8907919-1.706883-1.49497-2.928352.0409332-.126316.0926126-.248893.1544713-.366386.7742196-1.47054 2.295307-2.395256 3.9571714-2.405688z" fill="url(#E)"/><path d="m53.7241379 69.2758621h11.3103449c5.4657146 0 9.8965517 4.4308371 9.8965517 9.8965517v25.4482762c0 7.808163-6.3297673 14.137931-14.1379311 14.137931h-1.3208688-1.5067174c-7.8081637 0-14.137931-6.329768-14.137931-14.137931v-25.4482762c0-5.4657146 4.4308371-9.8965517 9.8965517-9.8965517z" fill="url(#F)"/><g stroke="url(#n)" stroke-linecap="round" stroke-linejoin="round" stroke-width="7.068966"><path d="m31.0369761 38.238886c5.7427783 6.3137508 8.9663256 9.439218 9.670642 9.3764014.2121495 0 2.9862797-3.1254672 8.3223906-9.3764014" transform="matrix(0 -1 1 0 -2.894059 82.961043)"/><path d="m69.2093899 38.238886c5.7427783 6.3137508 8.9663256 9.439218 9.670642 9.3764014.2121495 0 2.9862797-3.1254672 8.3223906-9.3764014" transform="matrix(0 -1 -1 0 121.133457 121.133457)"/></g></g></g><g transform="translate(452.413793 452.413793)"><rect fill="#d8d8d8" height="139.965517" opacity=".1" rx="14.137931" stroke="#979797" stroke-width="1.413793" width="139.965517" x=".706897" y=".706897"/><g transform="translate(11.310345 11.310345)"><rect fill="url(#b)" height="115.931034" rx="57.965517" stroke="url(#c)" stroke-width="2.827586" width="115.931034" x="1.413793" y="1.413793"/><g transform="translate(36.758621 64.421884)"><use fill="url(#p)" transform="matrix(1 0 0 -1 0 28.510262)" xlink:href="#G"/><path d="m12.8847962 16.7105615h19.4717869c3.992811 0 7.2296238 3.2368129 7.2296238 7.2296238 0 3.992811-3.2368128 7.2296239-7.2296238 7.2296239h-9.6345215-9.8372654c-3.99281095 0-7.22962379-3.2368129-7.22962379-7.2296239 0-3.9928109 3.23681284-7.2296238 7.22962379-7.2296238z" fill="url(#B)" mask="url(#P)"/></g><g fill="url(#p)"><rect height="7.068966" opacity=".9" rx="3.455939" transform="matrix(.70710678 .70710678 -.70710678 .70710678 41.771848 -15.646105)" width="25.448276" x="27.048305" y="39.065547"/><rect height="7.068966" opacity=".9" rx="3.455939" transform="matrix(-.70710678 .70710678 .70710678 .70710678 37.773038 -15.646105)" width="25.448276" x="27.048305" y="39.065547"/><rect height="7.068966" opacity=".9" rx="3.455939" transform="matrix(.70710678 .70710678 -.70710678 .70710678 53.36638 -43.63778)" width="25.448276" x="66.634512" y="39.065547"/><rect height="7.068966" opacity=".9" rx="3.455939" transform="matrix(-.70710678 .70710678 .70710678 .70710678 105.35092 -43.63778)" width="25.448276" x="66.634512" y="39.065547"/></g></g></g><g transform="translate(0 678.62069)"><rect fill="#d8d8d8" height="139.965517" opacity=".1" rx="14.137931" stroke="#979797" stroke-width="1.413793" width="139.965517" x=".706897" y=".706897"/><g transform="translate(11.310345 11.310345)"><rect fill="url(#b)" height="115.931034" rx="57.965517" stroke="url(#c)" stroke-width="2.827586" width="115.931034" x="1.413793" y="1.413793"/><path d="m49.3759652 79.0127786c1.5629193 0 2.9092181-.407712 4.038937-1.2231481 1.1297188-.8154362 1.6945697-1.9857205 1.6945697-3.5108881 0-1.1627515-.4501819-2.1631559-1.3505593-3.001243-.9003775-.8380872-2.1150193-1.2571245-3.6439621-1.2571245-1.0362834 0-1.8899304.1283538-2.5609664.3850652-.6710359.2567114-1.2019109.5964713-1.5926407 1.0192901-.3907298.4228187-.7602188.9664347-1.108478 1.6308641-.3482592.6644295-.6667841 1.2910978-.9555844 1.8800239-.1698826.3171141-.4756665.5662714-.9173611.7474794-.4416946.1812081-.9513345.2718107-1.5289352.2718107-.6795301 0-1.303839-.2453822-1.8729455-.7361539-.5691065-.4907718-.8536554-1.1438659-.8536554-1.9593021 0-.7852348.2675609-1.611984.8026909-2.4802725s1.3165779-1.6950378 2.3443672-2.4802726 2.3061362-1.4156783 3.835079-1.8913494c1.5289427-.475671 3.2362366-.713503 5.1219327-.713503 1.6478605 0 3.1512983.2000808 4.5103586.6002486 1.3590602.4001677 2.5397261.9777597 3.5420331 1.7327931 1.0023069.7550335 1.7582728 1.6308592 2.2679204 2.6275034s.7644676 2.0687756.7644676 3.2164265c0 1.5100669-.369489 2.8049299-1.108478 3.8846278-.738989 1.0796978-1.7964919 2.1329537-3.1725404 3.1597992 1.3250837.6342281 2.4420446 1.3590494 3.3509162 2.1744855.9088715.8154362 1.5926384 1.7176877 2.0513213 2.7067815.4586828.9890939.6880208 2.0574502.6880208 3.2051011 0 1.3741609-.310031 2.7029998-.9301022 3.9865567-.6200713 1.2835569-1.5331762 2.4274155-2.7393421 3.43161-1.206166 1.0041945-2.6374049 1.7894176-4.2937595 2.3556927-1.6563547.5662751-3.4868115.8494084-5.4914254.8494084-2.0385904 0-3.8648002-.3246596-5.4786842-.9739883-1.6138841-.6493288-2.9431949-1.4609776-3.9879725-2.4349708-1.0447775-.9739932-1.8347195-1.9819477-2.3698494-3.0238939-.53513-1.0419462-.802691-1.9026715-.802691-2.5822016 0-.8758388.318525-1.5817845.9555845-2.1178583.6370595-.5360737 1.4312484-.8041066 2.3825906-.8041066.475671 0 .934347.1245786 1.3760416.3737397.4416946.249161.7304905.5473948.8663965.8947102.8833892 2.098993 1.8304701 3.6581138 2.8412712 4.6774089 1.010801 1.0192952 2.4335459 1.5289352 4.2682772 1.5289352 1.0532717 0 2.0683046-.2302818 3.0451291-.6908522.9768246-.4605704 1.7837545-1.1438655 2.420814-2.0499056.6370595-.9060402.9555845-1.955521.9555845-3.1484739 0-1.7667783-.543616-3.1522439-1.6308642-4.1564384s-2.59918-1.5062843-4.5358409-1.5062843c-.339765 0-.866393.0302009-1.5798996.0906036s-1.1721826.0906036-1.3760416.0906036c-.9343539 0-1.6563439-.2076311-2.1659915-.6228995s-.7644675-.9928604-.7644675-1.7327932c0-.7248321.3057839-1.3099743.9173611-1.755444.6115771-.4454698 1.520435-.6682013 2.7266009-.6682013z" fill="url(#H)" fill-rule="nonzero" transform="matrix(-.99862953 .05233596 .05233596 .99862953 96.955603 -2.538872)"/><ellipse cx="25.448276" cy="50.896552" fill="url(#I)" opacity=".5" rx="12.724138" ry="7.068966"/><ellipse cx="94.724138" cy="53.724138" fill="url(#I)" opacity=".5" rx="12.724138" ry="7.068966"/><g stroke="url(#n)" stroke-linecap="round" stroke-linejoin="round" stroke-width="5.372414"><path d="m26.906354 26.3892454c9.3640736 6.9277062 12.1450862 16.8729667 8.3430377 29.8357815 10.6121792-6.0819514 13.600232-15.5238992 8.9641586-28.3258433" transform="matrix(.2419219 -.97029573 .97029573 .2419219 -12.321504 66.843466)"/><path d="m73.5615264 29.2168316c9.3640736 6.9277062 12.1450862 16.8729667 8.3430378 29.8357815 10.6121791-6.0819514 13.6002319-15.5238992 8.9641585-28.3258433" transform="matrix(-.12186934 -.99254615 -.99254615 .12186934 137.226374 121.40764)"/></g></g></g><g transform="translate(904.827586)"><rect fill="#d8d8d8" height="139.965517" opacity=".1" rx="14.137931" stroke="#979797" stroke-width="1.413793" width="139.965517" x=".706897" y=".706897"/><g transform="translate(11.310345 11.310345)"><rect fill="url(#b)" height="115.931034" rx="57.965517" stroke="url(#c)" stroke-width="2.827586" width="115.931034" x="1.413793" y="1.413793"/><rect fill="url(#e)" height="16.965517" rx="8.482759" width="16.965517" x="29.689655" y="33.931035"/><rect fill="url(#g)" height="16.965517" rx="8.482759" width="16.965517" x="72.103448" y="33.931035"/><g transform="translate(36.758621 62.206897)"><use fill="url(#J)" xlink:href="#K"/><rect fill="url(#L)" height="39.586207" mask="url(#Q)" rx="19.793103" width="39.586207" x="2.827586" y="19.793103"/></g></g></g></g></g></g></svg>