<svg height="1201" viewBox="0 0 2000 1201" width="2000" xmlns="http://www.w3.org/2000/svg" xmlns:xlink="http://www.w3.org/1999/xlink"><defs><path id="a" d="m0 0h2000v1200c-642.6606 3.79449-1116.952546-100.18178-1422.87583-311.928826-305.923283-211.747043-498.2980063-507.770768-577.12417-888.071174z"/><mask id="b" fill="#fff"><use fill="#fff" fill-rule="evenodd" xlink:href="#a"/></mask></defs><g fill="none" fill-rule="evenodd"><g transform="matrix(-1 0 0 1 2000 0)"><path d="m0 0h2000v1200h-2000z" fill="#15b24e"/><use fill="#fff" fill-opacity=".6" xlink:href="#a"/><path d="m2000 1200c-642.6606 3.79449-1116.952546-100.18178-1422.87583-311.928826-305.923283-211.747043-498.2980063-507.770768-577.12417-888.071174" mask="url(#b)" stroke="#000" stroke-width="4"/></g><g mask="url(#b)"><g fill-rule="evenodd" transform="translate(520 371)"><ellipse cx="230" cy="249" fill="#fff" rx="198" ry="148" stroke="#000" stroke-width="4" transform="matrix(.5 .8660254 -.8660254 .5 330.640326 -74.685843)"/><path d="m247.5 221.5c61.212392 0 115.084386 26.938267 146.360308 67.738507 1.616929 57.272108-20.428961 107.891474-63.860308 132.966574-71.743894 41.421356-174.675336-2.546556-229.903811-98.205081-3.5356437-6.123915-6.7900706-12.311219-9.7659726-18.539564 28.4963436-49.73162 88.1695656-83.960436 157.1697836-83.960436z" fill="#191919"/></g></g><g mask="url(#b)"><g fill-rule="evenodd" transform="translate(937.5 368.5)"><ellipse cx="230" cy="249" fill="#fff" rx="198" ry="148" stroke="#000" stroke-width="4" transform="matrix(.5 .8660254 -.8660254 .5 330.640326 -74.685843)"/><path d="m247.5 221.5c61.212392 0 115.084386 26.938267 146.360308 67.738507 1.616929 57.272108-20.428961 107.891474-63.860308 132.966574-71.743894 41.421356-174.675336-2.546556-229.903811-98.205081-3.5356437-6.123915-6.7900706-12.311219-9.7659726-18.539564 28.4963436-49.73162 88.1695656-83.960436 157.1697836-83.960436z" fill="#191919"/></g></g></g></svg>