<svg height="1200" viewBox="0 0 1200 1200" width="1200" xmlns="http://www.w3.org/2000/svg" xmlns:xlink="http://www.w3.org/1999/xlink"><linearGradient id="a" x1="69.013284%" x2="32.007506%" y1="100%" y2="1.007254%"><stop offset="0" stop-color="#ffe01a"/><stop offset=".470653242" stop-color="#ffbd1f"/><stop offset="1" stop-color="#ffde46"/><stop offset="1" stop-color="#fff64e"/></linearGradient><linearGradient id="b"><stop offset="0" stop-color="#5b412a"/><stop offset="1" stop-color="#282028"/></linearGradient><linearGradient id="c" x1="64.871999%" x2="24.786952%" xlink:href="#b" y1="0%" y2="107.800572%"/><linearGradient id="d"><stop offset="0" stop-color="#442509"/><stop offset="1" stop-color="#282028"/></linearGradient><linearGradient id="e" x1="13.891341%" x2="82.839237%" xlink:href="#d" y1="100%" y2="-3.329867%"/><linearGradient id="f" x1="0%" x2="93.934719%" xlink:href="#d" y1="100%" y2="-7.884731%"/><linearGradient id="g" x1="74.281751%" x2="8.834252%" xlink:href="#b" y1="31.91733%" y2="70.903773%"/><g fill="none" fill-rule="evenodd"><path d="m0 0h1200v1200h-1200z" fill="#fff6bc"/><g transform="translate(420 420)"><rect fill="url(#a)" height="360" rx="180" width="360"/><ellipse cx="132" cy="168" fill="url(#c)" rx="18" ry="23"/><ellipse cx="228" cy="168" fill="url(#c)" rx="18" ry="23"/><path d="m234 127c-16.568542 0-30 13.431458-30 30" opacity=".5" stroke="url(#e)" stroke-linecap="round" stroke-width="6" transform="matrix(.9961947 .08715574 -.08715574 .9961947 13.209477 -18.546755)"/><path d="m156 127c-16.568542 0-30 13.431458-30 30" opacity=".5" stroke="url(#f)" stroke-linecap="round" stroke-width="6" transform="matrix(-.9961947 .08715574 .08715574 .9961947 269.087337 -11.748607)"/><path d="m35.0109937 26.1256586c17.673112 0 30.3949135 24.2311235 30.551329 8.6982804s-12.878217-28.69828039-30.551329-28.69828039-32 14.32688799-32 31.99999999 14.326888-12 32-12z" fill="url(#g)" transform="matrix(.98480775 -.17364818 .17364818 .98480775 142.191068 228.332748)"/></g><g transform="translate(451 629)"><rect fill="#000" height="120" opacity=".88" rx="32" width="298"/><text fill="#fff" font-family="PingFangSC-Semibold, PingFang SC" font-size="48" font-weight="500"><tspan x="60" y="81">&amp;*@^%</tspan></text></g></g></svg>