<svg height="1200" viewBox="0 0 891 1200" width="891" xmlns="http://www.w3.org/2000/svg" xmlns:xlink="http://www.w3.org/1999/xlink"><defs><path id="a" d="m0 0h891v1200h-891z"/><linearGradient id="b" x1="64.496982%" x2="36.717072%" y1="12.04243%" y2="106.663773%"><stop offset="0" stop-color="#0e0d0d"/><stop offset=".51348712" stop-color="#201f1f"/><stop offset="1" stop-color="#151414"/></linearGradient><linearGradient id="c" x1="50%" x2="50%" y1="0%" y2="100%"><stop offset="0" stop-color="#1b1b1b"/><stop offset=".549619932" stop-color="#2e2e2e"/><stop offset="1" stop-color="#151515"/></linearGradient><mask id="d" fill="#fff"><use fill="#fff" fill-rule="evenodd" xlink:href="#a"/></mask></defs><g fill="none" fill-rule="evenodd"><use fill="#6c42cd" xlink:href="#a"/><g mask="url(#d)"><g transform="translate(109 226)"><path d="m221.464345 387.144973c23.976318-5.663374 100.957419-34.520217 117.84446-96.566696 23.14363-85.034485-46.493308-114.961639-53.694439-117.785656-36.765331-14.418001-72.759831-27.782266-89.389097-35.664581-31.234398-14.805184-38.123663-13.498947-70.087579-49.8475572-17.988946-20.4566045-25.646595-39.175594-41.291878-55.2977094-7.3779319-7.6027946-11.5104811-13.2348871-16.9181221-18.4591422-8.0347997-7.76232066-16.4246947-9.5236312-17.3391146-9.5236312-12.7231283 0-44.5968764 53.1599481-50.56448857 62.7017405-.72193348.58655 14.70108297 30.2486976 57.54923897 55.6815005 43.3332943 25.720759 114.1369503 47.229658 120.5736053 50.40938 14.506336 7.166162-12.346101 6.300087-4.150245 18.335147 26.238829 38.529944-19.715445 29.001098-20.794133 41.729432-.327338 3.86253-13.685784 6.685898-22.084201 10.2679-4.907056 2.092904-41.2703647 2.398064-46.27254 2.994734-5.4366587.648496 5.7076756 80.127118 22.23702 111.806369 5.535265 10.608589 49.037266 44.389583 114.381513 29.21877z" fill="url(#b)" transform="matrix(-1 0 0 1 344 0)"/><path d="m304.507571 140.058891c28.841744 0 60.492429-6.681947 60.492429-47.6381191 0-40.9561716-34.502278-76.4207719-63.344021-76.4207719-28.841744 0-34.652575 27.4914529-33.327433 61.1331545.25287 6.4196775-3.408316 14.3632105-2.008562 21.5660817 2.143817 11.0316798 16.309575 22.4176378 21.824924 32.3996188 9.455648 17.113348 1.678423 8.960036 16.362663 8.960036z" fill="#f7ba98"/><path d="m218.942502 168.847478c11.788869 12.314372 18.651073 74.351426 50.310748 95.89865 26.39689 17.965431 80.309117-14.111586 88.887899-36.54585s2.362648-41.091373-13.77913-60.739316c-24.085129-29.316673-95.397198-34.809075-130.728605-52.554652-27.263379-13.693323-32.812765-34.7905749-22.04592-55.515721 7.860709-17.98552 26.392671-41.7985611 20.004753-45.2510152-10.433302-5.4729674-15.044228-13.60321556-23.368453-8.5499783-17.295033 10.4989841-61.177559 81.758607-49.173241 113.1612455 2.881605 7.538119 71.545865 41.378517 79.891949 50.096637z" fill="url(#c)" transform="matrix(-1 0 0 1 499 0)"/><path d="m159.660916 583.492094c.837678-1.334928 3.221856-5.158852 5.194847-9.305388 2.770657-5.822952 5.196055-12.230254 5.465819-12.820321.42912-.938632 2.678418-4.309699 2.678418-4.794486 0-6.041576-18.91564 7.280136-19.729706 7.280136-.464826 0 3.534233-.10873 4.43283 2.166875.675148 1.709741-5.593393 13.924761-5.696585 17.473184-.091747 3.154853.763618 8.957882 3.727465 8.480139 2.703765-.43582 2.630595-6.414324 3.926912-8.480139z" fill="#ffae94"/><path d="m127.813804 595.519391c.350837-3.258189 1.962797-5.201753 5.404654-12.074371 3.441858-6.872617 4.598703-9.315237 5.495683-12.298265.896981-2.983028.72293-5.739752.72293-6.227231 0-6.075132-8.45222 7.268534-9.280647 7.268534-.473026 0-5.106012 3.927149-4.191563 6.215394.687058 1.719238-4.105924 14.382268-4.210936 17.950399-.093365 3.172376-1.349718 8.076915 1.666415 7.596518 2.751462-.43824 4.042626-5.172788 4.393464-8.430978z" fill="#ffae94" transform="matrix(-.79863551 -.60181502 -.60181502 .79863551 585.85641 196.024813)"/><path d="m180.654275 539.894489c.136345-.321903.260948-.671232.407567-.961436 16.482397-32.623773 26.976573-62.348325 37.013343-80.309097 3.15428-5.644575 5.001324-2.074666 8.600481-7.440014 15.147189-22.580268 18.251619-99.183942-10.563417-99.183942.075564 6.599342-30.718938 60.470412-47.066449 154.263826-1.049844 6.023454-8.487825 28.505721-11.579898 40.822067-2.611192 10.400902-24.168404 8.395069-26.096743 23.397157-.724029 5.632807-.629875 34.517504 2.575511 32.406919 5.5758-3.671383 4.41764-27.611382 9.819471-31.51414 4.603575-3.326027 15.758841-8.084826 26.077166-10.254572 3.257655-.685023 9.402098-17.895777 10.812968-21.226768z" fill="#fcc9a9"/><path d="m151.796071 1018.85472c31.773777 0 377.190296 5.10385 648.646919-45.19021 43.157539-.999511 245.96844 17.321187 0-76.571266-245.968438-93.892453-305.14483-644.450978-356.307335-713.261324-51.162504-68.810345-60.586755-41.880326-77.014329-50.320631-9.596966-4.930814-20.657228-5.433263-25.813212-5.433263-8.485686 0-17.483376.776535-26.993071 2.329604-40.790903 7.670367-69.452108 43.257544-85.983615 106.761532-17.794409 68.355289-24.467246 163.321723-16.012375 256.994304 8.392958 92.986637 12.967282 167.155237 29.739528 244.631211 13.434368 62.057322 29.306447 95.278264 21.744865 166.953181-7.561583 71.674917-143.781151 113.106862-112.007375 113.106862z" fill="#ffbd2e"/><path d="m391.140209 163.880007c6.129425 2.362507 58.859791 4.669813 58.859791-34.428729 0-57.1286807-34.170378-46.463873-66.867444-74.8332405-19.605025-17.0101553-35.558899-40.7497744-52.026501-49.1868523-9.620349-4.9289287-20.707561-5.4311852-25.876108-5.4311852-12.759542 0-33.762501 12.6739385-39.162704 24.6095597-1.456197 1.1796075 21.086074-2.9535295 33.923959 3.3695994 14.547854 7.1653506 23.786264 16.5807216 31.114853 29.0685837 20.14173 34.3213615 21.223506 44.3493042 20.14173 57.0761972-.328274 3.862093-3.619849 8.039098-12.042303 11.620694-4.9211 2.092667-9.142378 2.477606-14.158869 3.074208-7.278031.865563 52.534207 29.834873 66.093596 35.061165z" fill="#ffae00"/></g></g></g></svg>