<svg height="1200" viewBox="0 0 755 1200" width="755" xmlns="http://www.w3.org/2000/svg" xmlns:xlink="http://www.w3.org/1999/xlink"><defs><path id="a" d="m0 0h754.285714v1200h-754.285714z"/><linearGradient id="b" x1="50%" x2="50%" y1="0%" y2="100%"><stop offset="0" stop-color="#ffe639" stop-opacity=".979786"/><stop offset="1" stop-color="#ffa23a"/></linearGradient><linearGradient id="c" x1="50%" x2="50%" y1="100%" y2="0%"><stop offset="0" stop-color="#671ab9"/><stop offset="1" stop-color="#ff0086"/></linearGradient><linearGradient id="d" x1="50%" x2="50%" y1="100%" y2="0%"><stop offset="0" stop-color="#ffc260"/><stop offset="1" stop-color="#fa9c46"/></linearGradient><linearGradient id="e" x1="50%" x2="50%" y1="0%" y2="100%"><stop offset="0" stop-color="#fff"/><stop offset="1" stop-color="#f2edff"/></linearGradient><linearGradient id="f" x1="50%" x2="50%" y1="100%" y2="0%"><stop offset="0" stop-color="#060214"/><stop offset="1"/></linearGradient><linearGradient id="g" x1="50%" x2="50%" y1="0%" y2="100%"><stop offset="0" stop-color="#ffd29a"/><stop offset="1" stop-color="#ffbd87"/></linearGradient><linearGradient id="h" x1="50%" x2="50%" y1="0%" y2="100%"><stop offset="0" stop-color="#211155"/><stop offset="1" stop-color="#191037"/></linearGradient><linearGradient id="i" x1="50%" x2="50%" y1="0%" y2="100%"><stop offset="0" stop-color="#fbc48a"/><stop offset="1" stop-color="#f59252"/></linearGradient><linearGradient id="j"><stop offset="0" stop-color="#c96c7c"/><stop offset="1" stop-color="#983a46"/></linearGradient><linearGradient id="k" x1="53.746812%" x2="47.148153%" xlink:href="#j" y1="0%" y2="100%"/><linearGradient id="l" x1="70.911074%" x2="26.804736%" xlink:href="#j" y1="0%" y2="119.445406%"/><linearGradient id="m" x1="83.529298%" x2="25.985811%" xlink:href="#j" y1="-5.456903%" y2="100%"/><linearGradient id="n" x1="100%" x2="14.94789%" xlink:href="#j" y1="18.877305%" y2="81.122695%"/><mask id="o" fill="#fff"><use fill="#fff" fill-rule="evenodd" xlink:href="#a"/></mask></defs><g fill="none" fill-rule="evenodd"><use fill="#000" xlink:href="#a"/><g mask="url(#o)"><g transform="translate(-66.142858 201.358896)"><rect fill="url(#b)" height="684.4" opacity=".8" rx="342.2" width="684.4" x="98.8" y="47.60443"/><rect fill="url(#c)" height="273.428571" opacity=".7" rx="136.714286" width="273.428571"/></g><g transform="translate(-163.714286 431.581096)"><path d="m154.244458 290.03035c43.072905 11.908299 88.650523 22.145374 136.732854 30.711224 47.997531 8.550744 97.477162 15.255547 148.438893 20.11441 2.589225.246862 4.488083 2.545968 4.241218 5.135193-.010807.113344-.02572.226259-.044711.338522l-19.111991 112.979203c-.416655 2.463029-2.683917 4.172235-5.166488 3.894825-64.91523-7.253821-118.736138-18.215037-161.462725-32.883647-65.5406-22.500966-96.692383-37.68937-122.308832-49.89-27.210973-12.960071-52.8182879-25.993346-76.8219457-39.099825 27.088815-15.994731 48.7940597-27.127561 65.1157347-33.398491 13.562168-5.210703 21.924835-10.468701 25.088002-15.773994l-.000008-.000005c1.086107-1.82163 3.255842-2.692559 5.299999-2.127415z" fill="#dc854b"/><path d="m779.126515 293.793492c61.583292 12.719415 106.919014 21.859794 136.007167 27.421136 28.344242 5.419114 56.43693 10.341325 84.278064 14.766633 2.286864.363492 3.970184 2.335506 3.970184 4.651077v102.527346c.00001 2.60097-2.10849 4.709473-4.709464 4.709473-.21461 0-.42897-.01467-.641579-.043906-31.764906-4.368111-67.247122-12.317815-106.446648-23.849111-62.123008-18.274681-105.018985-31.813084-131.430969-44.392612-27.210973-12.960072-52.668522-24.350136-76.372649-34.170193 27.088815-15.994731 48.79406-27.127561 65.115735-33.39849 13.715246-5.269517 22.112953-10.587403 25.193123-15.953658l-.000004-.000002c1.012871-1.764619 3.044451-2.679243 5.03704-2.267693z" fill="#dc854b" transform="matrix(-1 0 0 1 1687.162552 0)"/><path d="m547.204673 322.918513c10.890434 0 57.131745 17.905512 63.968921 6.068209 4.75659-8.235153-25.394863-28.837804-25.394863-63.331523 0-17.811091 18.462643-49.999857 11.547269-62.750473-5.906707-10.890827-41.637575 11.293684-50.144641 11.293684-12.212368 0-46.829837-13.384746-58.714611 0-6.086712 6.854913 8.620135 24.507831 8.620135 46.633337 0 22.125507-7.30928 44.406934 0 54.796706 11.999116 17.056138 38.641646 7.29006 50.11779 7.29006z" fill="url(#d)"/><path d="m462.456865 788.054047c53.681865 0 180.59995 75.858827 276.871517 11.674473 23.300903-15.534736-20.004158-147.856797-33.360734-205.572201-9.480948-40.968343 7.550235-92.947618 27.955724-143.186422s.551593-151.681504-44.307857-143.186331c-44.859449 8.495173-56.331215 21.614974-62.381862 11.66064-8.926547-14.685672-14.084801-21.064318-24.199762-23.790035-16.634824-4.482648-39.234395 29.315403-61.416559 23.790035-22.182163-5.525367-42.947395-18.449026-54.626513-20.155813-4.906735-.71707-4.495463 14.077541-9.219906 14.004799-28.679394-.441578-78.41812 6.151014-98.444908 6.151014-25.820599 0-49.132712 88.691561-31.915138 150.763706 9.24248 33.320637 31.37156 72.097901 31.915138 118.232239.642278 54.511123-53.103368 139.928961-40.299076 190.14316 18.808099 73.759147 72.517555 9.470736 123.429936 9.470736z" fill="url(#e)"/><path d="m462.456865 788.054047c53.681865 0 180.59995 75.858827 276.871517 11.674473 23.300903-15.534736-28.554737-158.423404-35.224836-217.893607-4.820756-42.981563 18.941046-104.30386 25.852267-122.475079 6.91122-18.171219 156.160297 30.869009 156.160297 8.319222s-16.453157-34.133525-21.653494-75.388155c-5.190924-41.179947-8.655674-89.782651-14.140871-97.047571-10.203175-9.197411-52.009205 7.060508-87.811888 10.778649-38.64214 4.01302-57.654732 0-75.854904 2.941105s-53.370653 20.435456-59.4213 10.481122c-8.926547-14.685672-14.084801-21.064318-24.199762-23.790035-16.634824-4.482648-39.234395 29.315403-61.416559 23.790035-22.182163-5.525367-42.947395-18.449026-54.626513-20.155813-4.906735-.71707-4.495463 14.077541-9.219906 14.004799-28.679394-.441578-48.997711 10.536031-69.024499 10.536031-25.820598 0-37.20721-10.138113-62.117404-14.866139-26.787153-5.084278-54.158047-6.162812-77.311264-9.674691-37.08167-5.624544-63.601406-10.66386-61.509517 2.993612 4.612655 30.114979 2.284533 100.953764-20.551086 146.940596 18.200211 32.992101 157.714724-13.387173 157.714724 12.497746 4.259451 25.311336 29.784235 72.530719 34.354138 120.114566 5.220264 54.355692-53.103368 146.534199-40.299076 196.748398 18.808099 73.759147 72.517555 9.470736 123.429936 9.470736z" fill="url(#e)" opacity=".8"/><path d="m426.372293 75.831833c17.440642-41.5261395 42.305174-61.0054216 69.828324-66.59350504 16.614423-3.37326155 38.565719 0 57.564556-4.30743631 18.998837-4.30743631 64.246562 24.65292195 92.776791 60.59652955 28.530229 35.9436078 25.435916 64.0100048 48.186928 119.7373188 17.866828 43.763783 43.738676 73.740303 44.552096 87.487824 1.849203 31.253145-50.859062 56.64858-80.311913 60.344524-19.635234 2.463962-49.353299 4.008152-89.154196 4.632569 9.90535-33.703831 14.858025-57.458852 14.858025-71.265064 0-48.632878 20.598075-23.1429 20.598075-66.567966 0-43.425065 7.094989-100.1539894-20.598075-119.4115789-39.351703-27.3649372-106.857995 0-113.759504 19.2575895-6.901508 19.2575894-28.435193 56.7710084-5.829187 97.8387084 10.972754 19.933896 24.80742 27.580132 31.116404 44.861332 17.503358 47.944182 21.468014 96.616303 20.863876 102.585826-31.364951 15.219975-73.304623 3.514794-83.884777 0-33.126579-11.004858-17.748769-18.730877-55.103675-26.764713-14.23982-36.928645 2.525067-66.828091 7.060109-97.828421 9.755312-66.684691 31.315216-120.9818246 41.236143-144.603537z" fill="url(#f)"/><path d="m467.973832 82.5650127c13.587982-14.9943877 52.953023-23.8651334 76.783411-23.8651334 15.214956 0 31.437035 2.8187156 48.666237 8.4561466l.000001-.0000025c1.436708.470094 2.560432 1.6012784 3.021008 3.041066 12.498105 39.0697726 18.747158 68.9986076 18.747158 89.7865046 0 31.785048-11.102365 74.612612-35.265251 89.884561-10.718717 6.774676-16.603589 13.227833-28.7392 14.3495-22.715852 2.099574-51.244328-10.31002-70.735428-40.933579-33.471157-52.58841-26.065919-125.7246756-12.477936-140.7190633z" fill="url(#g)"/><ellipse cx="544.378995" cy="212.267135" fill="#f06614" rx="22.133593" ry="7.741409" transform="matrix(.99939083 -.0348995 .0348995 .99939083 -7.076395 19.12786)"/><path d="m543.724704 183.718175c6.494888.336451 13.840258-1.880951 10.751156-4.064297-3.089103-2.183346-6.743162-7.073984-11.11945-7.226808-4.376287-.152823-8.406364 3.679606-11.563834 6.988599-3.157471 3.308992 5.437239 3.966055 11.932128 4.302506z" fill="#f06614" opacity=".1" transform="matrix(.99939083 -.0348995 .0348995 .99939083 -5.884282 19.064525)"/><path d="m423.425088 76.2935746c20.608688-44.1300993 43.229238-66.2003073 70.752388-71.78839075 16.614423-3.37326155 32.690257 1.9180801 61.714203-3.36232671 29.023945-5.28040681 61.920176 24.87040946 90.450405 60.81401706s25.635796 67.5805518 48.386808 123.3078658c17.866828 43.763783 43.738676 73.740303 44.552096 87.487824 1.849203 31.253145-50.859062 56.64858-80.311913 60.344524-19.635234 2.463962-49.353299 4.008152-89.154196 4.632569 18.430828-30.441608 28.865696-51.493498 31.304605-63.155671 5.672361-27.123629 2.438594-16.089858 8.420805-73.766648 5.982212-57.67679 7.865998-92.267763-24.867385-120.3222899-36.205643-31.0304689-95.977343 0-108.045218 19.2575895-12.067874 19.2575894-22.834945 58.6096174-9.370527 94.7124094 4.27686 9.879066 17.078391 40.03284 22.442671 75.087819 6.468129 42.268518 27.896748 70.228074 27.364663 75.485638-31.364951 15.219975-73.304623 3.514794-83.884777 0-33.126579-11.004858-17.748769-18.730877-55.103675-26.764713-14.23982-36.928645 2.525067-66.828091 7.060109-97.828421 9.755312-66.684691 27.432105-120.8936846 38.288938-144.1417954z" fill="url(#h)"/><path d="m6.27163743 276.454243c41.87517447-31.446587 76.27898707-56.692268 131.04128357-78.021981 88.971743-34.654167 183.240669-50.397169 207.281259-64.586916 37.939051-22.393192 77.55675-57.1694587 96.420367-59.1678487 12.395933-1.3132111-20.30166 34.3964447-11.792122 33.5164907 39.339853-4.068056 55.384248-7.549839 69.608431-8.2951605 69.703306-3.6523286 24.050294 48.6555525-38.297676 67.9026795-19.019169 5.871311-71.798335 16.969137-126.618032 26.475764-54.819698 9.506627-113.96558 43.677063-182.864292 89.793525-13.310377 8.909129 30.244463 2.669895 43.472749 29.281755 5.128054 10.316307 7.667619 40.346899 7.618696 90.091776h-.000002c-.002558 2.600963-2.113129 4.707387-4.714093 4.704829-.644793-.000634-1.282587-.13367-1.873866-.390863-153.7166598-66.863459-216.8108941-110.631476-189.28270257-131.30405z" fill="url(#i)"/><path d="m551.956166 281.086474c41.875174-31.446586 68.071758-53.504062 120.069819-77.292144 83.237638-38.079569 169.48391-54.986606 193.524499-69.176353 37.939052-22.393192 70.04978-57.9774465 88.913396-59.9758366 12.395934-1.3132111-19.161941 32.2465016-10.652403 31.3665466 39.339852-4.068055 62.228823-8.7787687 76.502243-8.8993044 69.3216-.5854044 40.85738 44.4717444-33.291131 64.4626254-21.203138 5.716493-55.748784 12.0477-121.472105 28.422385-65.72332 16.374684-121.219066 51.763566-180.930417 96.602293-12.462757 9.358592 33.134811 2.889753 46.325211 20.571826 7.245038 9.712161 10.164921 39.394845 8.75965 89.048052h-.000003c-.073582 2.599923-2.240887 4.647927-4.84081 4.574344-.53778-.01522-1.068976-.122474-1.570531-.317107-76.085795-29.52582-124.235137-50.250473-144.448026-62.17396-42.109434-24.840153-52.717993-45.326718-36.889392-57.213367z" fill="url(#i)" transform="matrix(-1 0 0 1 1604.878866 0)"/><path d="m546.312199 320.556141c-2.445091 25.61838-2.950971 63.900661-1.517641 114.84684 1.049738 37.311822 3.088997 108.889611 0 213.490382-.752514 25.481903-1.028705 71.124053-.828572 136.926449" opacity=".1" stroke="#596c84" stroke-linecap="round" stroke-width="1.883786"/></g><g opacity=".7" transform="translate(238.933333 1000.703997)"><path d="m42.8032272 88.8692255c2.9497964-.2660069 7.6681222 10.6600856 14.1549774 32.7782775 5.9197723 20.184612-.0357912 58.953633-17.8666905 116.307062-2.9519416 9.494985-12.9088146 14.931448-22.4922806 12.280811l-2.1882124-.605225c-9.8016549-2.710985-15.54977894-12.854483-12.83879435-22.656138.03323613-.120167.06769186-.239992.10336185-.359459z" fill="url(#k)"/><path d="m222.4 18.8272211c-6.081171 27.8349939-13.385403 52.3559215-21.912694 73.562783-8.207041 20.4104189-31.507023 58.5257589-69.899945 114.3460179-2.90058 4.217211-7.425597 7.036837-12.489426 7.782404l-10.074527 1.483311c-6.124867.901787-11.8210966-3.332356-12.722884-9.457223-.2579581-1.752031-.097141-3.540252.4693037-5.218136 9.9463813-29.464165 20.0311003-56.644962 30.2541573-81.54239 12.197313-29.7055683 44.322652-63.357824 96.376015-100.9567669z" fill="url(#l)"/><path d="m448.114286 122.753482c-3.562279 6.541255-12.688221 20.243164-27.377826 41.105725-14.059913 19.968256-37.502968 57.779553-70.329165 113.433892-2.829485 4.797175-7.678165 8.055954-13.188685 8.864062l-9.359303 1.372526c-6.866797 1.007005-13.249775-3.743296-14.256779-10.610093-.277984-1.895582-.118863-3.82963.465234-5.654277 7.689625-24.023114 24.151238-49.794033 49.384839-77.312759 31.98817-34.88498 60.208732-58.618006 84.661685-71.199076z" fill="url(#m)"/><path d="m465.171429 0c-39.25139 49.1308066-71.08106 86.2831897-95.48901 111.457149-23.78452 24.530963-66.852387 60.436256-129.203601 107.715878-3.201193 2.427398-7.108414 3.741271-11.125864 3.741271h-28.330181c-9.593192 0-17.37001-7.776818-17.37001-17.370009 0-3.859707 1.285531-7.609477 3.653666-10.657309 26.104946-33.598016 52.899325-62.207459 80.383138-85.828327 34.834222-29.9381518 100.661509-66.2910361 197.481862-109.058653z" fill="url(#n)"/></g></g></g></svg>