<svg height="1200" viewBox="0 0 800 1200" width="800" xmlns="http://www.w3.org/2000/svg" xmlns:xlink="http://www.w3.org/1999/xlink"><linearGradient id="a" x1="50%" x2="50%" y1="100%" y2="0%"><stop offset="0" stop-color="#fff"/><stop offset=".247360642" stop-color="#fff"/><stop offset=".459670608"/><stop offset="1"/></linearGradient><linearGradient id="b" x1="50%" x2="50%" y1="100%" y2="0%"><stop offset="0" stop-color="#fff"/><stop offset=".232923353" stop-color="#fff"/><stop offset=".487832559"/><stop offset="1"/></linearGradient><linearGradient id="c" x1="50%" x2="50%" y1="0%" y2="100%"><stop offset="0" stop-color="#fff"/><stop offset=".12565984" stop-color="#fff"/><stop offset=".443332981"/><stop offset="1"/></linearGradient><linearGradient id="d" x1="50%" x2="50%" y1="0%" y2="100%"><stop offset="0" stop-color="#fff"/><stop offset=".308647031" stop-color="#fff"/><stop offset=".675966005"/><stop offset="1"/></linearGradient><linearGradient id="e" x1="50%" x2="50%" y1="0%" y2="100%"><stop offset="0" stop-color="#fff"/><stop offset=".275654561" stop-color="#fff"/><stop offset=".558567356"/><stop offset="1"/></linearGradient><linearGradient id="f" x1="50%" x2="50%" y1="0%" y2="100%"><stop offset="0" stop-color="#fff"/><stop offset=".160314611" stop-color="#fff"/><stop offset=".503272804"/><stop offset="1"/></linearGradient><g fill="none" fill-rule="evenodd"><path d="m0 0h800v1200h-800z" fill="#fff"/><path d="m0 0h800v1200h-800z" fill="#ff1717"/><g stroke-width="100"><path d="m158.033087 1162.22934c25.681306-112.45324 39.340645-201.832784 40.978017-268.138638 2.224949-90.099945-22.287498-187.995548-17.858075-279.010849 6.178764-126.960573 51.857013-222.53481 41.569291-332.079853-6.858482-73.030028-20.714912-148.035482-41.569291-225.0163608" stroke="url(#a)"/><path d="m469.687817 1132.24764c-50.57139-86.65321-78.80799-167.033403-84.7098-241.140577-5.696864-71.533717 7.31047-189.985271 11.739893-281.000572 6.178764-126.960572-40.319594-227.157617-50.607316-336.70266-6.858482-73.030028-9.777941-147.672945-8.758377-223.9287502" stroke="url(#b)"/><path d="m545.197925 1144.79312c34.944592-96.5641 52.416888-196.618996 52.416888-300.164704 0-129.080605 19.054148-138.449614 25.232913-265.410187 6.178764-126.960572-71.659665-185.594559-45.696245-390.202351" stroke="url(#b)"/><path d="m292.978017 1159.10706c2.224948-90.09994-22.287498-187.995545-17.858075-279.010846 6.178764-126.960573 51.857013-222.534811 41.56929-332.079853-6.858481-73.030029-20.714912-148.035482-41.56929-225.016361" stroke="url(#c)"/><path d="m500.840465 1066.69822c-30.152648-373.265444 0-284.638342 8.850896-459.591729 6.321114-124.947848-47.153876-204.393182-57.441599-313.938225-6.858482-73.030028-6.858482-148.840038 0-227.4300301" stroke="url(#d)"/><path d="m732 763.06c-17.585237-296.06 11.124427-296.06 11.124427-410.406838 0-126.286031-28.709664-204.175267-118.925938-277.3678416" stroke="url(#e)"/><path d="m711.801511 1161.77468c-20.645908-140.10413-5.831262-178.030494 0-209.425885 5.703336-30.706641 22.322909-75.940995 0-158.920995" stroke="url(#e)"/></g><path d="m128.228 674v-69.664h75.488v69.664h31.808v-156.8h-31.808v59.136h-75.488v-59.136h-31.808v156.8zm155.456-133.952c5.077333 0 9.482667-1.866667 13.216-5.6s5.6-8.138667 5.6-13.216-1.866667-9.482667-5.6-13.216-8.138667-5.6-13.216-5.6-9.482667 1.866667-13.216 5.6-5.6 8.138667-5.6 13.216 1.866667 9.482667 5.6 13.216 8.138667 5.6 13.216 5.6zm15.68 133.952v-115.808h-31.36v115.808zm63.84 0v-111.104l50.4 84.672 50.4-84.672v111.104h31.36v-156.8h-38.08l-43.68 74.144-43.68-74.144h-38.08v156.8zm180.32-133.952c5.077333 0 9.482667-1.866667 13.216-5.6s5.6-8.138667 5.6-13.216-1.866667-9.482667-5.6-13.216-8.138667-5.6-13.216-5.6-9.482667 1.866667-13.216 5.6-5.6 8.138667-5.6 13.216 1.866667 9.482667 5.6 13.216 8.138667 5.6 13.216 5.6zm15.68 133.952v-115.808h-31.36v115.808zm79.296 2.688c7.168 0 14-1.082667 20.496-3.248s12.656-5.861333 18.48-11.088v11.648h29.344v-115.808h-29.568v10.752c-5.824-5.226667-11.984-8.885333-18.48-10.976s-13.253333-3.136-20.272-3.136c-8.064 0-15.568 1.456-22.512 4.368s-12.917333 7.056-17.92 12.432-8.96 11.797333-11.872 19.264-4.368 15.754667-4.368 24.864 1.456 17.397333 4.368 24.864 6.869333 13.888 11.872 19.264 10.976 9.52 17.92 12.432 14.448 4.368 22.512 4.368zm6.048-28.896c-4.032 0-7.877333-.672-11.536-2.016s-6.906667-3.322667-9.744-5.936-5.114667-5.936-6.832-9.968-2.576-8.736-2.576-14.112.858667-10.08 2.576-14.112 3.994667-7.354667 6.832-9.968 6.085333-4.592 9.744-5.936 7.504-2.016 11.536-2.016c4.928 0 10.229333 1.306667 15.904 3.92s10.677333 7.28 15.008 14v28.448c-4.330667 6.72-9.333333 11.349333-15.008 13.888s-10.976 3.808-15.904 3.808z" fill="#fff" fill-rule="nonzero"/><path d="m500.840465 1066.69822c-30.152648-373.265444 0-284.638342 8.850896-459.591729 6.321114-124.947848-47.153876-204.393182-57.441599-313.938225-6.858482-73.030028-6.858482-148.840038 0-227.4300301" stroke="url(#d)" stroke-width="100"/><path d="m87.6816167 1132.24764c-23.0046976-144.119364-33.6883604-249.331975-32.0509884-315.637829 2.2249487-90.099945 39.452721-184.821088 43.8821441-275.836389 6.1787646-126.960573-33.5944215-164.302808-43.8821441-273.847851-6.8584818-73.030028 3.825181-149.361764 32.0509884-228.9952084" stroke="url(#f)" stroke-width="100"/><path d="m128.228 674v-69.664h75.488v69.664h31.808v-156.8h-31.808v59.136h-75.488v-59.136h-31.808v156.8zm155.456-133.952c5.077333 0 9.482667-1.866667 13.216-5.6s5.6-8.138667 5.6-13.216-1.866667-9.482667-5.6-13.216-8.138667-5.6-13.216-5.6-9.482667 1.866667-13.216 5.6-5.6 8.138667-5.6 13.216 1.866667 9.482667 5.6 13.216 8.138667 5.6 13.216 5.6zm15.68 133.952v-115.808h-31.36v115.808zm63.84 0v-111.104l50.4 84.672 50.4-84.672v111.104h31.36v-156.8h-38.08l-43.68 74.144-43.68-74.144h-38.08v156.8zm180.32-133.952c5.077333 0 9.482667-1.866667 13.216-5.6s5.6-8.138667 5.6-13.216-1.866667-9.482667-5.6-13.216-8.138667-5.6-13.216-5.6-9.482667 1.866667-13.216 5.6-5.6 8.138667-5.6 13.216 1.866667 9.482667 5.6 13.216 8.138667 5.6 13.216 5.6zm15.68 133.952v-115.808h-31.36v115.808zm79.296 2.688c7.168 0 14-1.082667 20.496-3.248s12.656-5.861333 18.48-11.088v11.648h29.344v-115.808h-29.568v10.752c-5.824-5.226667-11.984-8.885333-18.48-10.976s-13.253333-3.136-20.272-3.136c-8.064 0-15.568 1.456-22.512 4.368s-12.917333 7.056-17.92 12.432-8.96 11.797333-11.872 19.264-4.368 15.754667-4.368 24.864 1.456 17.397333 4.368 24.864 6.869333 13.888 11.872 19.264 10.976 9.52 17.92 12.432 14.448 4.368 22.512 4.368zm6.048-28.896c-4.032 0-7.877333-.672-11.536-2.016s-6.906667-3.322667-9.744-5.936-5.114667-5.936-6.832-9.968-2.576-8.736-2.576-14.112.858667-10.08 2.576-14.112 3.994667-7.354667 6.832-9.968 6.085333-4.592 9.744-5.936 7.504-2.016 11.536-2.016c4.928 0 10.229333 1.306667 15.904 3.92s10.677333 7.28 15.008 14v28.448c-4.330667 6.72-9.333333 11.349333-15.008 13.888s-10.976 3.808-15.904 3.808z" fill="#fff" fill-rule="nonzero" opacity=".66"/></g></svg>