<svg height="1200" viewBox="0 0 1600 1200" width="1600" xmlns="http://www.w3.org/2000/svg" xmlns:xlink="http://www.w3.org/1999/xlink"><defs><path id="a" d="m0 0h1600v1200h-1600z"/><linearGradient id="b" x1="50%" x2="50%" y1="0%" y2="96.929191%"><stop offset="0" stop-color="#d2d2d2"/><stop offset="1" stop-color="#bdbdbd"/></linearGradient><linearGradient id="c" x1="50%" x2="50%" y1="0%" y2="100%"><stop offset="0" stop-color="#c8c8c8"/><stop offset="1" stop-color="#b5b5b5"/></linearGradient><linearGradient id="d" x1="50%" x2="50%" y1="0%" y2="100%"><stop offset="0" stop-color="#d8d8d8"/><stop offset="1" stop-color="#bfbfbf"/></linearGradient><linearGradient id="e" x1="50%" x2="50%" y1="0%" y2="100%"><stop offset="0" stop-color="#d5d5d5"/><stop offset="1" stop-color="#b2b2b2"/></linearGradient><linearGradient id="f" x1="50%" x2="50%" y1="0%" y2="100%"><stop offset="0" stop-color="#a9a9a9"/><stop offset="1" stop-color="#3d3d3d"/></linearGradient><linearGradient id="g" x1="50%" x2="50%" y1="0%" y2="100%"><stop offset="0" stop-color="#8a8a8a"/><stop offset="1" stop-color="#666"/></linearGradient><linearGradient id="h" x1="50%" x2="50%" y1="0%" y2="100%"><stop offset="0" stop-color="#888"/><stop offset="1" stop-color="#454545"/></linearGradient><linearGradient id="i" x1="50%" x2="50%" y1="0%" y2="100%"><stop offset="0" stop-color="#888"/><stop offset="1" stop-color="#5b5b5b"/></linearGradient><linearGradient id="j" x1="50%" x2="50%" y1="0%" y2="100%"><stop offset="0" stop-color="#989898"/><stop offset="1" stop-color="#656565"/></linearGradient><linearGradient id="k" x1="50%" x2="50%" y1="0%" y2="100%"><stop offset="0" stop-color="#d1d1d1"/><stop offset="1" stop-color="#8f8f8f"/></linearGradient><linearGradient id="l" x1="50%" x2="50%" y1="0%" y2="100%"><stop offset="0" stop-color="#c0c0c0"/><stop offset="1" stop-color="#838383"/></linearGradient><linearGradient id="m" x1="50%" x2="50%" y1="0%" y2="100%"><stop offset="0" stop-color="#dedede"/><stop offset="1" stop-color="#949494"/></linearGradient><linearGradient id="n" x1="50%" x2="50%" y1="0%" y2="100%"><stop offset="0" stop-color="#adadad"/><stop offset="1" stop-color="#6d6d6d"/></linearGradient><linearGradient id="o" x1="50%" x2="50%" y1="0%" y2="100%"><stop offset="0" stop-color="#c4c4c4"/><stop offset="1" stop-color="#878787"/></linearGradient><linearGradient id="p" x1="50%" x2="50%" y1="0%" y2="100%"><stop offset="0" stop-color="#a2a1a1"/><stop offset="1" stop-color="#7d7d7d"/></linearGradient><linearGradient id="q" x1="50%" x2="50%" y1="0%" y2="100%"><stop offset="0" stop-color="#a9a9a9"/><stop offset="1" stop-color="#7a7a7a"/></linearGradient><linearGradient id="r" x1="50%" x2="50%" y1="0%" y2="100%"><stop offset="0" stop-color="#ababab"/><stop offset="1" stop-color="#656565"/></linearGradient><path id="s" d="m209.716981 11.1931848v26.9645462c0 48.014401-38.923362 86.937764-86.937764 86.937764h-35.8414534c-48.014401 0-86.9377636-38.923363-86.9377636-86.937764v-37.78054621h198.900981c5.973512 0 10.816 4.84248814 10.816 10.81600001z"/><linearGradient id="t" x1="50%" x2="50%" y1="0%" y2="96.486633%"><stop offset="0" stop-color="#9a9a9a"/><stop offset="1" stop-color="#949494"/></linearGradient><linearGradient id="u" x1="11.142702%" x2="88.857298%" y1="31.320133%" y2="68.679867%"><stop offset="0" stop-color="#989898"/><stop offset="1" stop-color="#777"/></linearGradient><linearGradient id="v" x1="11.142702%" x2="87.314868%" y1="30.465625%" y2="68.758963%"><stop offset="0" stop-color="#989898"/><stop offset="1" stop-color="#7b7b7b"/></linearGradient><linearGradient id="w" x1="11.142702%" x2="87.237659%" y1="30.465625%" y2="68.720149%"><stop offset="0" stop-color="#b0b0b0"/><stop offset="1" stop-color="#9b9b9b"/></linearGradient><linearGradient id="x" x1="11.142702%" x2="88.857298%" y1="30.549267%" y2="69.450733%"><stop offset="0" stop-color="#9a9a9a"/><stop offset="1" stop-color="#7b7b7b"/></linearGradient><linearGradient id="y" x1="50%" x2="50%" y1="0%" y2="100%"><stop offset="0" stop-color="#a3a3a3"/><stop offset="1" stop-color="#979797"/></linearGradient><linearGradient id="z" x1="50%" x2="50%" y1="0%" y2="100%"><stop offset="0" stop-color="#a1a1a1"/><stop offset="1" stop-color="#979797"/></linearGradient><linearGradient id="A" x1="50%" x2="50%" y1="0%" y2="100%"><stop offset="0" stop-color="#b8b8b8"/><stop offset="1" stop-color="#979797"/></linearGradient><linearGradient id="B" x1="50%" x2="50%" y1="0%" y2="100%"><stop offset="0" stop-color="#a5a5a5"/><stop offset="1" stop-color="#979797"/></linearGradient><mask id="C" fill="#fff"><use fill="#fff" fill-rule="evenodd" xlink:href="#a"/></mask><mask id="D" fill="#fff"><use fill="#fff" fill-rule="evenodd" xlink:href="#s"/></mask></defs><g fill="none" fill-rule="evenodd"><use fill="#212324" xlink:href="#a"/><g mask="url(#C)"><g transform="translate(230 304)"><g fill="none" fill-rule="evenodd"><g transform="translate(470 9)"><ellipse cx="46.142857" cy="69.006494" fill="url(#b)" rx="20.992856" ry="44.622239" transform="matrix(.69465836281 -.7193397997 .7193397997 .69465836281 -12.75491843372 60.56432723358)"/><ellipse cx="77.571429" cy="50.597403" fill="url(#c)" rx="20.954076" ry="47.333891" transform="matrix(.98162717952 -.19080899754 .19080899754 .98162717952 13.55910026787 20.41270656426)"/><ellipse cx="114.238095" cy="61.116883" fill="#d8d8d8" rx="20.971622" ry="47.294741" transform="matrix(.9063077816 .42261825356 -.42261825356 .9063077816 58.82096198567 -39.80456786238)"/><ellipse cx="114.238095" cy="61.116883" fill="url(#d)" rx="20.971622" ry="47.294741" transform="matrix(.9063077816 .42261825356 -.42261825356 .9063077816 58.82096198567 -39.80456786238)"/><ellipse cx="122.095238" cy="76.896104" fill="url(#e)" rx="18.386793" ry="41.956141" transform="matrix(.58778525794 .80901699013 -.80901699013 .58778525794 135.64339610959 -64.76388851167)"/><path d="m105 333.623377c46.286722 0 83.809524-55.33935 83.809524-123.603896 0-39.099873-7.314777-76.506921-26.53067-99.156308-14.333174-16.8942235-37.50377-24.4475886-57.278854-24.4475886-23.6420684 0-46.6808093 9.6742716-61.9177358 32.8973356-14.594109 22.243327-21.891788 57.30979-21.891788 90.706561 0 68.264546 37.5228019 123.603896 83.8095238 123.603896z" fill="url(#f)"/><path d="m162.278854 110.863173c-14.333174-16.8942235-37.50377-24.4475886-57.278854-24.4475886-20.0565455 0-39.6788864 6.9624102-54.47208 23.2527686 45.051949-2.228229 73.867447-2.832276 111.750934 1.19482z" fill="url(#g)" opacity=".1"/><path d="m59.391741 141.585802c-10.026095 15.853924-14.5894893 46.870089-14.5894893 70.673626 0 48.655535 25.7780161 88.098638 57.5768103 88.098638 31.798794 0 57.57681-39.443103 57.57681-88.098638 0-27.868421 1.815437-54.530283-11.385806-70.673626" stroke="url(#h)" stroke-linecap="round" stroke-width="4.606"/><path d="m89.5115891 144.272727c-3.648527 8.653939-5.4639701 25.584258-5.4639701 38.57753 0 12.985429-.0190715 40.118385 3.6255596 63.416793m33.8106644 2.336749c2.940825-21.044144 4.468538-54.238439 4.468538-65.753542 0-15.212108 0-18.980731-4.468538-38.57753" stroke="url(#i)" stroke-linecap="round" stroke-width="4.606"/><path d="m15.138811 228.428571h179.722923c7.631471 0 13.818 6.18653 13.818 13.818 0 .557151-.033697 1.113792-.100906 1.666874l-17.733779 145.935428c-.842822 6.935782-6.73029 12.151127-13.717093 12.151127h-144.2553668c-6.9868031 0-12.8742714-5.215345-13.7170936-12.151127l-17.73377823-145.935428c-.92058881-7.575742 4.47447851-14.463378 12.05022013-15.383967.5530821-.06721 1.1097228-.100907 1.6668735-.100907z" fill="url(#j)"/></g><g transform="translate(766 31)"><path d="m83.8896704 327.106414c13.8894165-19.52429 26.7859656-53.067266 27.0346516-117.28737.182113-47.028222 8.049308-84.534801-4.577468-105.927677-8.8229481-14.9482513-28.2397561-7.0901704-33.3265923 7.912114-11.0837742 32.688675 6.0976872 53.398401 10.4750203 90.248107 8.1541895 68.64442 8.1541895 68.64442.3943884 125.054826z" fill="#d8d8d8" transform="matrix(.82903757 -.5591929 .5591929 .82903757 -102.630939 87.285719)"/><path d="m83.8896704 327.106414c13.8894165-19.52429 26.7859656-53.067266 27.0346516-117.28737.182113-47.028222 8.049308-84.534801-4.577468-105.927677-8.8229481-14.9482513-28.2397561-7.0901704-33.3265923 7.912114-11.0837742 32.688675 6.0976872 53.398401 10.4750203 90.248107 8.1541895 68.64442 8.1541895 68.64442.3943884 125.054826z" fill="url(#k)" transform="matrix(.82903757 -.5591929 .5591929 .82903757 -102.630939 87.285719)"/><path d="m196.27507 315.117458c-.416187-28.554899 7.854237-51.511753 8.102923-115.731857.182113-47.028223 21.350756-75.185674 8.723979-96.57855-8.822947-14.9482516-22.609475-17.9948107-27.696311-2.9925262-11.083774 32.6886752-10.935314 56.4100802-6.557981 93.2597862 8.15419 68.644419 1.942598 77.853482 17.42739 122.043147z" fill="url(#l)" transform="matrix(-.82903757 -.5591929 -.5591929 .82903757 472.838529 144.561246)"/><path d="m228.32642 307.333564c29.880469-29.075179 15.859639-28.634933 16.023435-78.453676.119948-36.482141-21.664553-64.39459-31.449634-80.995895-6.837316-11.600145-13.770675-3.562021-17.702134 8.073713-8.566308 25.353253 32.461019 40.366858 35.86639 68.955072 6.343596 53.254736 20.644314 45.180206-2.738057 82.420786z" fill="url(#m)" transform="matrix(-.89879405 -.43837115 -.43837115 .89879405 517.715366 119.52401)"/><path d="m111.138711 289.582601c13.826237-19.539528 26.636744-53.128397 26.770852-117.480308.098208-47.124745 7.882641-84.6944205-4.756224-106.1540527-8.831395-14.9948967-23.566589-22.6917603-28.61634-7.6677252-11.0029693 32.7360675-2.667372 70.9394839 1.766431 107.8729469 8.259384 68.800444 12.478963 66.916512 4.835281 123.429139z" fill="url(#n)" transform="matrix(.96592583 -.25881905 .25881905 .96592583 -39.884902 36.776208)"/><path d="m153.886131 279.308361c13.806463-23.002976 26.587343-62.560005 26.674413-138.378258.06376-55.5215179 7.817661-99.7752866-4.831838-125.0753267-8.838825-17.67837796-25.368369-19.65485218-30.405139-1.960411-10.974685 38.5546503 5.048496 88.4616287 9.5075 131.9818997 8.306328 81.070491.41965 78.569832-.944936 133.432096z" fill="url(#o)" transform="matrix(-.99026807 -.1391731 -.1391731 .99026807 342.488263 23.949112)"/><path d="m159.859921 309.518334c13.746709-18.036725 26.419584-49.087919 26.287955-108.679727-.096392-43.638932 7.533547-78.39746-5.195002-98.322599-8.89406-13.9226706-25.437221-15.5279807-30.425354-1.636192-10.868707 30.269002 5.306131 69.545426 9.892829 103.765729 8.544199 63.746311.64653 61.756099-.560428 104.872789z" fill="url(#p)" transform="matrix(.9612617 .27563736 -.27563736 .9612617 61.722847 -38.430393)"/><path d="m74.3098447 329.781311c10.6956525-14.952135 23.7362195-40.017437 23.934185-89.193268.1449697-36.011339 3.0979203-65.353856-6.621466-81.733717-6.7914116-11.445411-21.741508-5.425891-25.65946 6.062534-8.5368771 25.032279 11.4837701 41.850451 14.850218 70.067172 6.2710912 52.56271-.5233781 51.600749-6.503477 94.797279z" fill="url(#q)" transform="matrix(.60181502 -.79863551 .79863551 .60181502 -160.288537 161.005829)"/><path d="m191.191655 344.561223c13.426622-13.88808 33.762395-45.136961 33.967097-94.791638.149903-36.361997-11.054685-52.830453-20.85868-69.368857-6.850532-11.556193-17.558658-13.909101-21.512548-2.308431-8.615184 25.276852 19.148243 38.311247 22.541713 66.802386 6.32143 53.073903-6.989017 77.806059-14.137582 99.66654z" fill="url(#r)" transform="matrix(-.64278761 -.76604444 -.76604444 .64278761 531.001007 247.609836)"/><g transform="translate(52.773585 258.859155)"><use fill="url(#j)" xlink:href="#s"/><path d="m-5.377358 28.535211h225.849057v10.84507h-225.849057z" fill="url(#t)" mask="url(#D)"/></g></g><g transform="translate(99)"><g transform="translate(.076923)"><path d="m33.1551949 208.940076c24.9211253 19.28024 46.5715437 16.203714 62.6592815 10.912108-3.0167864-10.453051-12.6223906-30.447741-37.9526204-49.727981-26.5400969-16.473028-38.023654-20.091945-55.41845013-20.091945-8.12012745 9.615219 4.47460043 39.627578 30.71178903 58.907818z" fill="url(#u)"/><path d="m67.3452636 89.0425009c27.8744339 21.6033341 52.1408134 18.0914811 70.1800064 12.1044581-7.808736-24.5488058-12.797456-35.8881153-41.1302777-57.4904178-29.6955533-18.4446441-41.0953519-20.4746381-63.3119717-20.7342978-3.0960642 20.6456076 4.9132036 44.5202424 34.262243 66.1202575z" fill="url(#v)" transform="matrix(.83867057 .54463904 -.54463904 .83867057 48.739292 -35.914992)"/><path d="m172.19665 168.415362c22.977915 17.808418 42.981579 14.913469 57.851945 9.978148-6.437026-20.236479-10.54941-29.583886-33.905191-47.391454-24.479131-15.204594-33.876401-16.877993-52.190373-17.09204-2.552199 17.01893 4.050133 36.699664 28.243619 54.505346z" fill="url(#w)" transform="matrix(-.83867057 .54463904 .54463904 .83867057 262.738599 -77.826719)"/><path d="m206.634975 231.052584c16.47565 12.745259 30.802193 10.694542 41.449791 7.181326-4.629164-14.465454-7.583357-21.148189-24.329682-33.893177-17.548674-10.886068-24.281682-12.09015-37.400644-12.25942-1.812936 12.158383 2.934142 26.226884 20.280535 38.971271z" fill="url(#x)" transform="matrix(-.9781476 .20791169 .20791169 .9781476 384.324337 -40.394116)"/><g stroke-linecap="round" stroke-width="2.7"><path d="m82.2649655 72.6229873c1.3386654 3.5342999 17.5836286 37.3438047 26.3337565 51.6146897 22.411055 36.55096 25.209397 110.429125 8.395025 221.634495" stroke="url(#y)"/><path d="m42.8121049 188.588999c28.1658422 13.510842 45.9898523 23.983406 53.4720302 31.417692 11.2232669 11.151428 32.6581539 19.321058 15.4384609 121.73712" stroke="url(#z)"/><path d="m187.008431 151.31797c-7.971833 22.291461-14.532097 37.638399-19.680792 46.040814-7.723042 12.603621-31.244952 59.616362-24.420978 144.308981" stroke="url(#A)"/><path d="m220.11319 216.638537c-10.77885 13.848396-20.300814 23.132252-28.565891 27.851567-12.397615 7.078972-52.360325 30.190379-32.37897 96.311858" stroke="url(#B)"/></g></g><path d="m21.6723761 294.548387h232.8600539c6.373423-.000001 11.878614 4.457374 13.204599 10.691336 1.831789 8.611937 2.747683 20.786366 2.747683 36.523285 0 39.910644-32.35397 72.264614-72.264614 72.264586h-121.4340772c-39.8587418-.000008-72.17063618-32.311902-72.17063618-72.170644 0-12.202178 1.28203416-24.398007 3.8461025-36.587487 1.31429322-6.248092 6.82606138-10.721076 13.21088898-10.721076z" fill="url(#j)"/></g></g><path d="m888.480762 447.910623 184.999998 274.313302c4.14214 6.141854 1.68401 13.995411-5.49038 17.541412s-16.34824 1.441646-20.49038-4.700207l-185-274.313302c-4.142136-6.141854-1.684008-13.995411 5.490381-17.541412s16.348245-1.441647 20.490381 4.700207z" fill="#959595" fill-rule="nonzero" opacity=".8"/><path d="m247.5 447.910623c4.142136-6.141854 13.315992-8.246208 20.490381-4.700207s9.632517 11.399558 5.490381 17.541412l-184.9999999 274.313302c-4.1421356 6.141853-13.3159917 8.246208-20.490381 4.700207-7.1743894-3.546001-9.6325167-11.399558-5.4903811-17.541412z" fill="#959595" fill-rule="nonzero" opacity=".8"/><rect fill="#959595" fill-rule="nonzero" height="50" rx="15" width="1140" y="411"/></g></g></g></svg>