<svg height="1200" viewBox="0 0 831 1200" width="831" xmlns="http://www.w3.org/2000/svg" xmlns:xlink="http://www.w3.org/1999/xlink"><defs><path id="a" d="m0 0h830.769231v1200h-830.769231z"/><linearGradient id="b" x1="50%" x2="50%" y1="0%" y2="100%"><stop offset="0" stop-color="#919398"/><stop offset="1" stop-color="#4e4e4e"/></linearGradient><linearGradient id="c" x1="50%" x2="50%" y1="0%" y2="100%"><stop offset="0" stop-color="#b4b4b4"/><stop offset="1" stop-color="#727272"/></linearGradient><linearGradient id="d" x1="50%" x2="50%" y1="11.446067%" y2="105.229812%"><stop offset="0" stop-color="#8b8b8b"/><stop offset="1" stop-color="#444"/></linearGradient><linearGradient id="e" x1="36.240243%" x2="62.58172%" y1="0%" y2="88.824871%"><stop offset="0" stop-color="#9a9a9a"/><stop offset="1" stop-color="#494949"/></linearGradient><linearGradient id="f" x1="50%" x2="50%" y1="0%" y2="97.787211%"><stop offset="0" stop-color="#646464"/><stop offset="1" stop-color="#4d4d4d"/></linearGradient><linearGradient id="g" x1="50%" x2="50%" y1="0%" y2="100%"><stop offset="0" stop-color="#5a5a5a"/><stop offset="1" stop-color="#434343"/></linearGradient><mask id="h" fill="#fff"><use fill="#fff" fill-rule="evenodd" xlink:href="#a"/></mask></defs><g fill="none" fill-rule="evenodd"><use fill="#212324" xlink:href="#a"/><g mask="url(#h)" opacity=".4"><g transform="translate(147.692308 259.461538)"><path d="m220.157332 577.092308h102.192499c6.992876 0 12.661721 5.668845 12.661721 12.66172 0 .629901-.047005 1.258923-.140623 1.881827l-11.86149 78.922713c-.931293 6.19654-6.254965 10.779894-12.521098 10.779894h-78.469519c-6.266133 0-11.589805-4.583354-12.521098-10.779894l-11.86149-78.922713c-1.039305-6.915211 3.724059-13.36362 10.639271-14.402925.622904-.093618 1.251926-.140622 1.881827-.140622z" fill="#313131"/><path d="m315.402709 567.973143s53.611775-118.274635 121.261824-155.057286c67.64646-36.78265-91.907439 19.315513-135.641094 120.908569 0 0 12.322524-186.490315 67.528008-259.259393 55.205484-72.769079-91.814114 47.880006-93.379107 212.442202-1.568582 164.562195-23.248759-353.405633-10.732405-418.1307286 12.516354-64.72509541-103.982293 65.2618346-13.090663 381.8848166 0 0 5.298003 33.192539 4.23912 29.78371-1.058882-3.405274-117.166281-215.381828-241.2673473-214.841534 0 0 191.2521843 195.284311 231.4861423 276.25022 0 0-116.114578-123.969238-231.4861423-107.444059 0 0 183.8645403 82.596131 218.6210233 121.724795 34.756482 39.12511-78.064254-86.619713-201.1854053-14.280736-123.1247405 72.34253 149.3922983-71.418344 179.5704283 62.72032 30.178129 134.138663 104.075618-36.700896 104.075618-36.700896h-28.090316" fill="url(#b)"/><path d="m229.125705 353.766357c24.524977 75.96334 30.716385 156.697135 35.744625 245.194962-24.667182 6.404612-51.186682 4.196002-74.566722-10.290196-16.510422-10.240244-31.38001-26.624634-23.263359-46.644845 6.060142-14.960746 29.389134-21.843475 24.61978-40.004743-9.422025-35.869397-52.856684-48.625101-33.622481-91.980223 8.313551-18.757129 26.752863-29.839427 35.525847-47.590372 12.236964-24.765691-31.77381-81.946925 7.894228-94.938119 6.855033 21.600848 15.897843 49.82039 27.668082 86.253536" fill="url(#c)"/><path d="m342.050145 533.323314c-13.986335 30.099989-42.852745 53.883926-75.088704 62.72284-4.984051-88.232571-11.114109-168.747105-35.382074-244.568191-11.615036-36.334198-20.566867-64.480659-27.342004-86.022842 30.304324-8.863822 18.375758 38.34466 34.412652 49.841653 7.034611 5.035049 15.687327 7.170053 23.903983 9.931323 45.595233 15.286624 6.994969 56.616731 17.222543 85.449951 4.688539 13.17297 18.364947 21.033341 28.106009 30.277905 10.933919 10.376116 21.622779 21.773476 29.648434 34.530121 11.564583 18.40017 13.871013 37.718392 4.519161 57.83724" fill="url(#c)"/><g fill="url(#d)"><path d="m253.094973 602.689932c-2.800518-27.322783-8.727366-54.577421-7.090985-83.148343.827343-14.177864 3.818223-28.900891 11.355826-42.253834 1.943889-3.278161 4.030549-6.527628 6.505255-9.504513 1.186102-1.535068 2.485689-2.973298 3.832866-4.375662 1.200745-1.384431 3.005524-2.951779 4.71146-4.379249.984757-.688629 1.987819-1.362911 3.009184-2.019261 1.090921-.620483 2.339256-1.147714 3.53634-1.682119 1.241014-.494952 2.690694-.79264 4.052515-1.119022 1.416732-.236716 2.917664-.268995 4.381987-.315621 6.036672.215196 11.044657 2.880046 14.723769 5.623802 3.76331 2.811901 6.596776 5.885624 9.163002 8.9988 2.569887 3.116763 4.777354 6.298085 6.801781 9.504513 4.089122 6.405682 7.38751 12.954829 10.360086 19.536256 2.928646 6.585013 5.421657 13.263278 7.669393 19.830358l3.181242 9.526032.72484 2.037194.889576 2.363575 1.845047 4.88496c4.843249 13.051668 9.195949 26.293427 12.794523 39.786248 3.598575 13.492821 6.629724 27.175732 8.255122 41.299796l-2.430776.875132c-8.097707-11.771249-15.053242-23.886812-21.712252-36.088454-6.651687-12.201642-12.823809-24.553921-18.772622-36.985106l-2.21845-4.666178-1.131189-2.417374c-.428315-.975557-.831004-1.929595-1.171459-2.786794-1.427715-3.514877-2.562565-6.767931-3.730363-10.024571l-6.538203-19.145316c-2.148894-6.258632-4.345379-12.445531-6.871336-18.219971-1.251997-2.897979-2.617478-5.677601-4.107427-8.1954-1.478966-2.514213-3.0824-4.881374-4.733424-6.502521-1.662007-1.678533-3.097044-2.557252-4.158678-2.869287-1.039669-.229543-2.610156-.050213-4.689495 1.194341-1.896298 1.212273-4.491811 3.425211-6.552846 5.648908-2.192824 2.191418-4.092783 4.659004-5.934169 7.19115-7.131254 10.325846-11.154482 23.061892-13.091049 36.246265-1.995141 13.216652-2.156216 26.910323-1.782814 40.614754.351438 13.72595 1.35816 27.530806 1.511914 41.407394z"/><path d="m265.490189 618.158974c-5.376126-34.455794-9.504875-69.035926-17.583653-102.557411-7.247194-33.549904-23.200502-64.009125-39.963512-94.642419l-12.612378-23.08421c-4.110512-7.676974-8.286675-15.293555-12.605083-22.800009-8.611286-15.034222-17.930148-29.563988-28.160836-43.351279-5.193761-6.831477-10.478705-13.595456-16.230504-19.954449-2.888664-3.161734-5.802861-6.31281-8.877538-9.304024-3.01632-3.040948-6.134766-6.053477-9.318862-8.9168-12.670735-11.513685-26.6143787-21.627681-43.548812-26.711322l.4230873-2.483205c9.1875592.358804 18.3495873 2.905953 26.7602707 6.746217 8.42892 3.865131 16.226856 8.87417 23.408398 14.448058 7.218015 5.527705 13.877993 11.666443 20.260775 18.085828 6.375488 6.422938 12.320593 13.225995 17.820728 20.32391 22.270439 28.281532 37.902785 60.424642 54.589202 90.851891 8.337737 15.417893 16.7083 31.052489 23.503228 47.525478 3.446702 8.206298 6.517733 16.60088 9.030725 25.183744 2.549466 8.572206 4.51901 17.350459 6.039936 25.979505 6.342662 34.708023 8.315853 69.632749 9.636177 104.426032z"/><path d="m119.313218 419.14359c17.356795 7.624689 32.963235 19.429024 46.432738 32.995687 13.530354 13.606469 25.05979 28.935459 35.783849 44.532236 5.329814 7.830957 10.416224 15.774095 15.445364 23.717233 4.989765 8.001038 9.904362 16.211963 14.113805 24.958462 4.187967 8.724786 7.788903 17.959815 9.72539 27.690612 2.147675 9.625853 2.337386 19.848798.250562 29.326283l-2.530677-.14475c-2.262218-18.661851-9.864989-34.848483-19.139366-50.524872-4.56023-7.863526-9.582211-15.596777-14.561238-23.489253l-14.947819-23.666571c-5.018402-7.823719-10.047541-15.589539-15.384514-23.109285-5.297599-7.545076-10.724058-14.974353-16.633744-21.983856-11.529437-14.301267-24.744798-27.06095-39.792843-38.065544z"/></g><path d="m248.465573 49.3048112c-30.962373-7.1858275-63.419643-.0933021-95.262632-1.1489201 83.380323 59.0409639 168.830443 179.3125879 189.840581 248.0966619 2.365845 7.746132 4.526223 15.683365 6.616129 23.359123 2.128597 7.833378 4.334827 15.93178 6.753822 23.813942 11.208644 36.513623 24.595876 74.361497 46.453294 103.757175 2.338284 3.148274 4.884596 6.313457 7.348892 9.375033 7.906478 9.813439 16.08041 19.9627 19.876716 32.317724 1.585655 5.153287 2.803915 10.591721 3.983572 15.854603 2.334832 10.396768 4.743248 21.151831 10.094674 30.299975 4.789211 8.193294 7.378985 17.824866 9.87704 27.137683 3.393136 12.618827 6.595974 24.535621 14.779808 33.404425l-1.852742 1.712739c-8.597856-9.315089-12.029683-22.091536-15.348775-34.44532-2.459363-9.155198-5.006892-18.621995-9.62532-26.52203-5.543509-9.487924-7.997634-20.432851-10.374587-31.0195-1.16914-5.212722-2.376865-10.604582-3.930704-15.661189-3.6622-11.900187-11.682758-21.863701-19.439416-31.498548-2.478578-3.075852-5.042725-6.262467-7.409556-9.442879-22.081954-29.703019-35.557742-67.783585-46.833483-104.51566-2.429583-7.917975-4.639312-16.034293-6.774997-23.885569-2.086406-7.657843-4.239697-15.577177-6.594953-23.287496-21.003086-68.759002-106.810594-189.319381-190.208312-247.743368l.838284-1.1841084c-.8179-.0390154-1.635924-.0529242-2.453771-.1026996.17501 11.0780825 7.921964 20.4977824 16.351269 27.6115417 8.425735 7.1101903 18.080621 13.0845615 24.513001 22.0444729 18.798327 26.1648724 2.825465 65.1578334 17.189921 94.0201054 10.850594 21.806823 36.284706 32.419923 50.259029 52.353532 27.888073 39.781437 2.296023 102.668884 34.146375 139.339198 14.95296 17.210168 40.161307 24.854691 50.671503 45.1102 4.503354 8.678888 5.681281 18.65813 7.585831 28.267966 6.217829 31.366328 21.081327 60.896836 42.526013 84.491458 21.173486 23.291098 48.11109 40.438723 74.70923 57.301091 1.995925 1.267003 3.590044 1.793562 5.602823.370548-16.027042-21.325863-5.6922-53.551907 2.440864-76.589062 8.697143-24.643132 17.896487-52.168757 7.327971-75.877855-4.762584-10.682511-13.123354-19.32449-18.738449-29.576004-8.620018-15.734957-10.304775-34.262111-11.816627-52.19833-1.399969-16.613322-2.799919-33.23023-4.199888-49.843552-1.325414-15.724217-2.827408-32.021417-10.718779-45.625945-8.940997-15.403413-25.195988-25.43043-42.271493-30.600769-8.07916-2.445756-16.646956-4.031915-23.631333-8.742601-15.6889-10.585722-17.896341-32.262908-20.789158-51.020833-4.446922-28.853674-14.181614-57.207908-31.241665-80.7918209-17.060068-23.5803264-41.841524-42.1193907-70.270002-48.7151379z" fill="url(#e)" transform="matrix(.78801075 .61566148 -.61566148 .78801075 266.172452 -127.238334)"/><path d="m220.157332 577.092308h102.192499c6.992876 0 12.661721 5.668845 12.661721 12.66172 0 .629901-.047005 1.258923-.140623 1.881827l-11.86149 78.922713c-.931293 6.19654-6.254965 10.779894-12.521098 10.779894h-78.469519c-6.266133 0-11.589805-4.583354-12.521098-10.779894l-11.86149-78.922713c-1.039305-6.915211 3.724059-13.36362 10.639271-14.402925.622904-.093618 1.251926-.140622 1.881827-.140622z" fill="url(#f)"/><path d="m220.093545 577.092308h102.320128c6.992875 0 12.661721 5.668845 12.661721 12.66172 0 .597139-.042243 1.19353-.126411 1.784707l-1.541255 10.825368h-124.195405l-1.635114-10.696832c-1.056655-6.912581 3.690511-13.372924 10.603093-14.429579.633152-.096783 1.272736-.145384 1.913243-.145384z" fill="url(#g)"/></g></g></g></svg>