<svg height="1200" viewBox="0 0 1200 1200" width="1200" xmlns="http://www.w3.org/2000/svg" xmlns:xlink="http://www.w3.org/1999/xlink"><defs><path id="a" d="m0 0h1200v1200h-1200z"/><mask id="b" fill="#fff"><use fill="#fff" fill-rule="evenodd" xlink:href="#a"/></mask></defs><g fill="none" fill-rule="evenodd"><use fill="#0fa4e6" xlink:href="#a"/><g mask="url(#b)"><g transform="translate(166 166)"><ellipse cx="102.252826" cy="102.257891" fill="#f5da5b" rx="102.252826" ry="102.257891"/><path d="m545.718886 671.289231c70.590845 0 140.445459-52.104273 127.816032-144.438795-4.219856-30.851629 31.20614-66.518158 12.629427-88.712043-23.446331-28.011692-101.060013-39.11032-140.445459-39.11032-29.386681 0-78.724801-5.14886-93.227298 12.56431.005962 9.789347 2.922778 23.948991 2.22981 40.309345-1.350807 31.891327-22.119246 57.601706-8.342674 104.595221 2.750774 9.383217 4.220427 41.937239 21.078153 64.119282 10.233266 13.465325 20.406498 78.847887 14.166483 102.91233-5.171028 19.941923 40.903857-52.23933 64.095526-52.23933z" fill="#d88f4c"/><path d="m445.688947 626.829279c70.590846 0 140.44546-52.104274 127.816033-144.438795-4.219856-30.85163 31.206139-66.518158 12.629427-88.712043-23.446331-28.011693-101.060013-39.11032-140.44546-39.11032-29.386681 0-78.724801-5.14886-93.227297 12.56431.005961 9.789347 2.922778 23.948991 2.22981 40.309345-1.350807 31.891327-16.006382 53.943775-2.22981 100.937291 6.266756 21.376646 22.756076 66.24327 38.120229 94.438327 9.262848 16.998433 31.9154 24.011885 55.107068 24.011885z" fill="#f1a466"/><path d="m360.705899 372.634943c15.140102 0 58.59103 7.146205 109.779762 9.596898 35.55086 1.702019 74.992021 11.212537 102.782349 17.523598 4.111431 4.026788-8.614792 49.813473-20.075446 100.419026-7.327129 32.3536-13.759197 71.401231-23.481966 99.521399-8.979323 25.969978-21.68965 42.069439-18.959282 47.794767 16.335047 6.489928 23.226949-2.874496 35.483392 0 51.807122 12.150294 128.586792 31.306736 156.369444 26.97589 14.863384-2.316951 31.336707-17.403119 38.709116-30.32281 11.270105-19.750161 36.550976-47.662382 40.589339-97.557388 4.128683-51.010931-13.593636-124.754544-58.612042-213.643992-12.297138-24.280866-53.926753-130.624967-143.611314-157.669333-25.384568-7.654713-50.743672 0-61.712839 0-12.120592 0-40.65337-23.769868-79.071552-5.9144-62.919358 29.242783-107.41816 75.296976-129.981901 172.520442-7.186262 30.964428-79.252965 275.406907-120.848078 354.05566 8.325631 5.566203 63.056429-20.052104 102.308434-26.447276 16.504683-2.689042 58.5423 5.312673 90.006842 0 40.756326-6.881557 85.541081-33.936066 89.678906-44.597129-8.67194.385606-30.427521 6.480142-59.147941-4.432152-24.597705-10.960949-37.761795-62.710941-40.797576-70.722367-3.68019-9.712017-15.296171-46.48734-19.522662-74.517374-3.103442-20.581991 4.638102-41.610301 4.651582-59.224786.021543-28.150186-3.895972-43.358673 5.463433-43.358673z" fill="#26160a"/><path d="m558.533513 1068.97764c46.233303 0 254.948923 36.89324 323.927789 15.54224 36.34081-11.24856-37.086306-149.524931-40.412112-181.495567-4.402083-42.316781-62.885598-168.5549-75.294295-195.656231-25.230641-55.105221-92.751706-104.255365-132.137152-104.255365-11.872419 0-30.827056.259109-52.20586 15.183252-19.417483 13.554982-39.397908 35.470533-59.044557 54.672485-37.171024 36.329669-47.69009 36.329669-69.939666 78.902039-8.39094 16.055237-43.40737 109.247813-64.974563 195.663829-12.286241 49.228842-20.968998 104.388218-15.969143 121.443318 6.266756 21.37665 57.214791 7.59768 89.202834 15.54224 26.534876 6.59021 73.655056-15.54224 96.846725-15.54224z" fill="#f8decc"/></g></g></g></svg>