<svg height="1200" viewBox="0 0 1200 1200" width="1200" xmlns="http://www.w3.org/2000/svg" xmlns:xlink="http://www.w3.org/1999/xlink"><defs><path id="a" d="m0 0h1200v1200h-1200z"/><linearGradient id="b" x1="43.869154%" x2="55.869076%" y1="0%" y2="100%"><stop offset="0" stop-color="#fff265"/><stop offset=".7965159" stop-color="#ffe431"/><stop offset="1" stop-color="#ffee87"/></linearGradient><mask id="c" fill="#fff"><use fill="#fff" fill-rule="evenodd" xlink:href="#a"/></mask></defs><g fill="none" fill-rule="evenodd"><use fill="#000" xlink:href="#a"/><g mask="url(#c)"><g transform="translate(390 362)"><path d="m131.688247 284.577136h302.666667v108.888889h-302.666667z" fill="#b620e0" fill-rule="evenodd" stroke="#fff" stroke-width="12" transform="matrix(.70710678 .70710678 -.70710678 .70710678 322.619561 -100.829357)"/><path d="m-2.311753 296.577136h278.666667v84.888889h-278.666667z" fill="#6236ff" fill-rule="evenodd" stroke="#fff" stroke-width="12" transform="matrix(.70710678 -.70710678 .70710678 .70710678 -199.591767 196.186011)"/><circle cx="210" cy="230" fill="url(#b)" fill-rule="evenodd" r="188" stroke="#fff" stroke-width="12"/><path d="m71 6h279v85h-279z" fill="#6dd400" fill-rule="evenodd" stroke="#fff" stroke-width="12"/><path d="m88.8888889 243.511392c6.0232308 60.463659 57.9203361 107.71083 121.0504691 107.71083 63.578116 0 115.763217-47.9201 121.171753-109" fill="none" stroke="#282028" stroke-linecap="round" stroke-width="4.844444"/><g fill-rule="evenodd"><rect fill="#282028" height="6.055556" rx="3.027778" transform="matrix(.98480775 .17364818 -.17364818 .98480775 50.510132 -32.326175)" width="24.222222" x="197.888889" y="269.475862"/><rect fill="#282028" height="6.055556" rx="3.027778" transform="matrix(.96592583 .25881905 -.25881905 .96592583 73.661545 -77.485483)" width="24.222222" x="319" y="237.986973"/><rect fill="#282028" height="6.055556" rx="3.027778" transform="matrix(.96592583 -.25881905 .25881905 .96592583 -59.350392 31.218516)" width="24.222222" x="76.777778" y="237.986973"/><rect fill="#282028" height="6.055556" rx="3.027778" transform="matrix(0 -1 1 0 -47.361111 467.361111)" width="36.333333" x="191.833333" y="254.333333"/><circle cx="161.555556" cy="198.622222" fill="#282028" r="16.955556"/><circle cx="258.444444" cy="198.622222" fill="#282028" r="16.955556"/></g></g></g></g></svg>