<?xml version="1.0" encoding="UTF-8"?>
<svg width="1200px" height="1200px" viewBox="0 0 1200 1200" version="1.1" xmlns="http://www.w3.org/2000/svg" xmlns:xlink="http://www.w3.org/1999/xlink">
    <title>bixinå¤‡ä»½</title>
    <defs>
        <rect id="path-1" x="0" y="0" width="1200" height="1200"></rect>
        <rect id="path-3" x="0" y="0" width="1000" height="1000"></rect>
        <path d="M210.053068,474.946977 C216.910707,474.946977 223.323467,473.514686 229.291349,470.650102 C235.259231,467.785519 239.566957,464.172238 242.214526,459.810259 C244.862096,455.448279 246.18588,450.880137 246.18588,446.105831 C246.18588,442.677012 245.231019,439.606265 243.321297,436.893592 C241.411575,434.180918 238.590394,432.065033 234.857755,430.545936 C232.210186,429.460866 226.611228,428.028575 218.06088,426.249061 C212.939353,425.163991 209.662443,424.078922 208.230151,422.993852 C206.233623,421.561561 205.23536,419.651838 205.23536,417.264686 C205.23536,414.617116 206.64595,412.164859 209.46713,409.907915 C213.243172,406.913123 217.822165,405.415727 223.20411,405.415727 C226.502721,405.415727 229.291349,405.979963 231.569995,407.108436 C233.848641,408.236908 235.443693,409.604095 236.355151,411.209998 C236.875985,412.208262 237.147252,413.770762 237.168953,415.897498 C237.190655,418.024234 237.483623,419.456526 238.04786,420.194373 C239.046123,421.366248 240.478415,421.952186 242.344735,421.952186 C244.29786,421.952186 246.033971,421.268592 247.553068,419.901404 C249.072165,418.534217 250.178936,416.24472 250.87338,413.032915 L250.87338,413.032915 L253.021818,403.006873 C253.412443,401.227359 253.607755,399.903575 253.607755,399.035519 C253.607755,397.690033 253.097773,396.539859 252.077807,395.584998 C251.057842,394.630137 249.76661,394.152706 248.20411,394.152706 C246.511401,394.152706 244.601679,394.999061 242.474943,396.691769 C240.39161,395.129269 237.971905,393.968245 235.215828,393.208696 C232.459752,392.449147 229.367304,392.069373 225.938485,392.069373 C217.474943,392.069373 209.629891,394.771196 202.403328,400.174842 C195.176766,405.578488 191.563485,412.360172 191.563485,420.519894 C191.563485,423.948713 192.43154,427.01946 194.167651,429.732134 C195.903762,432.444807 198.301766,434.560693 201.361662,436.07979 C204.421557,437.598887 208.946297,438.944373 214.93588,440.116248 C220.925464,441.288123 224.636401,442.134477 226.068693,442.655311 C228.412443,443.523366 230.072599,444.565033 231.049162,445.780311 C232.025724,446.995588 232.514005,448.297672 232.514005,449.686561 C232.514005,453.071977 230.39812,455.904009 226.166349,458.182654 C221.934578,460.4613 217.149422,461.600623 211.81088,461.600623 C208.078241,461.600623 204.76878,460.92788 201.882495,459.582394 C198.99621,458.236908 197.032235,456.891422 195.990568,455.545936 C195.469735,454.808088 195.133363,453.462602 194.981453,451.509477 C194.829544,449.556352 194.319561,448.167463 193.451505,447.342811 C192.58345,446.518158 191.346471,446.105831 189.740568,446.105831 C187.700637,446.105831 185.921123,446.789425 184.402026,448.156613 C182.882929,449.5238 181.776158,451.813297 181.081714,455.025102 L181.081714,455.025102 L179.193693,464.009477 C178.803068,465.788991 178.607755,467.091075 178.607755,467.915727 C178.607755,469.304616 179.106887,470.476491 180.105151,471.431352 C181.103415,472.386213 182.405498,472.863644 184.011401,472.863644 C185.053068,472.863644 185.986228,472.668331 186.81088,472.277706 C187.635533,471.887081 188.764005,470.997325 190.196297,469.608436 C193.147686,471.38795 196.272686,472.722585 199.571297,473.612342 C202.869908,474.502099 206.363832,474.946977 210.053068,474.946977 Z M294.753589,475.14229 C299.744908,475.14229 305.658537,474.219981 312.494474,472.375363 C319.330412,470.530745 323.898554,468.523366 326.198901,466.353227 C327.804804,464.83413 328.607755,463.054616 328.607755,461.014686 C328.607755,459.452186 328.130325,458.182654 327.175464,457.206092 C326.220603,456.229529 325.005325,455.741248 323.52963,455.741248 C322.27095,455.741248 320.40463,456.305484 317.930672,457.433956 C311.507061,460.341943 304.866436,461.795936 298.008797,461.795936 C294.015741,461.795936 291.151158,461.2317 289.415047,460.103227 C288.37338,459.408783 287.852547,458.475623 287.852547,457.303748 C287.852547,456.435693 287.982755,455.328922 288.243172,453.983436 L288.243172,453.983436 L293.972339,427.225623 L318.646818,427.225623 C321.771818,427.225623 324.028762,426.726491 325.417651,425.728227 C327.89161,423.948713 329.128589,421.778575 329.128589,419.217811 C329.128589,417.525102 328.596905,416.212168 327.533537,415.279009 C326.470169,414.345849 324.441089,413.879269 321.446297,413.879269 L321.446297,413.879269 L296.771818,413.879269 L299.375985,401.834998 C299.76661,400.055484 299.961922,398.709998 299.961922,397.79854 C299.961922,396.496456 299.451939,395.357134 298.431974,394.380571 C297.412009,393.404009 296.142478,392.915727 294.62338,392.915727 C292.626853,392.915727 290.858189,393.599321 289.317391,394.966509 C287.776592,396.333696 286.680672,398.623193 286.02963,401.834998 L286.02963,401.834998 L283.425464,413.879269 L278.607755,413.879269 C275.482755,413.879269 273.247512,414.3567 271.902026,415.311561 C269.384665,417.091075 268.125985,419.304616 268.125985,421.952186 C268.125985,423.601491 268.657669,424.892724 269.721037,425.825884 C270.784405,426.759043 272.791783,427.225623 275.743172,427.225623 L275.743172,427.225623 L280.625985,427.225623 L274.375985,456.587602 C274.072165,457.976491 273.920255,459.387081 273.920255,460.819373 C273.920255,463.640554 274.744908,466.136213 276.394214,468.306352 C278.043519,470.476491 280.23536,472.060693 282.969735,473.058956 C286.702373,474.447845 290.630325,475.14229 294.753589,475.14229 Z M385.378589,472.993852 C388.416783,472.993852 390.608623,472.538123 391.95411,471.626665 C394.514873,469.847151 395.795255,467.611908 395.795255,464.920936 C395.795255,463.228227 395.274422,461.926144 394.232755,461.014686 C393.191089,460.103227 391.17286,459.647498 388.178068,459.647498 L388.178068,459.647498 L369.232755,459.647498 L373.464526,439.530311 C381.49404,433.801144 387.310012,430.025102 390.912443,428.202186 C394.514873,426.379269 397.11904,425.467811 398.724943,425.467811 C400.157235,425.467811 401.611228,426.292463 403.086922,427.941769 C404.562616,429.591075 406.125116,430.415727 407.774422,430.415727 C409.901158,430.415727 411.821731,429.569373 413.536141,427.876665 C415.25055,426.183956 416.107755,424.274234 416.107755,422.147498 C416.107755,420.194373 414.653762,418.035085 411.745776,415.669634 C408.83779,413.304182 405.474075,412.121456 401.65463,412.121456 C398.83345,412.121456 395.675898,412.783349 392.181974,414.107134 C388.68805,415.430918 383.68588,418.132741 377.175464,422.212602 L377.175464,422.212602 L378.933276,413.879269 L360.769214,413.879269 C357.600811,413.879269 355.322165,414.378401 353.933276,415.376665 C351.459318,417.156179 350.222339,419.348019 350.222339,421.952186 C350.222339,423.601491 350.764873,424.892724 351.849943,425.825884 C352.935012,426.759043 354.953241,427.225623 357.90463,427.225623 L357.90463,427.225623 L362.722339,427.225623 L355.886401,459.647498 L347.878589,459.647498 C344.796991,459.647498 342.561748,460.124929 341.17286,461.07979 C338.655498,462.815901 337.396818,465.029443 337.396818,467.720415 C337.396818,469.36972 337.928502,470.660953 338.99187,471.594113 C340.055238,472.527272 342.062616,472.993852 345.014005,472.993852 L345.014005,472.993852 L385.378589,472.993852 Z M468.84213,402.681352 L471.836922,388.553748 L455.951505,388.553748 L452.956714,402.681352 L468.84213,402.681352 Z M471.771818,472.993852 C474.853415,472.993852 477.045255,472.538123 478.347339,471.626665 C480.951505,469.847151 482.253589,467.611908 482.253589,464.920936 C482.253589,463.228227 481.721905,461.926144 480.658537,461.014686 C479.595169,460.103227 477.58779,459.647498 474.636401,459.647498 L474.636401,459.647498 L458.555672,459.647498 L468.321297,413.879269 L444.232755,413.879269 C441.064353,413.879269 438.807408,414.378401 437.461922,415.376665 C434.987964,417.156179 433.750985,419.348019 433.750985,421.952186 C433.750985,423.601491 434.282669,424.892724 435.346037,425.825884 C436.409405,426.759043 438.416783,427.225623 441.368172,427.225623 L441.368172,427.225623 L452.11036,427.225623 L445.209318,459.647498 L429.193693,459.647498 C426.112096,459.647498 423.876853,460.124929 422.487964,461.07979 C419.970603,462.815901 418.711922,465.029443 418.711922,467.720415 C418.711922,469.36972 419.243606,470.660953 420.306974,471.594113 C421.370342,472.527272 423.377721,472.993852 426.32911,472.993852 L426.32911,472.993852 L471.771818,472.993852 Z M536.159839,472.993852 L568.191089,427.225623 L570.40463,427.225623 C573.573033,427.225623 575.851679,426.726491 577.240568,425.728227 C579.671123,423.948713 580.886401,421.778575 580.886401,419.217811 C580.886401,417.525102 580.354717,416.212168 579.291349,415.279009 C578.227981,414.345849 576.220603,413.879269 573.269214,413.879269 L573.269214,413.879269 L554.974943,413.879269 C551.893346,413.879269 549.658103,414.3567 548.269214,415.311561 C545.751853,417.091075 544.493172,419.304616 544.493172,421.952186 C544.493172,423.688297 545.144214,425.077186 546.446297,426.118852 C547.357755,426.8567 549.636401,427.225623 553.282235,427.225623 L553.282235,427.225623 L532.644214,456.782915 L524.375985,427.225623 C527.58779,427.225623 529.736228,427.030311 530.821297,426.639686 C532.296991,426.07545 533.544821,425.055484 534.564787,423.57979 C535.584752,422.104095 536.094735,420.650102 536.094735,419.217811 C536.094735,417.525102 535.56305,416.212168 534.499682,415.279009 C533.436314,414.345849 531.428936,413.879269 528.477547,413.879269 L528.477547,413.879269 L510.573901,413.879269 C507.448901,413.879269 505.213658,414.3567 503.868172,415.311561 C501.350811,417.091075 500.09213,419.304616 500.09213,421.952186 C500.09213,423.601491 500.623814,424.892724 501.687182,425.825884 C502.75055,426.759043 504.757929,427.225623 507.709318,427.225623 L507.709318,427.225623 L509.597339,427.225623 L522.227547,472.993852 L536.159839,472.993852 Z M608.034839,475.14229 C613.937616,475.14229 620.55654,474.426144 627.89161,472.993852 C635.226679,471.561561 639.881627,469.98821 641.856453,468.2738 C643.83128,466.55939 644.818693,464.595415 644.818693,462.381873 C644.818693,460.862776 644.341262,459.636647 643.386401,458.703488 C642.43154,457.770328 641.237964,457.303748 639.805672,457.303748 C638.460186,457.303748 635.986228,457.737776 632.383797,458.605831 C623.746644,460.732568 616.910707,461.795936 611.875985,461.795936 C605.799596,461.795936 601.242304,460.721717 598.20411,458.573279 C595.165915,456.424842 593.342998,453.636213 592.73536,450.207394 L592.73536,450.207394 L647.487964,450.207394 L648.724943,444.543331 C649.158971,442.32979 649.375985,440.333262 649.375985,438.553748 C649.375985,430.220415 646.760967,423.7317 641.530932,419.087602 C636.300898,414.443505 629.475811,412.121456 621.055672,412.121456 C613.894214,412.121456 606.917217,413.933522 600.124682,417.557654 C593.332148,421.181786 588.102113,426.032047 584.434578,432.108436 C580.767044,438.184825 578.933276,444.239512 578.933276,450.272498 C578.933276,457.520762 581.461488,463.477793 586.517912,468.143592 C591.574335,472.80939 598.746644,475.14229 608.034839,475.14229 Z M635.508797,436.86104 L595.990568,436.86104 C598.855151,433.041595 602.132061,430.187863 605.821297,428.299842 C609.510533,426.411821 613.633797,425.467811 618.191089,425.467811 C622.74838,425.467811 626.481019,426.455224 629.389005,428.43005 C632.296991,430.404877 634.336922,433.215206 635.508797,436.86104 L635.508797,436.86104 Z" id="path-5"></path>
        <filter x="-3.4%" y="-27.8%" width="106.8%" height="180.9%" filterUnits="objectBoundingBox" id="filter-6">
            <feMorphology radius="1.04166667" operator="dilate" in="SourceAlpha" result="shadowSpreadOuter1"></feMorphology>
            <feOffset dx="0" dy="30" in="shadowSpreadOuter1" result="shadowOffsetOuter1"></feOffset>
            <feComposite in="shadowOffsetOuter1" in2="SourceAlpha" operator="out" result="shadowOffsetOuter1"></feComposite>
            <feColorMatrix values="0 0 0 0 0.992156863   0 0 0 0 0.88627451   0 0 0 0 0.239215686  0 0 0 1 0" type="matrix" in="shadowOffsetOuter1" result="shadowMatrixOuter1"></feColorMatrix>
            <feMorphology radius="1.04166667" operator="dilate" in="SourceAlpha" result="shadowSpreadOuter2"></feMorphology>
            <feOffset dx="0" dy="17" in="shadowSpreadOuter2" result="shadowOffsetOuter2"></feOffset>
            <feComposite in="shadowOffsetOuter2" in2="SourceAlpha" operator="out" result="shadowOffsetOuter2"></feComposite>
            <feColorMatrix values="0 0 0 0 1   0 0 0 0 1   0 0 0 0 1  0 0 0 1 0" type="matrix" in="shadowOffsetOuter2" result="shadowMatrixOuter2"></feColorMatrix>
            <feMorphology radius="1.04166667" operator="dilate" in="SourceAlpha" result="shadowSpreadOuter3"></feMorphology>
            <feOffset dx="0" dy="-8" in="shadowSpreadOuter3" result="shadowOffsetOuter3"></feOffset>
            <feComposite in="shadowOffsetOuter3" in2="SourceAlpha" operator="out" result="shadowOffsetOuter3"></feComposite>
            <feColorMatrix values="0 0 0 0 1   0 0 0 0 1   0 0 0 0 1  0 0 0 1 0" type="matrix" in="shadowOffsetOuter3" result="shadowMatrixOuter3"></feColorMatrix>
            <feMorphology radius="1.04166667" operator="dilate" in="SourceAlpha" result="shadowSpreadOuter4"></feMorphology>
            <feOffset dx="0" dy="8" in="shadowSpreadOuter4" result="shadowOffsetOuter4"></feOffset>
            <feComposite in="shadowOffsetOuter4" in2="SourceAlpha" operator="out" result="shadowOffsetOuter4"></feComposite>
            <feColorMatrix values="0 0 0 0 0   0 0 0 0 0   0 0 0 0 0  0 0 0 1 0" type="matrix" in="shadowOffsetOuter4" result="shadowMatrixOuter4"></feColorMatrix>
            <feMerge>
                <feMergeNode in="shadowMatrixOuter1"></feMergeNode>
                <feMergeNode in="shadowMatrixOuter2"></feMergeNode>
                <feMergeNode in="shadowMatrixOuter3"></feMergeNode>
                <feMergeNode in="shadowMatrixOuter4"></feMergeNode>
            </feMerge>
        </filter>
        <filter x="-13.8%" y="-13.2%" width="127.6%" height="126.1%" filterUnits="objectBoundingBox" id="filter-7">
            <feOffset dx="17" dy="17" in="SourceAlpha" result="shadowOffsetOuter1"></feOffset>
            <feColorMatrix values="0 0 0 0 0   0 0 0 0 0   0 0 0 0 0  0 0 0 1 0" type="matrix" in="shadowOffsetOuter1" result="shadowMatrixOuter1"></feColorMatrix>
            <feMerge>
                <feMergeNode in="shadowMatrixOuter1"></feMergeNode>
                <feMergeNode in="SourceGraphic"></feMergeNode>
            </feMerge>
        </filter>
        <linearGradient x1="99.3164062%" y1="50%" x2="-2.22044605e-14%" y2="50%" id="linearGradient-8">
            <stop stop-color="#FFD3BE" offset="0%"></stop>
            <stop stop-color="#FFBA9C" offset="36.6659628%"></stop>
            <stop stop-color="#FFBEA2" offset="71.0224085%"></stop>
            <stop stop-color="#FFD8C3" offset="100%"></stop>
        </linearGradient>
        <linearGradient x1="104.28237%" y1="44.0046405%" x2="1.42108547e-12%" y2="50%" id="linearGradient-9">
            <stop stop-color="#FFE3D6" stop-opacity="0.2" offset="0%"></stop>
            <stop stop-color="#FED0BB" stop-opacity="0.886520247" offset="28.3699383%"></stop>
            <stop stop-color="#FFD1BC" stop-opacity="0.6" offset="100%"></stop>
        </linearGradient>
        <path d="M68.9186507,0.568069283 C73.2208525,-1.96873888 91.3588425,3.99085803 123.332621,18.44686 L123.332621,18.4468592 C126.097678,19.6969981 127.325761,22.9519571 126.075622,25.7170137 C126.003776,25.8759237 125.924404,26.0313231 125.837777,26.1826839 C123.896729,29.5742198 123.801822,33.3377843 125.553055,37.4733774 C126.491806,39.6902672 131.059146,45.6230356 126.422998,53.9038819 C124.458097,57.4134841 119.566308,60.4982924 114.192959,65.7280022 C110.691616,69.1357475 108.035188,74.2980099 102.243578,78.1814123 C87.5638513,88.0244937 82.9190525,88.5730996 71.8285317,90.5106791 C64.7330449,91.7503026 52.878378,89.9116241 36.264531,84.9946437 L36.2645311,84.9946436 C35.0258603,84.6280506 34.2099072,83.4480161 34.304256,82.1596861 C35.9000826,60.3687268 37.3904935,45.9685211 38.7754888,38.9590689 C40.922076,28.0952052 62.0300236,4.62997212 68.9186507,0.568069283 Z" id="path-10"></path>
        <linearGradient x1="104.28237%" y1="47.936812%" x2="1.42108547e-12%" y2="50%" id="linearGradient-11">
            <stop stop-color="#FFE3D6" offset="0%"></stop>
            <stop stop-color="#FED0BB" stop-opacity="0.886520247" offset="28.3699383%"></stop>
            <stop stop-color="#FFD1BC" offset="100%"></stop>
        </linearGradient>
        <linearGradient x1="-2.22044605e-14%" y1="50%" x2="99.3164062%" y2="50%" id="linearGradient-12">
            <stop stop-color="#FFD3BE" offset="0%"></stop>
            <stop stop-color="#FFBA9C" offset="36.6659628%"></stop>
            <stop stop-color="#FFBEA2" offset="71.0224085%"></stop>
            <stop stop-color="#FFD8C3" offset="100%"></stop>
        </linearGradient>
        <linearGradient x1="104.28237%" y1="47.9653396%" x2="1.42108547e-12%" y2="50%" id="linearGradient-13">
            <stop stop-color="#FFE3D6" stop-opacity="0.2" offset="0%"></stop>
            <stop stop-color="#FED0BB" stop-opacity="0.886520247" offset="28.3699383%"></stop>
            <stop stop-color="#FFD1BC" stop-opacity="0.6" offset="100%"></stop>
        </linearGradient>
        <linearGradient x1="-3.33066907e-14%" y1="50%" x2="99.3164062%" y2="50%" id="linearGradient-14">
            <stop stop-color="#FFD3BE" offset="0%"></stop>
            <stop stop-color="#FFBA9C" offset="36.6659628%"></stop>
            <stop stop-color="#FFBEA2" offset="71.0224085%"></stop>
            <stop stop-color="#FFD8C3" offset="100%"></stop>
        </linearGradient>
        <linearGradient x1="104.28237%" y1="45.8593648%" x2="1.42108547e-12%" y2="50%" id="linearGradient-15">
            <stop stop-color="#FFE3D6" stop-opacity="0.2" offset="0%"></stop>
            <stop stop-color="#FED0BB" stop-opacity="0.886520247" offset="28.3699383%"></stop>
            <stop stop-color="#FFD1BC" stop-opacity="0.6" offset="100%"></stop>
        </linearGradient>
        <path d="M34.348756,76.6124984 C39.9062125,62.9533027 78.0024316,79.8737026 78.0397772,89.2331219 C78.0771227,98.5925413 78.0771227,131.860746 76.8487058,150.416853 C76.1186057,161.445532 74.6857253,176.675057 72.5500645,196.10543 L72.5500393,196.105427 C72.467153,196.859533 73.0112835,197.538049 73.7653889,197.620935 C74.319503,197.68184 74.8554796,197.401826 75.1219785,196.912204 C91.2250711,167.326957 110.9392,148.103728 134.264367,139.242518 C178.616736,124.472058 245.877514,161.19966 248.910409,200.675036 C251.943304,243.976342 185.502084,262.047728 147.998686,266.19989 C110.495289,270.352052 75.6903087,264.728539 50.4892269,263.824947 C37.438762,263.357018 24.3756198,263.252567 11.2998001,263.511594 L11.2998001,263.511594 C5.23192731,263.631796 0.215501528,258.810256 0.0952995214,252.742383 C0.0922554525,252.588717 0.0924355796,252.435003 0.0958397836,252.281344 C0.294930063,243.294808 0.804201597,232.237645 1.62365439,219.109856 C3.4448431,189.934067 3.4448431,177.286485 6.44929003,160.891094 C8.74722763,148.351154 16.2876382,128.514743 22.5405851,110.894144 C27.7984405,96.0776795 31.8102446,82.8516878 34.348756,76.6124984 Z" id="path-16"></path>
        <filter x="-13.8%" y="-13.2%" width="127.6%" height="126.1%" filterUnits="objectBoundingBox" id="filter-17">
            <feOffset dx="17" dy="17" in="SourceAlpha" result="shadowOffsetOuter1"></feOffset>
            <feColorMatrix values="0 0 0 0 0   0 0 0 0 0   0 0 0 0 0  0 0 0 1 0" type="matrix" in="shadowOffsetOuter1" result="shadowMatrixOuter1"></feColorMatrix>
            <feMerge>
                <feMergeNode in="shadowMatrixOuter1"></feMergeNode>
                <feMergeNode in="SourceGraphic"></feMergeNode>
            </feMerge>
        </filter>
        <path d="M68.9186507,0.568069283 C73.2208525,-1.96873888 91.3588425,3.99085803 123.332621,18.44686 L123.332621,18.4468592 C126.097678,19.6969981 127.325761,22.9519571 126.075622,25.7170137 C126.003776,25.8759237 125.924404,26.0313231 125.837777,26.1826839 C123.896729,29.5742198 123.801822,33.3377843 125.553055,37.4733774 C126.491806,39.6902672 131.059146,45.6230356 126.422998,53.9038819 C124.458097,57.4134841 119.566308,60.4982924 114.192959,65.7280022 C110.691616,69.1357475 108.035188,74.2980099 102.243578,78.1814123 C87.5638513,88.0244937 82.9190525,88.5730996 71.8285317,90.5106791 C64.7330449,91.7503026 52.878378,89.9116241 36.264531,84.9946437 L36.2645311,84.9946436 C35.0258603,84.6280506 34.2099072,83.4480161 34.304256,82.1596861 C35.9000826,60.3687268 37.3904935,45.9685211 38.7754888,38.9590689 C40.922076,28.0952052 62.0300236,4.62997212 68.9186507,0.568069283 Z" id="path-18"></path>
        <linearGradient x1="104.28237%" y1="47.9343162%" x2="1.42108547e-12%" y2="50%" id="linearGradient-19">
            <stop stop-color="#FFE3D6" offset="0%"></stop>
            <stop stop-color="#FED0BB" stop-opacity="0.886520247" offset="28.3699383%"></stop>
            <stop stop-color="#FFD1BC" offset="100%"></stop>
        </linearGradient>
        <path d="M34.348756,76.6124984 C39.9062125,62.9533027 78.0024316,79.8737026 78.0397772,89.2331219 C78.0771227,98.5925413 78.0771227,131.860746 76.8487058,150.416853 C76.1186057,161.445532 74.6857253,176.675057 72.5500645,196.10543 L72.5500393,196.105427 C72.467153,196.859533 73.0112835,197.538049 73.7653889,197.620935 C74.319503,197.68184 74.8554796,197.401826 75.1219785,196.912204 C91.2250711,167.326957 110.9392,148.103728 134.264367,139.242518 C178.616736,124.472058 245.877514,161.19966 248.910409,200.675036 C251.943304,243.976342 185.502084,262.047728 147.998686,266.19989 C110.495289,270.352052 75.6903087,264.728539 50.4892269,263.824947 C37.438762,263.357018 24.3756198,263.252567 11.2998001,263.511594 L11.2998001,263.511594 C5.23192731,263.631796 0.215501528,258.810256 0.0952995214,252.742383 C0.0922554525,252.588717 0.0924355796,252.435003 0.0958397836,252.281344 C0.294930063,243.294808 0.804201597,232.237645 1.62365439,219.109856 C3.4448431,189.934067 3.4448431,177.286485 6.44929003,160.891094 C8.74722763,148.351154 16.2876382,128.514743 22.5405851,110.894144 C27.7984405,96.0776795 31.8102446,82.8516878 34.348756,76.6124984 Z" id="path-20"></path>
    </defs>
    <g id="ðŸŽ¨--æ’ç”»" stroke="none" stroke-width="1" fill="none" fill-rule="evenodd">
        <g id="bixinå¤‡ä»½">
            <mask id="mask-2" fill="white">
                <use xlink:href="#path-1"></use>
            </mask>
            <use id="è’™ç‰ˆ" fill="#F7F9FA" xlink:href="#path-1"></use>
            <g id="bixinå¤‡ä»½-4" mask="url(#mask-2)">
                <g transform="translate(100.000000, 100.000000)">
                    <mask id="mask-4" fill="white">
                        <use xlink:href="#path-3"></use>
                    </mask>
                    <use id="è’™ç‰ˆ" stroke="none" fill="#F7F9FA" fill-rule="evenodd" xlink:href="#path-3"></use>
                    <g id="ç¼–ç»„-9" stroke="none" stroke-width="1" fill="none" fill-rule="evenodd" mask="url(#mask-4)">
                        <g transform="translate(500.000000, 500.235702) rotate(45.000000) translate(-500.000000, -500.235702) translate(71.500000, 71.735702)">
                            <circle id="è’™ç‰ˆå¤‡ä»½" fill="#F22333" fill-rule="evenodd" cx="428.333333" cy="428.333333" r="428.333333"></circle>
                            <g id="Strive" fill="none" fill-rule="nonzero" transform="translate(413.991870, 431.848019) rotate(-90.000000) translate(-413.991870, -431.848019) ">
                                <use fill="black" fill-opacity="1" filter="url(#filter-6)" xlink:href="#path-5"></use>
                                <use stroke="#000000" stroke-width="2.08333333" fill="#FF751A" xlink:href="#path-5"></use>
                            </g>
                            <g id="ç¼–ç»„-8" filter="url(#filter-7)" stroke-width="1" fill="none" fill-rule="evenodd" transform="translate(234.675420, 428.453108) rotate(15.000000) translate(-234.675420, -428.453108) translate(109.675420, 294.453108)">
                                <g id="çŸ©å½¢" stroke-width="2.08333333">
                                    <path stroke="url(#linearGradient-9)" d="M121.948978,18.9651435 C91.2876011,5.14586029 73.6420846,-1.00784798 69.4477418,1.46536082 C62.6822561,5.45465289 41.9072663,28.4829576 39.797398,39.1609876 C38.4164462,46.1499756 36.9342904,60.508668 35.3431406,82.2357672 C35.3138531,82.6356863 35.4258521,83.018797 35.641299,83.3303771 C35.8567458,83.6419572 36.1756406,83.8820067 36.5601446,83.9958032 L37.3106364,84.2167676 C53.305567,88.9014331 64.7534883,90.6892869 71.6492616,89.4845545 C72.0300376,89.4180307 72.403221,89.3531429 72.769478,89.2894595 C82.9308569,87.5226376 87.6813209,86.6915681 101.663458,77.3162359 C105.323792,74.8619008 107.688582,71.8742541 109.835525,69.1795223 C111.055864,67.6478159 112.209117,66.2052296 113.466434,64.9815228 C115.48576,63.0161778 117.437281,61.3506155 119.194314,59.8517521 C122.011577,57.4484439 124.328633,55.5124063 125.514085,53.3950141 C129.25585,46.7116693 126.557891,41.6727741 125.193042,39.0841687 C124.942962,38.6098597 124.732309,38.2065496 124.593844,37.8795591 C122.69657,33.3990848 122.836219,29.3301399 125.126459,25.2878773 C125.633026,24.1674533 125.637494,22.947773 125.235215,21.8815571 C124.832936,20.8153411 124.023909,19.9025895 122.903485,19.3960227 L121.948978,18.9651435 Z" stroke-linejoin="square" fill="url(#linearGradient-8)" fill-rule="evenodd"></path>
                                    <use stroke="#000000" xlink:href="#path-10"></use>
                                </g>
                                <path d="M119.798135,19.5299835 C122.773718,20.1251956 124.785607,21.3096645 124.190395,24.2852484 C124.157411,24.4501383 124.116876,24.6134272 124.068916,24.7745994 C122.986104,28.4134775 121.125928,32.8632876 116.32301,35.327831 C112.127239,37.4808262 108.167911,40.4563935 102.691725,43.4707185 C98.9778229,45.5150078 84.9187498,44.7967694 78.9039629,45.4425369 C75.4241321,45.8161431 80.3994031,33.7915908 82.0684047,30.3189918 C83.1175168,28.1361624 80.2561857,25.8908232 77.9440101,22.7239035" id="è·¯å¾„" stroke="url(#linearGradient-11)" stroke-width="2.08333333" stroke-linecap="round"></path>
                                <path d="M78.2647506,22.9900812 C78.9569202,23.8304632 79.736825,24.5727877 80.4525262,25.2581844 C81.4929502,26.2545544 82.3996827,27.1555581 82.8684917,28.0200934 C83.368696,28.9425251 83.4534141,29.8419466 83.0072639,30.7702266 C81.9975886,32.871002 79.746689,38.1670708 78.9817751,41.8227583 C78.7655521,42.8561343 78.6493742,43.7419268 78.7982516,44.4062114 C80.8630734,44.1849879 83.8638409,44.1204544 87.0741525,44.0534736 C93.0469887,43.9288549 99.8127307,43.8663928 102.189416,42.5581642 C104.832162,41.1034851 107.118675,39.6574637 109.249561,38.3104273 C111.545881,36.8588123 113.665465,35.5207079 115.84745,34.401056 C117.397782,33.6055272 118.462932,32.847782 118.976518,32.0648921 C119.139163,31.8169613 119.237605,31.5735619 119.234624,31.3249757 C119.23166,31.0778093 119.128133,30.8389644 118.960571,30.5978862 C117.82265,28.9607113 114.369294,27.4676529 108.804968,25.9170509 C108.210268,25.7513266 107.587714,25.7212743 106.587244,25.8540922 C103.242675,26.3638263 99.6615737,27.7564403 95.8372021,30.0114943 C94.6025507,30.7395107 92.7112154,30.6029168 90.4766,29.7442579 C87.8032733,28.7170226 84.6335827,26.7517975 81.9371179,25.0721408 C80.58013,24.2268585 79.3633758,23.415869 78.2647506,22.9900812 Z" id="çŸ©å½¢" stroke="url(#linearGradient-13)" stroke-width="2.08333333" fill="url(#linearGradient-12)"></path>
                                <g id="çŸ©å½¢" stroke-width="2.08333333">
                                    <path stroke="url(#linearGradient-15)" d="M76.9981188,89.2372783 C76.9888461,86.9133836 74.2310239,84.1922092 70.476177,81.6010772 C66.1166316,78.5926568 60.215748,75.8090941 54.4225582,74.1356687 C49.7215466,72.7777307 45.0908183,72.1414697 41.4394265,72.7650559 C38.5779317,73.2537432 36.3212209,74.5285671 35.3136181,77.0050676 C33.9409912,80.3787294 32.1369662,85.8040979 29.9354737,92.4200588 C28.0727771,98.0178651 25.9277692,104.463899 23.5222723,111.242511 C22.5346213,114.025679 21.5148675,116.864103 20.4887142,119.720332 C15.039191,134.888716 9.40148668,150.559908 7.47389543,161.078853 C5.21880125,173.384995 4.66505231,183.572971 3.7523125,200.273392 C3.45193677,205.769374 3.11314856,211.968053 2.66329758,219.174751 C1.84553909,232.275398 1.33691732,243.311333 1.13720889,252.741926 C1.19712994,255.480727 2.35830041,257.936916 4.18901008,259.696503 C6.0244248,261.460613 8.53282466,262.524536 11.2791692,262.470132 L14.5502702,262.412902 C26.5546398,262.230684 38.5459302,262.35438 50.5265522,262.783949 C57.6792614,263.040412 65.6041511,263.675954 74.1439023,264.361241 C95.6508907,266.087108 121.076179,268.132564 147.884059,265.164549 C169.765757,262.741933 201.566741,255.569092 223.486678,241.335852 C231.542761,236.104808 238.26046,229.920535 242.61299,222.647572 C246.457086,216.22419 248.445885,208.951458 247.871288,200.747818 C246.370345,181.212238 228.800394,162.435392 206.283491,150.36982 C183.878176,138.364043 156.463812,132.96697 134.63748,140.216193 C111.509629,149.001326 91.9958034,168.089851 76.0368988,197.41019 C75.8026037,197.840646 75.4498516,198.178963 75.0338847,198.396279 C74.6179177,198.613595 74.1387358,198.709911 73.651581,198.656366 C72.988602,198.583495 72.4179236,198.248798 72.0312076,197.766574 C71.6444917,197.28435 71.441738,196.654598 71.5146084,195.991619 L71.6283495,194.95493 C73.6991274,176.038017 75.0929665,161.168985 75.8093142,150.348045 C77.0362662,131.814066 77.0354197,98.5855276 76.9981188,89.2372783 Z" stroke-linejoin="square" fill="url(#linearGradient-14)" fill-rule="evenodd"></path>
                                    <use stroke="#000000" xlink:href="#path-16"></use>
                                </g>
                            </g>
                            <g id="ç¼–ç»„-8" filter="url(#filter-17)" stroke-width="1" fill="none" fill-rule="evenodd" transform="translate(622.117542, 431.189898) rotate(195.000000) translate(-622.117542, -431.189898) translate(497.117542, 297.189898)">
                                <g id="çŸ©å½¢" stroke-width="2.08333333">
                                    <path stroke="url(#linearGradient-9)" d="M121.948978,18.9651435 C91.2876011,5.14586029 73.6420846,-1.00784798 69.4477418,1.46536082 C62.6822561,5.45465289 41.9072663,28.4829576 39.797398,39.1609876 C38.4164462,46.1499756 36.9342904,60.508668 35.3431406,82.2357672 C35.3138531,82.6356863 35.4258521,83.018797 35.641299,83.3303771 C35.8567458,83.6419572 36.1756406,83.8820067 36.5601446,83.9958032 L37.3106364,84.2167676 C53.305567,88.9014331 64.7534883,90.6892869 71.6492616,89.4845545 C72.0300376,89.4180307 72.403221,89.3531429 72.769478,89.2894595 C82.9308569,87.5226376 87.6813209,86.6915681 101.663458,77.3162359 C105.323792,74.8619008 107.688582,71.8742541 109.835525,69.1795223 C111.055864,67.6478159 112.209117,66.2052296 113.466434,64.9815228 C115.48576,63.0161778 117.437281,61.3506155 119.194314,59.8517521 C122.011577,57.4484439 124.328633,55.5124063 125.514085,53.3950141 C129.25585,46.7116693 126.557891,41.6727741 125.193042,39.0841687 C124.942962,38.6098597 124.732309,38.2065496 124.593844,37.8795591 C122.69657,33.3990848 122.836219,29.3301399 125.126459,25.2878773 C125.633026,24.1674533 125.637494,22.947773 125.235215,21.8815571 C124.832936,20.8153411 124.023909,19.9025895 122.903485,19.3960227 L121.948978,18.9651435 Z" stroke-linejoin="square" fill="url(#linearGradient-8)" fill-rule="evenodd"></path>
                                    <use stroke="#000000" xlink:href="#path-18"></use>
                                </g>
                                <path d="M120.395805,19.6171628 C123.21993,20.7481009 124.433588,22.3054313 124.03678,24.2891538 C124.003797,24.4540438 123.963262,24.6173327 123.915302,24.7785048 C122.83249,28.4173829 121.125928,32.8632876 116.32301,35.327831 C112.127239,37.4808262 108.167911,40.4563935 102.691725,43.4707185 C98.9778229,45.5150078 84.9187498,44.7967694 78.9039629,45.4425369 C75.4241321,45.8161431 80.3994031,33.7915908 82.0684047,30.3189918 C83.1175168,28.1361624 80.2561857,25.8908232 77.9440101,22.7239035" id="è·¯å¾„" stroke="url(#linearGradient-19)" stroke-width="2.08333333" stroke-linecap="round"></path>
                                <path d="M78.2647506,22.9900812 C78.9569202,23.8304632 79.736825,24.5727877 80.4525262,25.2581844 C81.4929502,26.2545544 82.3996827,27.1555581 82.8684917,28.0200934 C83.368696,28.9425251 83.4534141,29.8419466 83.0072639,30.7702266 C81.9975886,32.871002 79.746689,38.1670708 78.9817751,41.8227583 C78.7655521,42.8561343 78.6493742,43.7419268 78.7982516,44.4062114 C80.8630734,44.1849879 83.8638409,44.1204544 87.0741525,44.0534736 C93.0469887,43.9288549 99.8127307,43.8663928 102.189416,42.5581642 C104.832162,41.1034851 107.118675,39.6574637 109.249561,38.3104273 C111.545881,36.8588123 113.665465,35.5207079 115.84745,34.401056 C117.397782,33.6055272 118.462932,32.847782 118.976518,32.0648921 C119.139163,31.8169613 119.237605,31.5735619 119.234624,31.3249757 C119.23166,31.0778093 119.128133,30.8389644 118.960571,30.5978862 C117.82265,28.9607113 114.369294,27.4676529 108.804968,25.9170509 C108.210268,25.7513266 107.587714,25.7212743 106.587244,25.8540922 C103.242675,26.3638263 99.6615737,27.7564403 95.8372021,30.0114943 C94.6025507,30.7395107 92.7112154,30.6029168 90.4766,29.7442579 C87.8032733,28.7170226 84.6335827,26.7517975 81.9371179,25.0721408 C80.58013,24.2268585 79.3633758,23.415869 78.2647506,22.9900812 Z" id="çŸ©å½¢" stroke="url(#linearGradient-13)" stroke-width="2.08333333" fill="url(#linearGradient-12)"></path>
                                <g id="çŸ©å½¢" stroke-width="2.08333333">
                                    <path stroke="url(#linearGradient-15)" d="M76.9981188,89.2372783 C76.9888461,86.9133836 74.2310239,84.1922092 70.476177,81.6010772 C66.1166316,78.5926568 60.215748,75.8090941 54.4225582,74.1356687 C49.7215466,72.7777307 45.0908183,72.1414697 41.4394265,72.7650559 C38.5779317,73.2537432 36.3212209,74.5285671 35.3136181,77.0050676 C33.9409912,80.3787294 32.1369662,85.8040979 29.9354737,92.4200588 C28.0727771,98.0178651 25.9277692,104.463899 23.5222723,111.242511 C22.5346213,114.025679 21.5148675,116.864103 20.4887142,119.720332 C15.039191,134.888716 9.40148668,150.559908 7.47389543,161.078853 C5.21880125,173.384995 4.66505231,183.572971 3.7523125,200.273392 C3.45193677,205.769374 3.11314856,211.968053 2.66329758,219.174751 C1.84553909,232.275398 1.33691732,243.311333 1.13720889,252.741926 C1.19712994,255.480727 2.35830041,257.936916 4.18901008,259.696503 C6.0244248,261.460613 8.53282466,262.524536 11.2791692,262.470132 L14.5502702,262.412902 C26.5546398,262.230684 38.5459302,262.35438 50.5265522,262.783949 C57.6792614,263.040412 65.6041511,263.675954 74.1439023,264.361241 C95.6508907,266.087108 121.076179,268.132564 147.884059,265.164549 C169.765757,262.741933 201.566741,255.569092 223.486678,241.335852 C231.542761,236.104808 238.26046,229.920535 242.61299,222.647572 C246.457086,216.22419 248.445885,208.951458 247.871288,200.747818 C246.370345,181.212238 228.800394,162.435392 206.283491,150.36982 C183.878176,138.364043 156.463812,132.96697 134.63748,140.216193 C111.509629,149.001326 91.9958034,168.089851 76.0368988,197.41019 C75.8026037,197.840646 75.4498516,198.178963 75.0338847,198.396279 C74.6179177,198.613595 74.1387358,198.709911 73.651581,198.656366 C72.988602,198.583495 72.4179236,198.248798 72.0312076,197.766574 C71.6444917,197.28435 71.441738,196.654598 71.5146084,195.991619 L71.6283495,194.95493 C73.6991274,176.038017 75.0929665,161.168985 75.8093142,150.348045 C77.0362662,131.814066 77.0354197,98.5855276 76.9981188,89.2372783 Z" stroke-linejoin="square" fill="url(#linearGradient-14)" fill-rule="evenodd"></path>
                                    <use stroke="#000000" xlink:href="#path-20"></use>
                                </g>
                            </g>
                        </g>
                    </g>
                </g>
            </g>
        </g>
    </g>
</svg>