<svg height="1200" viewBox="0 0 1000 1200" width="1000" xmlns="http://www.w3.org/2000/svg" xmlns:xlink="http://www.w3.org/1999/xlink"><defs><path id="a" d="m0 0h1000v1200h-1000z"/><mask id="b" fill="#fff"><use fill="#fff" fill-rule="evenodd" xlink:href="#a"/></mask></defs><g fill="none" fill-rule="evenodd"><use fill="#d96208" xlink:href="#a"/><g mask="url(#b)"><g transform="translate(-359 134)"><path d="m1261.84375 847.951857c-54.91713 142.039113-76.13087 226.166983-63.64124 252.383613" fill="none" opacity=".9" stroke="#2f5112" stroke-linecap="round" stroke-width="17.0625"/><g fill-rule="evenodd"><path d="m1577.5218 1038.94486c2.07995-9.32574-2.66093-26.00989 3.14881-47.943891 18.75052-70.790357 46.98997-118.901751 40.9227-180.565596-6.06728-61.663844-35.54348-126.395526-88.58372-170.826193-37.47392-31.391096-81.50187-51.568541-118.1187-56.374966-79.64174-10.453991-126.99659 44.494476-114.1532 66.922294-75.70981-22.886554-138.02333 14.945289-127.61678 126.329551 5.28094 56.523505 53.09074 129.947436 155.39828 181.252498 102.30754 51.305063 159.36636 37.38991 249.00261 81.206303z" fill="#146e40" opacity=".8"/><path d="m609.120557 898.074425c48.003488-15.372219 37.522256-40.690712 51.519687-63.378824 9.518914-15.428989 25.456901-24.016714 47.854801-30.29444 55.333698-15.509032 306.475435 32.162126 315.627705 48.136974 9.15227 15.974849 9.15227 15.974849 29.18896 50.368282 4.87722 8.371869 57.05902 34.430916 116.30384 58.235452 43.02555 17.287639 90.0922 30.707929 123.93704 48.298751 31.4596 16.3511 55.39415 38.20584 71.80366 65.56421l-1124.9875 8.2777c210.884457-112.279962 333.801726-174.015996 368.751807-185.208105z" fill="#db9d5b" opacity=".8"/><path d="m854.61875 67.3686901 38.100738 4.5996776c110.803512 13.3766565 191.755612 111.1363343 184.238612 222.4909403-11.14994 165.172057-19.48626 277.682443-25.00898 337.531158-4.63149 50.190667-9.8764 98.241109-15.73472 144.151328h-.00001c-6.58242 51.584795-43.83067 94.004096-94.131716 107.199705-100.360022 26.327716-85.644662 35.202313-197.697649 9.528795-32.698178-7.491788-60.947386-28.166273-56.254911-42.770109 4.744683-14.766317 10.556972-31.157556 13.263494-49.16898 21.434355-142.64185-24.956099-136.004853-31.260721-200.898371-2.716215-27.958023-12.600817-136.24087-29.653805-324.848539-9.544424-105.562395 68.293508-198.8749193 173.855902-208.4193575 13.411915-1.2126401 26.914216-1.0102745 40.283766.6037526z" fill="#683901" opacity=".9"/><path d="m561.525392 424.35915c-7.033732-33.043707-11.634893-59.574126 23.270366-59.574126 20.524004 0 44.517144 14.886804 71.97942 44.660411 7.234771 7.843678 12.012595 17.635397 13.742947 28.16493l10.715932 65.208575c2.669733 16.245855-6.116279 32.210707-21.269362 38.648047-23.749268 10.089175-51.294222.900816-64.230325-21.42577-3.741406-6.457328-7.38761-13.877021-10.938612-22.259082-22.195749-52.392568-16.236634-40.379278-23.270366-73.422985z" fill="#693400" opacity=".9"/><path d="m840.780937 58.9688399h36.928768c112.351466-.0000001 204.774785 88.4808111 209.669495 200.7256041 3.89866 89.403799 3.57843 158.754666-.96072 208.052601-4.14526 45.020099-13.21565 88.593638-27.21119 130.720616-20.38852 61.370046-67.931115 109.913654-128.863076 131.576306-20.707122 7.361837-32.825652 11.042755-36.355591 11.042755-6.975008 0-9.505397 0-7.591167 0-144.06585-27.413609-224.935982-103.495695-242.610396-228.246259-10.417683-73.530689-14.694957-156.281841-12.831823-248.253457 2.313979-114.227266 95.574999-205.6181661 209.8257-205.6181661z" fill="#6c3d00" opacity=".9"/><path d="m1071.71957 520.527019c13.59369-40.684597 10.23803-96.706042 35.64582-93.043748 15.23051 2.195335 2.43307 49.80976 12.22756 66.212303s12.95345 56.070902 10.4226 64.95643c-10.22471 35.897784 8.71383 69.096836-2.89855 96.296731-13.61788 31.897429-35.18621 67.044248-38.10276 78.650247-10.2235 40.682924-6.16389 59.733712-21.27742 80.530144-15.11352 20.796432-36.84132 46.941223-52.18992 71.620249-25.869121 41.594985-54.224281 95.663553-58.135331 130.200525-3.409119 30.10462 20.739155 37.52484 0 64.91359-55.416612 73.18483 9.461391 45.73273 4.108917 45.73273-10.456647 0-121.884084 55.96321-148.38084-131.049892-6.342422-44.76458-8.857526-101.318926 21.216478-139.108178 50.803545-63.836791 110.238653-125.22053 151.978597-185.672641 35.081829-50.809136 23.475499-113.957531 52.700959-142.674746 14.10775-13.862412 30.4669-.92849 32.68389-7.563744z" fill="#734510" opacity=".95"/><path d="m816.0806 1.75731693c41.093071 2.38562849 66.490974 4.12920444 76.193709 5.23072787 5.740551.65170807 17.260238 2.63009335 34.559063 5.9351558v-.0000002c91.457498 17.4735995 160.467258 93.1182006 169.495378 185.7912446 6.90881 70.918469 8.10354 130.880765 3.58417 179.88689-1.97501 21.416189-10.53243 33.486317-13.0762 33.927779-2.0764.360352-.2658-22.685049-5.70577-67.64818-1.52878-12.635854-7.07476-52.126571-16.63795-118.472151-13.18051-91.441118-95.512763-156.6485763-187.541864-148.5338702-68.961782 6.0807351-114.135841-32.7570485-201.168163 81.7556702-45.133927 59.384934-38.784038 219.20197-42.202535 232.169453-27.42272-12.20224-34.292556-19.819283-44.176737-61.693171-19.028845-80.614845-7.620683-156.035293 34.224485-226.261343 40.082351-67.2676274 114.279958-106.62645042 192.452414-102.08820507z" fill="#f1cd9f" opacity=".9"/><path d="m882.35736 378.459107c9.581533.594175 17.315355 8.054546 18.253902 17.608495 2.01675 20.529265 4.717505 34.831917 8.102264 42.907955 2.807369 6.698384 10.463715 19.560241 22.969037 38.58557 6.901277 10.499453 3.984378 24.605531-6.515076 31.506806-3.46862 2.27992-7.494899 3.567417-11.642807 3.723061l-10.389234.389839c-3.396092 5.237791-8.46052 8.055316-15.193285 8.452576s-12.032439-2.261742-15.899022-7.977006l-11.502787.747986c-12.537997.815302-23.362985-8.68782-24.178288-21.225817-.281735-4.332608.682209-8.655361 2.778002-12.457797 10.572124-19.1812 17.097584-32.447346 19.57638-39.798438 3.093462-9.173937 5.1616-24.785204 6.204415-46.833801.428854-9.068049 8.127638-16.071474 17.195685-15.64259.080303.003798.160576.008185.240814.013161z" fill="#b16708" opacity=".2"/><ellipse cx="769.30625" cy="362.511297" fill="#292518" opacity=".7" rx="83.0375" ry="82.991009"/><ellipse cx="992.25625" cy="356.826982" fill="#292518" opacity=".7" rx="83.0375" ry="82.991009"/><path d="m82.7495051 5.9290206c32.9877129-.25467685 62.2795439-2.2056526 87.8754949-5.85292727-22.135837 26.87300347-50.35747 40.30950527-84.6648976 40.30950527-34.307428 0-62.9607954-12.792609-85.9601024-38.37782709 22.1786243 2.86884291 49.7617926 4.17592594 82.7495051 3.92124909z" fill="#d8d8d8" opacity=".2" transform="translate(795.46875 591.020788)"/><path d="m77.1732214 907.835041c59.4905116-92.393509 117.5377596-145.098055 174.1417426-158.113639 26.566193-6.108661 81.249529-19.834687 131.463483 2.626523 17.4843 7.820904 52.453302 23.162698 59.582536 85.468529 68.243135-28.967245 136.927024 50.873336 150.895802 78.47357 6.771662 13.3798 34.635858 86.691006-5.792485 159.140976-7.764174 13.91385-37.985099 33.60954-90.662775 59.08704-6.153883 2.97632-13.021505 4.15962-19.816609 3.41442l-443.6217847-48.65061c-19.9833559-2.19151-34.40649515-20.16779-32.21498311-40.15115.53361551-4.86579 2.04315349-9.57396 4.4383184-13.84289l70.44662881-125.557984c.3607644-.642997.740982-1.274883 1.140126-1.894785z" fill="#165b3b" opacity=".8"/></g><path d="m852.34375 363.079729h56.875" fill="none" opacity=".8" stroke="#352a13" stroke-width="5.6875"/><path d="m686.26875 356.821372-89.739974 9.04471" fill="none" opacity=".8" stroke="#352a13" stroke-linecap="round" stroke-width="6.825"/></g></g></g></svg>