<svg height="1200" viewBox="0 0 1200 1200" width="1200" xmlns="http://www.w3.org/2000/svg" xmlns:xlink="http://www.w3.org/1999/xlink"><defs><linearGradient id="a" x1="69.709003%" x2="34.578847%" y1="3.650941%" y2="98.916598%"><stop offset="0" stop-color="#ffe74f"/><stop offset=".680599054" stop-color="#ffcb18"/><stop offset="1" stop-color="#ffd54e"/></linearGradient><linearGradient id="b" x1="74.281751%" x2="8.834252%" y1="0%" y2="107.800572%"><stop offset="0" stop-color="#5b412a"/><stop offset="1" stop-color="#282028"/></linearGradient><linearGradient id="c" x1="50%" x2="39.939899%" y1="100%" y2="0%"><stop offset="0" stop-color="#ffe374"/><stop offset="1" stop-color="#fcd213"/></linearGradient><linearGradient id="d" x1="79.368794%" x2="26.897249%" y1="3.918832%" y2="95.357232%"><stop offset="0" stop-color="#ff603b"/><stop offset="1" stop-color="#f14f29"/></linearGradient><linearGradient id="e" x1="51.988273%" x2="39.804299%" y1="0%" y2="100%"><stop offset="0" stop-color="#ffd226"/><stop offset="1" stop-color="#ffdd6d"/></linearGradient><rect id="f" height="138.461538" rx="69.230769" width="138.461538" x=".206402"/><filter id="g" height="161.9%" width="161.9%" x="-31%" y="-31%"><feGaussianBlur in="SourceAlpha" result="shadowBlurInner1" stdDeviation="33.5"/><feOffset dx="-5" dy="16" in="shadowBlurInner1" result="shadowOffsetInner1"/><feComposite in="shadowOffsetInner1" in2="SourceAlpha" k2="-1" k3="1" operator="arithmetic" result="shadowInnerInner1"/><feColorMatrix in="shadowInnerInner1" type="matrix" values="0 0 0 0 0.990800498   0 0 0 0 0.216989337   0 0 0 0 0.027186599  0 0 0 1 0"/></filter><linearGradient id="h" x1="77.225913%" x2="7.949078%" y1="10.325093%" y2="106.824151%"><stop offset="0" stop-color="#ff6a46"/><stop offset="1" stop-color="#ff8365"/></linearGradient><mask id="i" fill="#fff"><use fill="#fff" fill-rule="evenodd" xlink:href="#f"/></mask></defs><g fill="none" fill-rule="evenodd"><path d="m0 0h1200v1200h-1200z" fill="#000"/><g transform="translate(420 420)"><rect fill="url(#a)" height="360" rx="180" width="360"/><rect fill="url(#b)" height="38.769231" rx="19.384615" width="38.769231" x="127.384615" y="85.846154"/><rect fill="url(#b)" height="38.769231" rx="19.384615" width="38.769231" x="271.384615" y="144"/><rect height="40.153846" rx="20.076923" stroke="url(#c)" stroke-width="1.384615" width="40.153846" x="126.692308" y="85.153846"/><rect height="40.153846" rx="20.076923" stroke="url(#c)" stroke-width="1.384615" width="40.153846" x="270.692308" y="143.307692"/><g transform="translate(102.255136 180)"><use fill="url(#d)" fill-rule="evenodd" xlink:href="#f"/><use fill="#000" filter="url(#g)" xlink:href="#f"/><rect height="139.846154" rx="69.923077" stroke="url(#e)" stroke-width="1.384615" width="139.846154" x="-.485905" y="-.692308"/><rect fill="url(#h)" height="121.846154" mask="url(#i)" rx="60.923077" width="121.846154" x="-20.562829" y="58.153846"/></g></g></g></svg>