<svg height="1200" viewBox="0 0 1200 1200" width="1200" xmlns="http://www.w3.org/2000/svg" xmlns:xlink="http://www.w3.org/1999/xlink"><linearGradient id="a"><stop offset=".00082098853" stop-color="#9a00ff"/><stop offset=".674783262" stop-color="#ff003c"/><stop offset="1" stop-color="#ffd000"/></linearGradient><radialGradient id="b" cx="81.486411%" cy="91.147808%" gradientTransform="matrix(-.66193939 -.4387654 .74955736 -.38747681 .67105 1.622189)" r="156.024382%" xlink:href="#a"/><radialGradient id="c" cx="90.214249%" cy="8.004019%" gradientTransform="matrix(-.6097422 .76534769 -.72506591 -.64361705 1.51025 -.558897)" r="107.346599%" xlink:href="#a"/><radialGradient id="d" cx="71.216923%" cy="21.721273%" gradientTransform="matrix(-.71951426 .63660476 -.69447767 -.65955497 1.375434 -.092893)" r="111.976192%"><stop offset="0" stop-color="#ffdcf2"/><stop offset=".525275687" stop-color="#fff"/><stop offset="1" stop-color="#ffddd0"/></radialGradient><g fill="none" fill-rule="evenodd"><path d="m0 0h1200v1200h-1200z" fill="#000"/><g transform="translate(411 444)"><path d="m19.2389016 13.8084412 51.9574238-13.95752146c13.8563877-3.72229444 28.1067252 4.49301137 31.8290196 18.34939916.590442 2.1979423.889503 4.4639429.889503 6.7398102v127.6482789c0 14.347646-11.6310659 25.978712-25.9787123 25.978712-2.2758674 0-4.5418679-.299061-6.7398103-.889503l-51.9574238-13.957521c-11.34956234-3.048877-19.2389016-13.337265-19.2389016-25.08921v-99.7332354c0-11.751945 7.88933926-22.040333 19.2389016-25.0892094z" fill="url(#b)" transform="translate(294.425401 64.94678)"/><rect fill="url(#c)" height="311.744543" rx="60.616994" width="329.063684"/><path d="m193.986117 129.990549c25.290152 14.373263 25.295928 37.673643 0 52.050188l-32.011674 18.193334c-25.290152 14.373263-45.79187 2.451338-45.79187-26.636803v-35.163251c0-29.084362 20.495942-41.0133475 45.79187-26.636803z" fill="url(#d)"/></g></g></svg>