<svg height="1200" viewBox="0 0 1200 1200" width="1200" xmlns="http://www.w3.org/2000/svg" xmlns:xlink="http://www.w3.org/1999/xlink"><defs><path id="a" d="m0 0h1200v1200h-1200z"/><linearGradient id="b" x1="0%" x2="100%" y1="50%" y2="75.340657%"><stop offset="0" stop-color="#27fffd"/><stop offset="1" stop-color="#bfff00"/></linearGradient><linearGradient id="c" x1="70.832559%" x2="27.006233%" y1=".279316%" y2="96.20646%"><stop offset="0" stop-color="#ffe847"/><stop offset="1" stop-color="#ff9d30"/></linearGradient><linearGradient id="d" x1="71.797475%" x2="30.164572%" y1="94.875916%" y2="0%"><stop offset="0" stop-color="#121212" stop-opacity="0"/><stop offset="1" stop-color="#121212"/></linearGradient><linearGradient id="e"><stop offset="0" stop-color="#121212"/><stop offset="1" stop-color="#121212" stop-opacity="0"/></linearGradient><linearGradient id="f" x1="48.810049%" x2="51.314616%" xlink:href="#e" y1="0%" y2="97.883649%"/><linearGradient id="g" x1="42.118333%" x2="57.991449%" xlink:href="#e" y1="2.353596%" y2="97.610493%"/><linearGradient id="h" x1="35.297822%" x2="72.480056%" y1="93.22521%" y2="0%"><stop offset="0" stop-color="#9704ff"/><stop offset="1" stop-color="#37f3ff"/></linearGradient><linearGradient id="i" x1="50%" x2="50%" y1="100%" y2="0%"><stop offset="0" stop-color="#f41818"/><stop offset="1" stop-color="#e0f"/></linearGradient><mask id="j" fill="#fff"><use fill="#fff" fill-rule="evenodd" xlink:href="#a"/></mask></defs><g fill="none" fill-rule="evenodd"><use fill="#f7f9fa" xlink:href="#a"/><g mask="url(#j)"><g transform="translate(315 358.5)"><path d="m1.5 169.5 302.25-147.75" stroke="#121212" stroke-linecap="square" stroke-width="1.5"/><path d="m256.5 229.5 295.5 118.5" stroke="#121212" stroke-linecap="square" stroke-width="1.5"/><rect fill="url(#b)" height="40.5" opacity=".9" rx="20.25" stroke="#121212" stroke-width="1.5" width="40.5" x="75.75" y="375.75"/><rect fill="url(#c)" height="483" rx="241.5" stroke="#121212" stroke-width="1.5" width="483" x="44.25" y=".75"/><path d="m13.0196097 35.5487083c0 .82725.67275 1.5 1.5 1.5s1.5-.67275 1.5-1.5-.67275-1.5-1.5-1.5-1.5.67275-1.5 1.5zm8.4974338-.8500479c0 .82725.67275 1.5 1.5 1.5s1.5-.67275 1.5-1.5-.67275-1.5-1.5-1.5-1.5.67275-1.5 1.5zm25.0933279-10.2005741c0-.82725-.67275-1.5-1.5-1.5s-1.5.67275-1.5 1.5.67275 1.5 1.5 1.5 1.5-.67275 1.5-1.5zm-9.7979471 4.2502392c0 .82725.67275 1.5 1.5 1.5s1.5-.67275 1.5-1.5-.67275-1.5-1.5-1.5-1.5.67275-1.5 1.5zm-6.1476904 1.9001914c.82725 0 1.5.67275 1.5 1.5s-.67275 1.5-1.5 1.5-1.5-.67275-1.5-1.5.67275-1.5 1.5-1.5zm-9.3902292-10.2944417c.2394328 0 .4353594.1296554.4353594.2880955 0 0-.1735544 1.6777504-.3935892 1.8751328l-.0417702.0188901c-.2394328 0-.435409-1.8940229-.435409-1.8940229 0-.1584401.1959762-.2880955.435409-.2880955zm9.2659731-6.8444408.0572037.0096619c.0534391.0182949.0873599.0587625.0991801.1258771.0699773.3985611-.4589997 1.2604613-1.0526896 1.588229-.0299974.0165549-.02518.0357945.0059597.029431.3701995-.0761129.7122889-.3077825.9665217-.561923.0224483-.0223715.0548296-.0071589.0487705.0233161-.0667988.3363186-.2042702.6893413-.3153201.8989873-.5332482 1.0073151-1.4636638 1.4061745-1.6812938 1.4725931-.0581572.0177481-.1899172.0652254-.3846022.1166302-.0596471.0188418-.085423.030475-.1171586.0994787-.1079708.2614486-.4192184 1.2515128-.5605141 1.5601404-.3499363.8712466-1.1862375 1.4147254-2.0815899 1.4248672-.0008443.0000497-.0014403.0001491-.0024832.0000994-.0011423-.0000497-.0023839-.0000994-.0035262-.0001491-.1923135.0016406-.387281-.0211877-.5806701-.070729l-.1927062-.0585287-.0379437-.0144172c-.1108512-.0333584-.2276622-.0736272-.350284-.1222977-.6965452-.2760149-1.2823881-.2749709-1.6077405.2802904-.121261.2062157-.2012646.4486077-.2942493.624877l-.07302.1182056-.0267071.0360243-.0322944.0287537c-.0022349.0017897-.0037745.0022371-.0050658.0030325-.0534887.0363413-.1225224.0482231-.1881789.0251556-.0199652-.0070595-.0374471-.0174995-.0536874-.0293316l-.0014899-.0004909-.00149-.0004537-.0121678-.0103903-.0153091-.0152188-.0086789-.0101853c-.0048174-.005916-.0091382-.0120806-.0132604-.0184441l-.0049664-.0082029c-.0051652-.0088491-.0097343-.0178972-.0136081-.0273927-.0032779-.0078051-.0064068-.0159583-.0092376-.0249069-.0735532-.2348513-.0582069-.7996577-.062031-1.4866126-.0038242-.693219-.0640176-1.5215122.1812259-2.2192055.3765069-1.0713971 1.2821398-1.8052328 2.4421048-2.0623065.4083915-.0904804 2.6849148-.3342803 3.5472899-.5728601.6316337-.1746968 1.28507-.3791228 2.2582964-1.0879521.000596-.000232.0536156-.0416055.1229326-.0575252zm-3.5523655 3.926866c-.1598205.0337561-.3417417.0629385-.5733275.0981861-.0187235.0023863-.0414699.0246584-.0283585.0554814.1141788.2304764.1365775.4982387.0445491.7601346-.0207101.058862-.046486.1144925-.076682.1665933-.0178296.030823-.0560216.0225704-.0597961-.0097937-.0218524-.1881197-.1473051-.3566021-.3377686-.423667-.2664006-.0938609-.5583784.0462842-.6520954.3130025-.0705237.2007969-.008443.4158121.140203.5499418.0262725.0237635.0115222.0634854-.0263719.0605025-.0822941-.0065623-.1650353-.0234652-.2466341-.0522002-.4463849-.1571973-.708713-.5959774-.6520458-1.0475342.0029302-.0313201-.0264712-.0474276-.0474793-.0416607-.2255267.0518025-.4106761.102213-.5835087.1677864-.023243.0109372-.0331262.0246584-.0354605.0497145-.0136577.6639868.4367997 1.2604614 1.0998213 1.4939206.8577563.3020653 1.7977074-.1490937 2.0994195-1.0077128.1321077-.3759411.125552-.7508878-.0018375-1.0978453-.0077477-.0175989-.0230941-.0422076-.062627-.0348498zm5.7024098 20.8646628c-6.2073754 2.2594271-12.7699435 3.7759125-18.0043627 4.158434-.7987588.0578033-1.6374555.0952054-2.477002.0952054-3.43381298 0-6.68827579-.5913074-7.53716943-2.9238387-1.53803552-4.2272879 7.64253763-10.0852935 11.48677663-12.2648162l-1.466657-4.0309268c-1.0774746-2.9615667-.9381167-6.165397.3934312-9.0224078 1.3315478-2.8570108 3.6963837-5.02378276 6.6568896-6.10079338 6.1096549-2.2245752 12.8923066.93845282 15.1177845 7.05114688l1.7258288 4.7492173c.0977205.266915.0552333.5644317-.1138656.7930946-1.9425134 2.647049-5.0346343 4.4405453-9.787249 6.1703926-3.1746413 1.155215-6.6657704 1.5076069-9.0127616 1.5424589-.0152839-1.6382075.0112237-.0333923 0-1.7151716 2.1532497-.0323018 5.4387409-.3356159 8.4315371-1.4245272 4.1994318-1.529236 6.9686502-3.0286158 8.7267693-5.2234393l-1.5669268-4.3105926c-1.9059744-5.2311944-7.7105715-7.94029689-12.9398922-6.03533968-2.5347845.92230188-4.5580235 2.77710628-5.6975294 5.22184388s-1.2593197 5.187842-.3373481 7.7226847l1.7071344 4.6905639c.003399.0085005.006798.017001.010197.0263515l.0042487.0153009.0059482.0161509c.0501637.1609603.1533426.3879563.1127213.5433398-.0687865.2631204-.3590358.4313026-.6293653.5285705-.0152954.0059504-.0305908.0110506-.0458861.0144508-8.20002366 4.547756-11.79183459 8.7915207-11.18511782 10.4610147.40617734 1.1144127 2.65539373 2.1281939 8.29429082 1.7142206 5.0848644-.3714709 11.4808828-1.8514042 17.546351-4.0598285 6.0646185-2.2084243 11.914252-5.1869919 16.0482535-8.1715099 4.5826661-3.3083862 5.781654-5.6783196 5.3763264-6.7918823-.5021984-1.3821778-5.2775382-2.2443077-13.2081931-1.0686915-.2414617-1.6443061-.0178501-.0212685-.2481251-1.6822447 4.8205942-.7148902 13.7333345-1.4610508 15.052986 2.1695035 1.0570808 2.9020633-2.6681942 6.360908-5.9787944 8.7512425-4.2555149 3.072923-10.2555529 6.1313951-16.4612288 8.3908223z" fill="#121212" transform="matrix(.95105652 .30901699 -.30901699 .95105652 359.727112 95.883861)"/><path d="m40.3169558 41.0994665c-1.4048082.9331792-.0193719.0069728-1.4207709.9342026l7.8397324 11.9244711c1.420771-.9350526 0 0 1.420771-.9350526z" fill="url(#d)" transform="matrix(.9781476 .20791169 -.20791169 .9781476 361.36243 95.889593)"/><path d="m14.3403124 41.7090943 1.6858908 14.3896099c1.669056-.1973943.0257566.0178177 1.6875904-.1972111l-1.6850412-14.3896099c-1.626222.1951869-.0229047.0139566-1.68844.1972111z" fill="url(#f)" transform="matrix(.95105652 .30901699 -.30901699 .95105652 366.395564 101.336699)"/><path d="m27.9632501 42.0141998c-1.5664775.5764472.0001137.0016491-1.570806.579918l4.5831463 12.6638274c1.5904397-.5816993.0079588-.005793 1.5966678-.5814328z" fill="url(#g)" transform="matrix(.95105652 .30901699 -.30901699 .95105652 367.001821 97.170501)"/><g stroke="#121212" stroke-width="1.5"><rect fill="url(#h)" height="94.5" opacity=".9" rx="47.25" width="94.5" x="68.25" y="24.75"/><rect fill="url(#i)" height="82.5" opacity=".9" rx="41.25" width="82.5" x="548.25" y="120.75"/><path d="m2.25 138.75 276 111" stroke-linecap="square"/><path d="m254.25 222.75v289.5" stroke-linecap="square"/><path d="m220.5 490.5 330.75-165.75" stroke-linecap="square"/></g></g></g></g></svg>