<svg height="52" viewBox="0 0 48 52" width="48" xmlns="http://www.w3.org/2000/svg"><g fill="none" fill-rule="evenodd"><path d="m0 0h48v52h-48z" fill="#000" fill-opacity=".01"/><path d="m17.2287638 18.8128932 3.7708933 3.7701068 3.7715791-3.7701068c.3905243-.3905243 1.0236892-.3905243 1.4142135 0s.3905243 1.0236893 0 1.4142136l-3.7717926 3.7708932 3.7717926 3.7715791c.3905243.3905243.3905243 1.0236893 0 1.4142136s-1.0236892.3905243-1.4142135 0l-3.7715791-3.7717927-3.7708933 3.7717927c-.3905243.3905243-1.0236892.3905243-1.4142135 0s-.3905243-1.0236893 0-1.4142136l3.7701068-3.7715791-3.7701068-3.7708932c-.3905243-.3905243-.3905243-1.0236893 0-1.4142136s1.0236892-.3905243 1.4142135 0z" fill="#fff" opacity=".9"/></g></svg>